<svg width="296" height="185" viewBox="0 0 296 185" fill="none" xmlns="http://www.w3.org/2000/svg">
<path d="M75.9321 128.089C75.9321 128.089 56.7772 128.532 43.1584 147.244C37.733 154.109 25 170.274 25 170.274H48.5838L57.5523 156.766H50.7982L75.9321 128.089Z" fill="#F1C01E"/>
<path d="M80.9144 128.089L60.2094 153.001H71.3923L61.0952 170.274H78.3678L92.3188 128.089H80.9144Z" fill="#C21920"/>
<path d="M95.1976 128.089L92.2082 137.39C92.2082 137.39 98.4086 137.39 99.848 137.39C101.287 137.39 106.602 137.611 104.498 144.808C102.948 150.344 97.7443 150.787 97.7443 150.787H88.1115L85.2327 160.42C85.2327 160.42 94.9763 160.42 97.7443 160.42C100.512 160.42 111.252 159.866 114.795 146.137C119.114 129.307 105.273 128.089 103.17 128.089C101.066 128.089 95.1976 128.089 95.1976 128.089Z" fill="#F1C01E"/>
<path d="M148.012 140.158C148.012 140.158 132.511 140.158 130.74 140.158C128.968 140.158 119.335 140.6 115.128 153.444C109.924 169.056 121.661 170.163 121.661 170.163H139.155L141.369 162.634H124.65C124.65 162.634 123.321 161.306 125.093 159.091H142.366L144.802 151.119H127.64C127.64 151.119 126.643 148.794 129.3 147.687H145.909L148.012 140.158Z" fill="#F1C01E"/>
<path d="M272.575 140.158C272.575 140.158 257.074 140.158 255.302 140.158C253.531 140.158 243.898 140.6 239.69 153.444C234.486 169.056 246.223 170.163 246.223 170.163H263.717L265.931 162.634H249.212C249.212 162.634 247.884 161.306 249.655 159.091H266.928L269.364 151.119H252.202C252.202 151.119 251.205 148.794 253.863 147.687H270.471L272.575 140.158Z" fill="#F1C01E"/>
<path d="M186.322 140.158H162.96C162.96 140.158 150.337 141.043 147.791 155.216C145.244 168.945 155.984 170.274 155.984 170.274H172.593L175.139 161.859H159.527C159.527 161.859 156.095 160.752 158.088 153.998C159.417 149.458 163.735 148.462 163.735 148.462H183.886L179.347 163.631C179.347 163.631 176.689 170.274 183.333 170.274C189.533 170.274 195.844 170.274 195.844 170.274L198.28 161.97C198.28 161.97 192.301 161.97 190.862 161.97C189.644 161.97 190.087 160.641 190.087 160.641L193.741 148.572H203.263L205.809 140.158H196.287L199.498 129.528H189.644L186.322 140.158Z" fill="#F1C01E"/>
<path d="M200.273 170.274H210.791L217.213 148.683H223.967C223.967 148.683 226.071 148.683 225.296 151.119L219.428 170.385H229.614C229.614 170.385 234.929 152.669 235.593 150.344C236.147 148.462 237.808 140.822 229.836 140.822C222.085 140.822 209.131 140.822 209.131 140.822L200.273 170.274Z" fill="#F1C01E"/>
<path d="M209.795 138.607C209.795 138.607 215.331 124.656 234.707 128.753C234.707 128.864 227.843 141.597 209.795 138.607Z" fill="#246C75"/>
<path d="M268.589 170.274H278.443L284.532 150.012C284.532 150.012 284.975 148.462 286.858 148.462C288.408 148.462 292.837 148.462 292.837 148.462L295.273 140.158C295.273 140.158 285.75 140.158 284.532 140.158C282.539 140.158 277.557 140.158 275.675 146.912L268.589 170.274Z" fill="#F1C01E"/>
<path d="M154.767 184.557H152.663V181.014C152.663 180.239 152.663 179.796 152.552 179.575C152.442 179.353 152.331 179.132 152.109 179.021C151.888 178.91 151.666 178.8 151.334 178.8C151.002 178.8 150.67 178.91 150.338 179.021C150.006 179.243 149.895 179.464 149.784 179.685C149.673 180.018 149.673 180.46 149.673 181.236V184.336H147.57V177.471H149.563V178.467C150.227 177.692 151.113 177.25 152.22 177.25C152.663 177.25 153.106 177.36 153.549 177.471C153.881 177.582 154.213 177.803 154.434 178.025C154.656 178.246 154.767 178.467 154.877 178.8C154.988 179.132 154.988 179.464 154.988 180.018V184.557H154.767Z" fill="#246C75"/>
<path d="M158.531 179.796L156.649 179.464C156.87 178.8 157.203 178.357 157.756 178.025C158.31 177.692 159.085 177.582 160.081 177.582C161.078 177.582 161.742 177.692 162.185 177.914C162.628 178.135 162.96 178.357 163.182 178.689C163.403 179.021 163.514 179.575 163.514 180.35V182.453C163.514 183.007 163.514 183.45 163.624 183.782C163.735 184.114 163.846 184.336 163.957 184.668H161.853C161.742 184.557 161.742 184.336 161.631 184.114C161.631 184.004 161.521 183.893 161.521 183.893C161.189 184.225 160.746 184.446 160.413 184.557C159.971 184.668 159.528 184.779 159.085 184.779C158.31 184.779 157.645 184.557 157.092 184.225C156.649 183.893 156.428 183.339 156.428 182.786C156.428 182.343 156.538 182.011 156.76 181.789C156.981 181.457 157.313 181.236 157.645 181.125C157.978 181.014 158.642 180.793 159.306 180.682C160.303 180.571 160.967 180.35 161.299 180.239V180.018C161.299 179.685 161.189 179.464 160.967 179.242C160.746 179.132 160.413 179.021 159.86 179.021C159.528 179.021 159.196 179.132 158.974 179.242C158.753 179.242 158.642 179.464 158.531 179.796ZM161.299 181.346C161.078 181.457 160.635 181.568 159.971 181.678C159.417 181.789 158.974 181.9 158.863 182.011C158.642 182.232 158.42 182.343 158.42 182.675C158.42 182.896 158.531 183.118 158.753 183.339C158.974 183.561 159.306 183.561 159.638 183.561C159.971 183.561 160.413 183.45 160.746 183.228C160.967 183.118 161.189 182.896 161.299 182.675C161.299 182.564 161.41 182.232 161.41 181.789V181.346H161.299Z" fill="#246C75"/>
<path d="M169.16 177.692V179.132H167.721V181.9C167.721 182.453 167.721 182.786 167.721 182.896C167.721 183.007 167.832 183.118 167.942 183.118C168.053 183.228 168.164 183.228 168.275 183.228C168.496 183.228 168.718 183.118 169.16 183.007L169.382 184.446C168.939 184.668 168.275 184.668 167.721 184.668C167.278 184.668 166.946 184.668 166.725 184.557C166.392 184.446 166.171 184.336 166.06 184.114C165.949 183.893 165.839 183.671 165.728 183.45C165.728 183.228 165.617 182.786 165.617 182.121V179.132H164.621V177.692H165.617V176.364L167.721 175.256V177.692H169.16Z" fill="#246C75"/>
<path d="M175.804 184.557V183.561C175.472 183.893 175.14 184.225 174.697 184.446C174.254 184.668 173.7 184.779 173.147 184.779C172.593 184.779 172.15 184.668 171.707 184.446C171.265 184.225 170.932 184.004 170.822 183.561C170.6 183.228 170.489 182.675 170.489 182.011V177.692H172.593V180.903C172.593 181.9 172.593 182.453 172.704 182.675C172.815 182.896 172.925 183.118 173.147 183.228C173.368 183.339 173.59 183.45 173.922 183.45C174.254 183.45 174.586 183.339 174.918 183.228C175.25 183.007 175.361 182.896 175.472 182.564C175.583 182.343 175.583 181.678 175.583 180.682V177.803H177.686V184.668H175.804V184.557Z" fill="#246C75"/>
<path d="M182.005 184.557H179.901V177.692H181.894V178.689C182.226 178.246 182.558 177.914 182.78 177.803C183.001 177.692 183.333 177.582 183.665 177.582C184.108 177.582 184.551 177.692 185.105 177.914L184.44 179.464C184.108 179.243 183.776 179.132 183.444 179.132C183.112 179.132 182.89 179.243 182.669 179.353C182.447 179.464 182.337 179.796 182.226 180.128C182.115 180.46 182.115 181.235 182.115 182.453V184.557H182.005Z" fill="#246C75"/>
<path d="M190.53 182.453L192.634 182.786C192.412 183.45 191.969 184.004 191.305 184.336C190.751 184.668 189.976 184.889 189.091 184.889C187.651 184.889 186.655 184.446 185.99 183.671C185.437 183.007 185.215 182.232 185.215 181.346C185.215 180.239 185.547 179.353 186.212 178.689C186.876 178.025 187.762 177.692 188.869 177.692C190.087 177.692 190.973 178.025 191.637 178.689C192.301 179.353 192.634 180.35 192.634 181.789H187.319C187.319 182.343 187.54 182.786 187.873 183.007C188.205 183.339 188.648 183.45 189.091 183.45C189.423 183.45 189.644 183.339 189.976 183.228C190.308 183.007 190.419 182.786 190.53 182.453ZM190.641 180.571C190.641 180.018 190.419 179.685 190.198 179.353C189.866 179.021 189.533 178.91 189.091 178.91C188.648 178.91 188.205 179.021 187.983 179.353C187.651 179.685 187.54 180.018 187.54 180.571H190.641Z" fill="#246C75"/>
<path d="M194.405 175.146H196.509V176.474C196.509 177.028 196.509 177.36 196.398 177.692C196.288 178.025 196.066 178.246 195.845 178.467C195.513 178.689 195.18 178.91 194.738 179.021L194.295 178.246C194.738 178.135 195.07 177.914 195.181 177.692C195.402 177.471 195.402 177.249 195.513 176.807H194.516V175.146H194.405Z" fill="#246C75"/>
<path d="M197.506 182.675L199.609 182.343C199.72 182.675 199.831 183.007 200.163 183.118C200.495 183.339 200.827 183.339 201.27 183.339C201.824 183.339 202.267 183.228 202.488 183.118C202.709 183.007 202.82 182.786 202.82 182.675C202.82 182.564 202.82 182.453 202.709 182.343C202.599 182.232 202.377 182.121 202.045 182.121C200.384 181.789 199.277 181.457 198.834 181.236C198.17 180.903 197.948 180.35 197.948 179.685C197.948 179.132 198.17 178.578 198.723 178.135C199.277 177.692 200.163 177.582 201.27 177.582C202.377 177.582 203.152 177.692 203.706 178.025C204.26 178.357 204.592 178.8 204.813 179.353L202.82 179.685C202.709 179.464 202.599 179.243 202.377 179.021C202.156 178.91 201.824 178.8 201.381 178.8C200.827 178.8 200.384 178.91 200.163 179.021C200.052 179.132 199.941 179.243 199.941 179.353C199.941 179.464 200.052 179.575 200.163 179.685C200.384 179.796 201.049 180.018 202.156 180.239C203.263 180.46 204.038 180.682 204.481 181.014C204.924 181.346 205.145 181.789 205.145 182.343C205.145 183.007 204.813 183.561 204.26 184.004C203.595 184.446 202.709 184.668 201.602 184.668C200.495 184.668 199.609 184.446 199.056 184.114C198.059 183.782 197.616 183.228 197.506 182.675Z" fill="#246C75"/>
<path d="M210.128 177.692H211.346V177.139C211.346 176.585 211.456 176.142 211.567 175.81C211.678 175.478 212.01 175.256 212.342 175.146C212.674 174.924 213.228 174.924 213.781 174.924C214.335 174.924 214.999 175.035 215.553 175.146L215.221 176.364C214.889 176.253 214.556 176.253 214.224 176.253C213.892 176.253 213.671 176.364 213.56 176.474C213.449 176.585 213.339 176.807 213.339 177.139V177.582H214.889V179.021H213.339V184.446H211.235V179.021H210.017V177.692H210.128Z" fill="#246C75"/>
<path d="M215.664 181.014C215.664 180.46 215.885 179.796 216.217 179.242C216.55 178.689 217.103 178.246 217.657 177.914C218.321 177.582 218.985 177.471 219.76 177.471C220.978 177.471 221.975 177.803 222.75 178.467C223.525 179.132 223.857 180.018 223.857 181.014C223.857 182.011 223.414 182.896 222.639 183.561C221.864 184.225 220.868 184.557 219.65 184.557C218.875 184.557 218.21 184.446 217.546 184.114C216.882 183.782 216.328 183.45 215.996 182.896C215.885 182.564 215.664 181.9 215.664 181.014ZM217.878 181.125C217.878 181.789 218.1 182.343 218.432 182.675C218.764 183.007 219.207 183.228 219.871 183.228C220.425 183.228 220.868 183.007 221.311 182.675C221.643 182.343 221.864 181.789 221.864 181.125C221.864 180.46 221.643 179.907 221.311 179.575C220.978 179.242 220.425 179.021 219.871 179.021C219.318 179.021 218.875 179.242 218.432 179.575C217.989 179.907 217.878 180.46 217.878 181.125Z" fill="#246C75"/>
<path d="M225.075 181.014C225.075 180.46 225.297 179.796 225.629 179.242C225.961 178.689 226.515 178.246 227.068 177.914C227.733 177.582 228.397 177.471 229.172 177.471C230.39 177.471 231.386 177.803 232.161 178.467C232.936 179.132 233.269 180.018 233.269 181.014C233.269 182.011 232.936 182.896 232.051 183.561C231.276 184.225 230.279 184.557 229.061 184.557C228.286 184.557 227.622 184.446 226.957 184.114C226.293 183.782 225.74 183.45 225.407 182.896C225.186 182.564 225.075 181.9 225.075 181.014ZM227.179 181.125C227.179 181.789 227.4 182.343 227.732 182.675C228.065 183.007 228.618 183.228 229.172 183.228C229.725 183.228 230.168 183.007 230.611 182.675C230.943 182.343 231.165 181.789 231.165 181.125C231.165 180.46 230.943 179.907 230.611 179.575C230.279 179.242 229.725 179.021 229.172 179.021C228.618 179.021 228.175 179.242 227.732 179.575C227.4 179.907 227.179 180.46 227.179 181.125Z" fill="#246C75"/>
<path d="M242.237 184.557H240.244V183.561C239.912 184.003 239.58 184.225 239.137 184.446C238.694 184.668 238.251 184.779 237.808 184.779C236.922 184.779 236.147 184.446 235.483 183.782C234.819 183.118 234.487 182.232 234.487 181.125C234.487 179.907 234.819 179.021 235.483 178.467C236.147 177.914 236.922 177.582 237.919 177.582C238.805 177.582 239.58 177.914 240.244 178.578V175.146H242.348V184.557H242.237ZM236.59 181.014C236.59 181.789 236.701 182.232 236.922 182.564C237.255 183.007 237.698 183.228 238.362 183.228C238.805 183.228 239.248 183.007 239.58 182.675C239.912 182.343 240.133 181.789 240.133 181.125C240.133 180.35 240.023 179.796 239.58 179.464C239.248 179.132 238.805 178.91 238.362 178.91C237.808 178.91 237.476 179.132 237.144 179.464C236.812 179.796 236.59 180.35 236.59 181.014Z" fill="#246C75"/>
<path d="M255.524 179.796L253.42 180.128C253.309 179.796 253.199 179.464 252.977 179.353C252.756 179.132 252.424 179.132 251.981 179.132C251.427 179.132 250.984 179.243 250.763 179.575C250.43 179.907 250.32 180.46 250.32 181.125C250.32 181.9 250.43 182.564 250.763 182.896C251.095 183.228 251.538 183.45 252.091 183.45C252.534 183.45 252.866 183.339 253.088 183.118C253.309 182.896 253.531 182.564 253.641 182.121L255.745 182.453C255.524 183.228 255.081 183.893 254.527 184.336C253.974 184.779 253.088 185 252.091 185C250.873 185 249.988 184.668 249.323 184.004C248.659 183.339 248.327 182.453 248.327 181.346C248.327 180.239 248.659 179.353 249.323 178.689C249.988 178.025 250.984 177.692 252.202 177.692C253.199 177.692 253.974 177.914 254.527 178.246C254.859 178.467 255.302 179.021 255.524 179.796Z" fill="#246C75"/>
<path d="M258.735 179.796L256.852 179.464C257.074 178.8 257.406 178.357 257.96 178.025C258.513 177.692 259.288 177.582 260.285 177.582C261.281 177.582 261.946 177.692 262.388 177.914C262.831 178.135 263.164 178.357 263.385 178.689C263.606 179.021 263.717 179.575 263.717 180.35V182.453C263.717 183.007 263.717 183.45 263.828 183.782C263.939 184.114 264.049 184.336 264.16 184.668H262.056C262.056 184.557 261.946 184.336 261.835 184.114C261.835 184.004 261.724 183.893 261.724 183.893C261.392 184.225 260.949 184.446 260.617 184.557C260.174 184.668 259.731 184.779 259.288 184.779C258.513 184.779 257.849 184.557 257.295 184.225C256.852 183.893 256.631 183.339 256.631 182.786C256.631 182.343 256.742 182.011 256.963 181.789C257.185 181.457 257.517 181.236 257.849 181.125C258.292 181.014 258.845 180.793 259.51 180.682C260.506 180.571 261.171 180.35 261.613 180.239V180.018C261.613 179.685 261.503 179.464 261.281 179.242C261.06 179.132 260.728 179.021 260.174 179.021C259.842 179.021 259.51 179.132 259.288 179.242C259.067 179.242 258.845 179.464 258.735 179.796ZM261.613 181.346C261.392 181.457 260.949 181.568 260.285 181.678C259.731 181.789 259.288 181.9 259.178 182.011C258.845 182.232 258.735 182.343 258.735 182.675C258.735 182.896 258.845 183.118 259.067 183.339C259.288 183.561 259.51 183.561 259.953 183.561C260.285 183.561 260.728 183.45 261.06 183.228C261.281 183.118 261.503 182.896 261.613 182.675C261.613 182.564 261.724 182.232 261.724 181.789V181.346H261.613Z" fill="#246C75"/>
<path d="M267.703 184.557H265.6V177.692H267.593V178.689C267.925 178.246 268.257 177.914 268.478 177.803C268.7 177.692 269.032 177.582 269.364 177.582C269.807 177.582 270.25 177.692 270.693 177.914L270.028 179.464C269.696 179.243 269.364 179.132 269.032 179.132C268.7 179.132 268.478 179.243 268.257 179.353C268.035 179.464 267.925 179.796 267.814 180.128C267.703 180.46 267.593 181.235 267.593 182.453V184.557H267.703Z" fill="#246C75"/>
<path d="M276.339 182.453L278.443 182.786C278.222 183.45 277.779 184.004 277.115 184.336C276.561 184.668 275.786 184.889 274.9 184.889C273.461 184.889 272.464 184.446 271.8 183.671C271.246 183.007 271.025 182.232 271.025 181.346C271.025 180.239 271.357 179.353 272.021 178.689C272.686 178.025 273.571 177.692 274.679 177.692C275.897 177.692 276.782 178.025 277.447 178.689C278.111 179.353 278.443 180.35 278.443 181.789H273.129C273.129 182.343 273.35 182.786 273.682 183.007C274.014 183.339 274.457 183.45 274.9 183.45C275.232 183.45 275.454 183.339 275.786 183.228C276.007 183.007 276.229 182.786 276.339 182.453ZM276.45 180.571C276.45 180.018 276.229 179.685 276.007 179.353C275.675 179.021 275.343 178.91 274.9 178.91C274.457 178.91 274.014 179.021 273.793 179.353C273.461 179.685 273.35 180.018 273.35 180.571H276.45Z" fill="#246C75"/>
<path d="M106.9 32.0161C102.5 30.1161 97.2 30.0161 94.2 30.1161C88 30.3161 86.1 30.9161 86.1 30.9161V60.5161C86.1 60.9161 86.3 61.2161 86.7 61.3161C86.7 61.3161 89.5 62.1161 94.3 62.3161C100.5 62.5161 105 61.6161 108.4 59.4161C112.9 56.4161 115.2 52.1161 115.2 45.7161C115.2 39.0161 112.4 34.4161 106.9 32.0161ZM98.8 55.3161C96.2 55.4161 94.5 55.2161 93.8 55.0161V37.1161C94.6 37.0161 96.5 36.8161 99 36.9161C102.1 37.0161 107.4 38.1161 107.4 45.3161C107.4 52.7161 102 55.1161 98.8 55.3161ZM131.5 42.5161C131.4 42.5161 131.2 42.4161 131.1 42.4161C128.9 41.7161 127.1 40.5161 127 39.0161C127 38.2161 127.3 37.5161 127.7 37.0161C128.3 36.3161 129.4 36.1161 130.1 36.1161C133.5 36.1161 136.7 37.7161 136.7 37.7161L138.6 32.6161C138.7 32.4161 138.7 32.2161 138.6 32.0161C138.5 31.8161 138.3 31.6161 138.1 31.6161C136.4 31.0161 133.4 30.1161 130 30.0161C123.3 29.9161 119.3 33.3161 119.3 38.8161C119.3 45.3161 124.8 47.5161 126.6 48.2161C126.9 48.3161 127.3 48.5161 127.6 48.6161C128.8 49.1161 130.1 49.6161 131.1 50.3161C132.2 51.0161 132.4 52.3161 132.3 53.1161C131.8 55.5161 129.2 56.0161 127 55.7161C123 55.1161 120.9 54.0161 120.9 54.0161L119.2 59.1161C119.1 59.5161 119.2 59.9161 119.6 60.1161C119.6 60.1161 123.3 62.0161 128.1 62.0161C133.5 62.0161 139.8 59.4161 139.8 52.1161C139.8 45.3161 134 43.3161 131.5 42.5161ZM180.6 31.5161V60.7161C180.6 60.9161 180.5 61.1161 180.4 61.3161C180.2 61.4161 180 61.5161 179.8 61.5161H173C173 61.5161 173 49.5161 173 47.1161C173 45.5161 173.5 40.7161 173.6 39.9161C173.6 39.9161 173.6 39.9161 173.6 39.8161C173.6 39.7161 173.5 39.7161 173.4 39.7161L165.6 52.3161C165.6 52.4161 165.5 52.5161 165.4 52.5161C165.2 52.7161 165 52.7161 164.8 52.7161H162.9H161C160.8 52.7161 160.6 52.6161 160.4 52.5161C160.3 52.4161 160.3 52.4161 160.2 52.3161L152.4 39.8161C152.4 39.8161 152.3 39.7161 152.2 39.9161C152.2 39.9161 152.2 39.9161 152.2 40.0161C152.4 40.8161 152.9 45.6161 152.8 47.2161C152.8 49.6161 152.8 61.6161 152.8 61.6161H146C145.8 61.6161 145.6 61.5161 145.4 61.4161C145.2 61.2161 145.2 61.0161 145.2 60.8161V31.6161C145.2 31.2161 145.6 30.8161 146 30.8161H154.3C154.6 30.8161 154.9 31.0161 155.1 31.3161C155.1 31.3161 160.9 41.4161 161.6 42.6161C162.1 43.4161 162.7 45.1161 162.7 45.2161C162.7 45.3161 162.7 45.3161 162.8 45.3161C162.9 45.3161 162.9 45.3161 162.9 45.2161C162.9 45.1161 163.6 43.3161 164 42.6161C164.7 41.4161 170.5 31.3161 170.5 31.3161C170.7 31.0161 170.9 30.8161 171.3 30.8161H179.6C180.2 30.7161 180.6 31.0161 180.6 31.5161Z" fill="#004098"/>
<path d="M88.6 77.7161H86.1V69.2161H88.3C89.6 69.2161 90 69.3161 90.5 69.6161C91.1 70.0161 91.5 70.6161 91.5 71.3161C91.5 72.2161 91 72.9161 90 73.2161C91.4 73.5161 91.8 74.5161 91.8 75.3161C91.9 77.0161 90.8 77.7161 88.6 77.7161ZM89.4 70.5161C89.2 70.4161 89 70.4161 88.6 70.4161H87.5V72.7161H88.7C89.2 72.7161 89.5 72.7161 89.7 72.4161C90 72.1161 90 71.8161 90 71.6161C90.1 71.0161 89.8 70.6161 89.4 70.5161ZM89.6 73.9161C89.4 73.8161 89.2 73.8161 88.8 73.8161H87.6V76.5161H88.9C90 76.5161 90.4 75.9161 90.4 75.1161C90.4 74.6161 90.1 74.1161 89.6 73.9161Z" fill="#0088D2"/>
<path d="M97.8 77.7161L97.1 76.4161C96.5 75.4161 96.1 74.8161 95.6 74.3161C95.4 74.1161 95.3 74.1161 95.1 74.0161V77.7161H93.7V69.2161H96.3C98.2 69.2161 99.1 70.3161 99.1 71.6161C99.1 72.8161 98.3 73.9161 97 73.9161C97.3 74.1161 97.9 74.9161 98.3 75.6161L99.5 77.6161H97.8V77.7161ZM95.8 70.4161H95V73.1161H95.7C96.4 73.1161 96.8 73.0161 97.1 72.7161C97.3 72.5161 97.5 72.1161 97.5 71.7161C97.5 70.8161 97.1 70.4161 95.8 70.4161Z" fill="#0088D2"/>
<path d="M100.8 77.7161V69.2161H102.2V77.7161H100.8Z" fill="#0088D2"/>
<path d="M107.7 77.8161C106.5 77.8161 105.6 77.4161 104.9 76.6161C104.2 75.8161 104 74.8161 104 73.5161C104 71.8161 104.5 70.5161 105.6 69.7161C106.2 69.2161 106.9 69.0161 107.7 69.0161C108.7 69.0161 109.5 69.3161 110.2 69.9161L109.5 70.8161C108.9 70.3161 108.4 70.1161 107.7 70.1161C106.1 70.1161 105.6 71.5161 105.6 73.5161C105.6 74.7161 105.8 75.5161 106.2 76.0161C106.5 76.4161 107.2 76.6161 107.8 76.6161C108.2 76.6161 108.6 76.5161 108.9 76.3161V74.3161H107.5L107.3 73.1161H110.4V77.1161C109.6 77.6161 108.6 77.8161 107.7 77.8161Z" fill="#0088D2"/>
<path d="M116.6 77.7161V73.8161H113.7V77.7161H112.3V69.2161H113.7V72.6161H116.6V69.2161H118V77.7161H116.6Z" fill="#0088D2"/>
<path d="M125 70.4161H122.9V77.7161H121.5V70.4161H119.4V69.2161H125.3L125 70.4161Z" fill="#0088D2"/>
<path d="M130.9 77.9161C129.9 77.9161 129 77.6161 128.1 77.1161L128.6 76.0161C129.4 76.4161 130 76.7161 130.9 76.7161C131.9 76.7161 132.6 76.2161 132.6 75.4161C132.6 74.8161 132.2 74.4161 131.3 74.1161L130.4 73.8161C129.6 73.6161 129.1 73.3161 128.8 72.8161C128.6 72.5161 128.4 72.1161 128.4 71.6161C128.4 70.1161 129.6 69.1161 131.3 69.1161C132.3 69.1161 133.2 69.4161 134 69.9161L133.4 70.9161C132.6 70.4161 132.1 70.2161 131.4 70.2161C130.6 70.2161 130 70.7161 130 71.4161C130 71.9161 130.3 72.2161 131.1 72.4161L132.1 72.7161C133.3 73.1161 134.2 73.8161 134.2 75.1161C134.2 76.6161 133.1 77.9161 130.9 77.9161Z" fill="#0088D2"/>
<path d="M139.2 77.8161C138.1 77.8161 137.2 77.4161 136.5 76.6161C135.9 75.8161 135.5 74.8161 135.5 73.6161C135.5 72.6161 135.7 71.7161 136.1 71.0161C136.7 69.8161 137.9 69.0161 139.2 69.0161C140 69.0161 140.8 69.2161 141.3 69.7161L140.6 70.6161C140.1 70.3161 139.7 70.1161 139.2 70.1161C138.5 70.1161 137.9 70.5161 137.5 71.1161C137.2 71.6161 137.1 72.3161 137.1 73.3161C137.1 74.3161 137.2 74.9161 137.4 75.4161C137.8 76.2161 138.5 76.6161 139.3 76.6161C139.9 76.6161 140.3 76.4161 140.8 76.1161L141.5 77.0161C140.8 77.6161 140.1 77.8161 139.2 77.8161Z" fill="#0088D2"/>
<path d="M142.9 77.7161V69.2161H144.3V77.7161H142.9Z" fill="#0088D2"/>
<path d="M146.4 77.7161V69.2161H151.1L150.9 70.4161H147.8V72.7161H150.4V73.9161H147.8V76.5161H151.2V77.7161H146.4Z" fill="#0088D2"/>
<path d="M156.9 77.7161L155 73.7161C154.5 72.8161 154.1 71.7161 153.9 71.2161C154 71.9161 154 72.7161 154 73.6161V77.7161H152.6V69.2161H154.2L156.3 73.3161C156.7 74.1161 157.1 75.1161 157.2 75.5161C157.2 75.1161 157.1 73.9161 157.1 73.1161V69.2161H158.4V77.7161H156.9V77.7161Z" fill="#0088D2"/>
<path d="M163.8 77.8161C162.7 77.8161 161.8 77.4161 161.1 76.6161C160.5 75.8161 160.1 74.8161 160.1 73.6161C160.1 72.6161 160.3 71.7161 160.7 71.0161C161.3 69.8161 162.5 69.0161 163.8 69.0161C164.6 69.0161 165.4 69.2161 165.9 69.7161L165.3 70.6161C164.8 70.3161 164.4 70.1161 163.8 70.1161C163.1 70.1161 162.5 70.5161 162.1 71.1161C161.8 71.6161 161.7 72.3161 161.7 73.3161C161.7 74.3161 161.8 74.9161 162 75.4161C162.4 76.2161 163.1 76.6161 163.9 76.6161C164.5 76.6161 164.9 76.4161 165.4 76.1161L166.1 77.0161C165.4 77.6161 164.7 77.8161 163.8 77.8161Z" fill="#0088D2"/>
<path d="M167.4 77.7161V69.2161H172.1L171.9 70.4161H168.8V72.7161H171.4V73.9161H168.8V76.5161H172.2V77.7161H167.4Z" fill="#0088D2"/>
<path d="M174.4 77.9161C173.9 77.9161 173.4 77.4161 173.4 76.9161C173.4 76.4161 173.8 75.9161 174.3 75.9161C174.8 75.9161 175.3 76.3161 175.3 76.9161C175.4 77.4161 174.9 77.9161 174.4 77.9161Z" fill="#0088D2"/>
<path d="M182.4 77.7161H179.9V69.2161H182.1C183.4 69.2161 183.8 69.3161 184.3 69.6161C184.9 70.0161 185.3 70.6161 185.3 71.3161C185.3 72.2161 184.8 72.9161 183.8 73.2161C185.2 73.5161 185.6 74.5161 185.6 75.3161C185.7 77.0161 184.6 77.7161 182.4 77.7161ZM183.2 70.5161C183 70.4161 182.8 70.4161 182.4 70.4161H181.3V72.7161H182.5C183 72.7161 183.3 72.7161 183.5 72.4161C183.8 72.1161 183.8 71.8161 183.8 71.6161C183.9 71.0161 183.6 70.6161 183.2 70.5161ZM183.4 73.9161C183.2 73.8161 183 73.8161 182.6 73.8161H181.4V76.5161H182.7C183.8 76.5161 184.2 75.9161 184.2 75.1161C184.2 74.6161 183.9 74.1161 183.4 73.9161Z" fill="#0088D2"/>
<path d="M191.6 77.7161L190.9 76.4161C190.3 75.4161 189.9 74.8161 189.4 74.3161C189.2 74.1161 189.1 74.1161 188.8 74.0161V77.7161H187.4V69.2161H190C191.9 69.2161 192.8 70.3161 192.8 71.6161C192.8 72.8161 192 73.9161 190.7 73.9161C191 74.1161 191.6 74.9161 192 75.6161L193.2 77.6161H191.6V77.7161ZM189.6 70.4161H188.8V73.1161H189.5C190.2 73.1161 190.6 73.0161 190.9 72.7161C191.1 72.5161 191.3 72.1161 191.3 71.7161C191.3 70.8161 190.9 70.4161 189.6 70.4161Z" fill="#0088D2"/>
<path d="M194.6 77.7161V69.2161H196.1V77.7161H194.6Z" fill="#0088D2"/>
<path d="M201.5 77.8161C200.3 77.8161 199.4 77.4161 198.7 76.6161C198.1 75.8161 197.8 74.8161 197.8 73.5161C197.8 71.8161 198.3 70.5161 199.4 69.7161C200 69.2161 200.7 69.0161 201.5 69.0161C202.5 69.0161 203.3 69.3161 204 69.9161L203.3 70.8161C202.7 70.3161 202.2 70.1161 201.5 70.1161C199.9 70.1161 199.4 71.5161 199.4 73.5161C199.4 74.7161 199.6 75.5161 200 76.0161C200.3 76.4161 201 76.6161 201.6 76.6161C202 76.6161 202.4 76.5161 202.7 76.3161V74.3161H201.3L201.1 73.1161H204.2V77.1161C203.4 77.6161 202.4 77.8161 201.5 77.8161Z" fill="#0088D2"/>
<path d="M210.4 77.7161V73.8161H207.5V77.7161H206.1V69.2161H207.5V72.6161H210.4V69.2161H211.8V77.7161H210.4Z" fill="#0088D2"/>
<path d="M218.8 70.4161H216.7V77.7161H215.3V70.4161H213.2V69.2161H219.1L218.8 70.4161Z" fill="#0088D2"/>
<path d="M219.9 77.7161V69.2161H224.6L224.4 70.4161H221.3V72.7161H223.9V73.9161H221.3V76.5161H224.7V77.7161H219.9Z" fill="#0088D2"/>
<path d="M230.2 77.7161L229.5 76.4161C228.9 75.4161 228.5 74.8161 228.1 74.3161C227.9 74.1161 227.8 74.1161 227.6 74.0161V77.7161H226.2V69.2161H228.8C230.7 69.2161 231.6 70.3161 231.6 71.6161C231.6 72.8161 230.8 73.9161 229.5 73.9161C229.8 74.1161 230.4 74.9161 230.8 75.6161L232 77.6161H230.2V77.7161ZM228.3 70.4161H227.5V73.1161H228.2C228.9 73.1161 229.3 73.0161 229.6 72.7161C229.8 72.5161 230 72.1161 230 71.7161C230 70.8161 229.5 70.4161 228.3 70.4161Z" fill="#0088D2"/>
<path d="M240.4 77.7161H236.1V69.2161H237.5V76.5161H240.6L240.4 77.7161Z" fill="#0088D2"/>
<path d="M241.8 77.7161V69.2161H243.2V77.7161H241.8Z" fill="#0088D2"/>
<path d="M248.4 77.7161H247.1L244.2 69.2161H245.7L247.2 74.0161C247.4 74.7161 247.6 75.3161 247.6 75.7161C247.7 75.3161 247.8 74.8161 248.1 73.9161L249.7 69.2161H251.2L248.4 77.7161Z" fill="#0088D2"/>
<path d="M252.3 77.7161V69.2161H253.7V77.7161H252.3Z" fill="#0088D2"/>
<path d="M260.1 77.7161L258.2 73.7161C257.7 72.8161 257.3 71.7161 257.1 71.2161C257.2 71.9161 257.2 72.7161 257.2 73.6161V77.7161H255.8V69.2161H257.4L259.5 73.3161C259.9 74.1161 260.3 75.1161 260.4 75.5161C260.4 75.1161 260.3 73.9161 260.3 73.1161V69.2161H261.6V77.7161H260.1V77.7161Z" fill="#0088D2"/>
<path d="M267.1 77.8161C265.9 77.8161 265 77.4161 264.3 76.6161C263.6 75.8161 263.4 74.8161 263.4 73.5161C263.4 71.8161 263.9 70.5161 265 69.7161C265.6 69.2161 266.3 69.0161 267.1 69.0161C268.1 69.0161 268.9 69.3161 269.6 69.9161L268.9 70.8161C268.3 70.3161 267.8 70.1161 267.1 70.1161C265.5 70.1161 265 71.5161 265 73.5161C265 74.7161 265.2 75.5161 265.6 76.0161C265.9 76.4161 266.6 76.6161 267.2 76.6161C267.6 76.6161 268 76.5161 268.3 76.3161V74.3161H266.9L266.7 73.1161H269.8V77.1161C268.9 77.6161 268 77.8161 267.1 77.8161Z" fill="#0088D2"/>
<path d="M272.4 77.9161C271.9 77.9161 271.4 77.4161 271.4 76.9161C271.4 76.4161 271.8 75.9161 272.3 75.9161C272.8 75.9161 273.3 76.3161 273.3 76.9161C273.3 77.4161 272.9 77.9161 272.4 77.9161Z" fill="#0088D2"/>
<path d="M70.1 2.51611C60 5.51611 55.2 10.2161 56.7 23.3161C57.9 31.9161 57.2 39.1161 55.9 44.0161C55.6 45.1161 55.4 45.9161 55.1 46.6161C55 46.9161 54.9 47.2161 54.8 47.5161C54 49.1161 52.3 52.4161 51.5 53.6161C50.9 54.5161 49.4 56.1161 47.6 56.1161C45.8 56.1161 42 55.9161 41 55.9161C40 55.9161 38.3 56.0161 38.3 56.0161C40.9 58.8161 45.4 61.3161 51.5 61.4161C56 61.4161 61.2 60.2161 66.1 56.6161C83.8 44.0161 79.4 11.4161 70.1 2.51611Z" fill="url(#paint0_linear_101_2)"/>
<path d="M33.1 34.0161C20.6 37.9161 14.1 53.3161 19.6 68.8161C20 70.0161 20.6 71.3161 21.2 72.5161C28.9 88.4161 44.3 84.7161 44.3 84.7161C44.3 84.7161 49.9 74.2161 39.6 66.0161C32.4 60.3161 28.7 54.6161 32.2 45.7161C32.4 45.2161 32.6 44.7161 32.8 44.2161C32.8 44.1161 32.9 44.0161 32.9 43.9161C34.1 41.3161 35.9 38.7161 37 37.1161C37.7 36.0161 38.6 35.5161 40.6 35.3161C42.4 35.1161 46.7 35.2161 47.9 35.3161C49.6 35.4161 50.3 35.7161 51.2 37.0161C51.2 37.0161 51.2 37.1161 51.3 37.1161C48.7 32.7161 40.7 31.6161 33.1 34.0161Z" fill="url(#paint1_linear_101_2)"/>
<path d="M41.6 56.2161C40.3 56.0161 39.2 56.0161 38.5 55.8161C37.9 55.6161 37.4 55.2161 36.9 54.5161C35.8 52.9161 33.7 49.3161 33 47.8161C32.2 46.2161 32.3 45.4161 32.9 44.2161C34.1 41.6161 35.9 39.0161 37 37.4161L37.1 37.3161C36.6 37.7161 32.3 41.4161 29.5 45.3161C24.3 52.5161 25.7 62.3161 31.7 68.5161C36 73.0161 41.1 73.9161 45 73.8161C52.1 73.6161 58.6 68.0161 58.6 68.0161C56.1 61.0161 49.5 57.2161 41.6 56.2161Z" fill="url(#paint2_linear_101_2)"/>
<path d="M44.9 73.6161C45 73.6161 45 73.6161 45.1 73.6161C44.3 71.1161 42.6 68.5161 39.6 66.1161C32.4 60.4161 28.7 54.7161 32.2 45.8161C32.4 45.3161 32.6 44.8161 32.8 44.4161C32.8 44.3161 32.9 44.2161 32.9 44.1161C34.1 41.5161 35.9 38.9161 37 37.3161L37.1 37.2161C36.6 37.6161 32.3 41.3161 29.5 45.2161C24.3 52.4161 25.7 62.2161 31.7 68.4161C35.9 72.8161 41 73.7161 44.9 73.6161Z" fill="url(#paint3_linear_101_2)"/>
<path d="M63.2 22.5161C59.7 12.7161 51.5 4.51608 40.9 1.61608C23.1 -3.18392 8 3.21608 0 14.1161C0 14.1161 6.00001 23.6161 21.2 22.8161C31.1 22.3161 41.4 23.3161 48.7 33.5161C49.5 34.6161 50.2 35.7161 50.9 36.7161C51 36.8161 51.1 36.9161 51.1 37.0161C51.9 38.2161 53.1 40.0161 54.9 43.4161C55.5 44.5161 55.5 46.0161 54.8 47.5161C54 49.1161 52.3 52.4161 51.5 53.6161C50.9 54.5161 49.6 55.9161 47.9 56.0161C53.9 55.7161 58.7 51.9161 61.9 46.2161C65.7 39.7161 66 30.5161 63.2 22.5161Z" fill="url(#paint4_linear_101_2)"/>
<path d="M56.3 26.5161C52.9 20.3161 45 13.0161 31.4 13.0161C12.2 13.0161 2 27.4161 2 41.4161C2 52.5161 8.00001 63.5161 19.6 68.8161C15.4 51.8161 22.9 36.6161 40.3 35.5161C40.4 35.5161 40.4 35.5161 40.5 35.5161C42.3 35.3161 46.6 35.4161 47.8 35.5161C49.5 35.6161 50.2 35.9161 51.1 37.2161C51.9 38.4161 53.1 40.2161 54.9 43.6161C55.5 44.7161 55.5 46.2161 54.8 47.7161C54.1 49.1161 52.8 51.8161 51.9 53.3161C52.1 53.1161 56.1 48.3161 57.4 45.3161C60.3 37.8161 58.1 29.7161 56.3 26.5161Z" fill="url(#paint5_linear_101_2)"/>
<path d="M47.9 56.2161C53.9 55.9161 58.7 52.1161 61.9 46.4161C65.7 39.7161 66 30.5161 63.1 22.5161C61.8 18.9161 59.8 15.4161 57.3 12.4161C56.3 15.2161 56.1 18.7161 56.6 23.3161C57.8 31.9161 57.1 39.1161 55.8 44.0161C55.5 45.1161 55.3 45.9161 55 46.6161C54.9 46.9161 54.8 47.2161 54.7 47.5161C53.9 49.1161 52.2 52.4161 51.4 53.6161C51 54.6161 49.6 56.0161 47.9 56.2161Z" fill="url(#paint6_linear_101_2)"/>
<path d="M57.3 45.1161C60.2 37.8161 58.1 29.7161 56.3 26.5161C52.9 20.3161 45 13.0161 31.4 13.0161C22.1 13.0161 15 16.4161 10 21.4161C13 22.4161 16.6 23.1161 21.1 22.8161C31 22.3161 41.3 23.3161 48.6 33.5161C49.4 34.6161 50.1 35.7161 50.8 36.7161C50.8 36.7161 50.9 36.8161 50.9 36.9161C50.9 37.0161 51 37.0161 51 37.1161C51.8 38.3161 53 40.1161 54.8 43.5161C55.4 44.6161 55.4 46.1161 54.7 47.6161C54 49.0161 52.7 51.7161 51.8 53.2161C52 52.9161 56.1 48.2161 57.3 45.1161Z" fill="url(#paint7_linear_101_2)"/>
<path d="M68.5 59.4161C66.1 57.8161 64.6 54.2161 64.8 50.8161C64.9 47.1161 62.7 47.7161 62.7 47.7161C62.7 47.7161 58.1 56.1161 47.7 56.2161C45.8 56.2161 42.5 56.1161 41.1 56.1161C34.4 56.2161 27.9 57.5161 22.6 64.2161C22.6 64.2161 28.2 63.9161 39.2 67.3161C59.5 73.4161 69.6 61.6161 68.5 59.4161Z" fill="url(#paint8_linear_101_2)"/>
<path d="M62.7 47.7161C62.7 47.7161 58.2 56.0161 47.8 56.2161C47.7 56.2161 47.7 56.2161 47.6 56.2161C47.1 56.2161 46.4 56.2161 45.6 56.2161C43.9 56.2161 42 56.1161 41 56.1161C40.6 56.1161 40.3 56.1161 39.9 56.1161C39.3 56.1161 38.7 56.2161 38.4 56.2161C38.3 56.2161 38.3 56.2161 38.2 56.2161C40.8 59.0161 45.3 61.5161 51.4 61.6161C55.9 61.6161 61.1 60.4161 66 56.8161L66.1 56.7161C65.2 55.0161 64.7 52.9161 64.8 50.9161C64.9 47.1161 62.7 47.7161 62.7 47.7161Z" fill="url(#paint9_linear_101_2)"/>
<path d="M33.1 34.0161C20.6 37.9161 14.1 53.3161 19.6 68.8161C15.4 51.8161 22.9 36.6161 40.3 35.5161C40.4 35.5161 40.4 35.5161 40.5 35.5161C42.3 35.3161 46.6 35.4161 47.8 35.5161C49.5 35.6161 50.2 35.9161 51.1 37.2161C51.1 37.2161 51.1 37.3161 51.2 37.3161C48.7 32.7161 40.7 31.6161 33.1 34.0161Z" fill="#003584"/>
<path d="M58.5 67.8161C56.2 61.0161 49.6 57.2161 41.7 56.2161C41.2 56.1161 40.7 56.1161 40.3 56.0161C33.9 56.2161 27.7 57.6161 22.6 64.1161C22.6 64.1161 28.2 63.8161 39.2 67.2161C47.2 69.6161 53.7 69.3161 58.5 67.8161Z" fill="url(#paint10_linear_101_2)"/>
<path d="M57.2 28.4161C57.6 34.7161 56.9 40.1161 55.9 44.0161C55.6 45.1161 55.4 45.9161 55.1 46.6161C55.1 46.7161 55 46.9161 55 47.0161V47.1161C55 47.2161 54.9 47.3161 54.9 47.4161C54.9 47.4161 54.9 47.4161 54.9 47.5161C54.2 48.9161 52.9 51.6161 52 53.1161C52.2 52.8161 56.2 48.1161 57.5 45.1161C59.8 39.0161 58.7 32.4161 57.2 28.4161Z" fill="#002F79"/>
<path d="M41.5 67.8161C40.9 67.2161 40.1 66.6161 39.4 66.0161C35.9 63.2161 33.3 60.4161 31.9 57.3161C28.5 58.4161 25.2 60.5161 22.3 64.1161C22.3 64.1161 27.9 63.8161 38.9 67.2161C39.8 67.4161 40.7 67.6161 41.5 67.8161Z" fill="#50207F"/>
<path d="M40.2 56.0161C40.1 56.0161 40 56.0161 39.9 56.0161C39.4 56.0161 38.9 56.0161 38.4 56.1161C38.3 56.1161 38.3 56.1161 38.2 56.1161C40.8 58.9161 45.3 61.4161 51.4 61.5161C52.3 61.5161 53.2 61.5161 54.1 61.4161C50.9 58.6161 46.5 56.9161 41.6 56.2161C41.1 56.1161 40.6 56.1161 40.2 56.0161Z" fill="#6B1E84"/>
<defs>
<linearGradient id="paint0_linear_101_2" x1="78.1253" y1="6.91471" x2="47.917" y2="62.2967" gradientUnits="userSpaceOnUse">
<stop stop-color="#F9BB00"/>
<stop offset="0.12" stop-color="#F6AB00"/>
<stop offset="0.8418" stop-color="#BE297B"/>
</linearGradient>
<linearGradient id="paint1_linear_101_2" x1="34.3897" y1="85.0871" x2="34.3897" y2="32.768" gradientUnits="userSpaceOnUse">
<stop stop-color="#94C74C"/>
<stop offset="0.2704" stop-color="#71BB46"/>
<stop offset="1" stop-color="#007D41"/>
</linearGradient>
<linearGradient id="paint2_linear_101_2" x1="54.3641" y1="72.0775" x2="27.7564" y2="46.3828" gradientUnits="userSpaceOnUse">
<stop stop-color="#37B9BD"/>
<stop offset="0.2615" stop-color="#07B3A8"/>
<stop offset="0.8872" stop-color="#00997B"/>
</linearGradient>
<linearGradient id="paint3_linear_101_2" x1="35.6496" y1="37.1223" x2="35.6496" y2="73.611" gradientUnits="userSpaceOnUse">
<stop stop-color="#005628"/>
<stop offset="0.9066" stop-color="#009165"/>
</linearGradient>
<linearGradient id="paint4_linear_101_2" x1="26.5158" y1="-0.672021" x2="42.2441" y2="58.0269" gradientUnits="userSpaceOnUse">
<stop offset="0.00510204" stop-color="#6FC9F3"/>
<stop offset="0.5969" stop-color="#00B9EF"/>
</linearGradient>
<linearGradient id="paint5_linear_101_2" x1="25.8144" y1="13.4766" x2="35.0864" y2="66.0608" gradientUnits="userSpaceOnUse">
<stop offset="0.1582" stop-color="#0093DC"/>
<stop offset="0.6" stop-color="#004098"/>
<stop offset="1" stop-color="#00317E"/>
</linearGradient>
<linearGradient id="paint6_linear_101_2" x1="56.501" y1="50.6785" x2="56.501" y2="21.1574" gradientUnits="userSpaceOnUse">
<stop stop-color="#372676"/>
<stop offset="1" stop-color="#B48D68"/>
</linearGradient>
<linearGradient id="paint7_linear_101_2" x1="14.0228" y1="14.6305" x2="59.7989" y2="41.0594" gradientUnits="userSpaceOnUse">
<stop stop-color="#0083CE"/>
<stop offset="0.1207" stop-color="#007FCB"/>
<stop offset="0.3175" stop-color="#0073C0"/>
<stop offset="0.566" stop-color="#005FAF"/>
<stop offset="0.8536" stop-color="#004298"/>
<stop offset="1" stop-color="#0C308E"/>
</linearGradient>
<linearGradient id="paint8_linear_101_2" x1="53.1098" y1="72.7442" x2="43.1043" y2="55.7173" gradientUnits="userSpaceOnUse">
<stop stop-color="#D677AC"/>
<stop offset="1" stop-color="#9C0383"/>
</linearGradient>
<linearGradient id="paint9_linear_101_2" x1="57.3638" y1="62.6077" x2="51.1202" y2="51.9826" gradientUnits="userSpaceOnUse">
<stop stop-color="#B13382"/>
<stop offset="0.8" stop-color="#9B0F7A"/>
</linearGradient>
<linearGradient id="paint10_linear_101_2" x1="21.1176" y1="62.5179" x2="51.2771" y2="62.5179" gradientUnits="userSpaceOnUse">
<stop stop-color="#4D3582"/>
<stop offset="1" stop-color="#924998"/>
</linearGradient>
</defs>
</svg>
