<svg width="42" height="42" viewBox="0 0 42 42" fill="none" xmlns="http://www.w3.org/2000/svg">
<path d="M40 29.7726V12.2274C40 11.9749 39.9252 11.7269 39.7834 11.509C39.6416 11.2911 39.4378 11.111 39.1929 10.9872L21.7762 2.18274C21.5393 2.06293 21.2719 2 21 2C20.7281 2 20.4607 2.06293 20.2238 2.18274L2.80709 10.9872C2.56222 11.111 2.35842 11.2911 2.21659 11.509C2.07475 11.7269 2 11.9749 2 12.2274V29.7726C2 30.0251 2.07475 30.273 2.21659 30.491C2.35842 30.7089 2.56222 30.889 2.80709 31.0128L20.2238 39.8173C20.4607 39.9371 20.7281 40 21 40C21.2719 40 21.5393 39.9371 21.7762 39.8173L39.1929 31.0128C39.4378 30.889 39.6416 30.7089 39.7834 30.491C39.9252 30.273 40 30.0251 40 29.7726Z" stroke="#FDFCFC" stroke-width="2.5" stroke-linecap="round" stroke-linejoin="round"/>
<path d="M30.7023 25.3597V16.1106L11.5 6.59271" stroke="#FDFCFC" stroke-width="2.5" stroke-linecap="round" stroke-linejoin="round"/>
<path d="M39.7817 11.5067L21.1878 21L2.21927 11.5049" stroke="#FDFCFC" stroke-width="2.5" stroke-linecap="round" stroke-linejoin="round"/>
<path d="M21.1878 21L21.002 40" stroke="#FDFCFC" stroke-width="2.5" stroke-linecap="round" stroke-linejoin="round"/>
</svg>
