<svg width="21" height="20" viewBox="0 0 21 20" fill="none" xmlns="http://www.w3.org/2000/svg">
<path d="M9.99999 2L0.799988 18H19.3L9.99999 2Z" stroke="#FF7224" stroke-width="1.4173" stroke-miterlimit="3" stroke-linecap="round" stroke-linejoin="round"/>
<path fill-rule="evenodd" clip-rule="evenodd" d="M10.7086 8.00028C10.7086 7.6089 10.3914 7.29163 10 7.29163C9.60862 7.29163 9.29135 7.6089 9.29135 8.00028V12.0003C9.29135 12.3917 9.60862 12.7089 10 12.7089C10.3914 12.7089 10.7086 12.3917 10.7086 12.0003V8.00028ZM10.9 14.1001C10.9 14.5971 10.497 15.0001 9.99998 15.0001C9.50292 15.0001 9.09998 14.5971 9.09998 14.1001C9.09998 13.603 9.50292 13.2001 9.99998 13.2001C10.497 13.2001 10.9 13.603 10.9 14.1001Z" fill="#FF7224"/>
</svg>
