<svg width="41" height="42" viewBox="0 0 41 42" fill="none" xmlns="http://www.w3.org/2000/svg">
<path d="M7.50213 30.5617V38.1574L14.917 36.2809L20.5 42L26.083 36.2809L33.4979 38.1574V30.5617L41 28.5957L37.2489 21L41 13.4043L33.4979 11.4383V3.84255L26.083 5.71915L20.5 0L14.917 5.71915L7.50213 3.84255V11.4383L0 13.4043L3.75106 21L0 28.5957L7.50213 30.5617ZM7.06596 19.3021L5.40851 15.817L8.37447 15.1021C9.24681 14.9234 9.93014 14.4915 10.4245 13.8064C10.9188 13.1213 11.166 12.3319 11.166 11.4383V8.75745L13.9574 9.5617H14.917C15.9057 9.5617 16.778 9.17447 17.534 8.4L20.5 5.3617L23.466 8.4C24.222 9.17447 25.0943 9.5617 26.083 9.5617C26.4319 9.5617 26.7518 9.50213 27.0426 9.38298L29.834 8.75745V11.4383C29.834 12.3319 30.0812 13.1213 30.5755 13.8064C31.0699 14.4915 31.7532 14.9234 32.6255 15.1021L35.5915 15.817L33.934 19.3021C33.3525 20.434 33.3525 21.566 33.934 22.6979L35.5915 26.183L32.6255 26.8979C31.7532 27.0766 31.0699 27.5085 30.5755 28.1936C30.0812 28.8787 29.834 29.6681 29.834 30.5617V33.2426L27.0426 32.4383H26.083C25.0943 32.4383 24.222 32.8255 23.466 33.6L20.5 36.6383L17.534 33.6C16.778 32.8255 15.9057 32.4383 14.917 32.4383C14.5681 32.4383 14.2482 32.4979 13.9574 32.617L11.166 33.2426V30.5617C11.166 29.6681 10.9188 28.8787 10.4245 28.1936C9.93014 27.5085 9.24681 27.0766 8.37447 26.8979L5.40851 26.183L7.06596 22.6979C7.64752 21.566 7.64752 20.434 7.06596 19.3021ZM18.6681 27.5234L27.3915 18.4979C28.2057 17.6638 28.2057 16.7702 27.3915 15.817C26.5191 15.0426 25.6468 15.0426 24.7745 15.817L18.6681 22.1617L16.2255 19.6596C15.3532 18.8851 14.4809 18.8851 13.6085 19.6596C12.8525 20.5532 12.8525 21.4468 13.6085 22.3404L18.6681 27.5234Z" fill="#8C93AB"/>
</svg>
