<svg width="20" height="20" viewBox="0 0 20 20" fill="none" xmlns="http://www.w3.org/2000/svg">
<path fill-rule="evenodd" clip-rule="evenodd" d="M6.36571 1.39136C6.75709 1.39136 7.07436 1.70863 7.07436 2.10001V6.32629L7.36458 6.06939C7.65763 5.80997 8.10549 5.83724 8.36491 6.1303C8.62432 6.42335 8.59705 6.87121 8.304 7.13062L6.83775 8.42857C6.71243 8.54057 6.54702 8.60866 6.36571 8.60866C6.18436 8.60866 6.01892 8.54053 5.89359 8.42848L4.42743 7.13062C4.13438 6.87121 4.10711 6.42335 4.36652 6.1303C4.62594 5.83724 5.0738 5.80997 5.36685 6.06939L5.65706 6.32629V2.10001C5.65706 1.70863 5.97434 1.39136 6.36571 1.39136ZM12.2202 6.06939C11.9271 5.80997 11.4793 5.83724 11.2199 6.1303C10.9604 6.42335 10.9877 6.87121 11.2808 7.13062L12.7476 8.42907C12.8728 8.54077 13.038 8.60866 13.2191 8.60866C13.4006 8.60866 13.5663 8.54036 13.6917 8.42805L15.1573 7.13062C15.4504 6.87121 15.4777 6.42335 15.2182 6.1303C14.9588 5.83724 14.511 5.80997 14.2179 6.06939L13.9277 6.32628V2.10001C13.9277 1.70863 13.6104 1.39136 13.2191 1.39136C12.8277 1.39136 12.5104 1.70863 12.5104 2.10001V6.32629L12.2202 6.06939ZM0.0764771 10.4C0.0764771 10.0086 0.39375 9.69135 0.785127 9.69135H18.8975C19.2889 9.69135 19.6062 10.0086 19.6062 10.4V19C19.6062 19.3914 19.2889 19.7086 18.8975 19.7086H0.785127C0.39375 19.7086 0.0764771 19.3914 0.0764771 19V10.4ZM1.49378 11.1086V18.2913H18.1889V11.1086H1.49378ZM5 12.2914C5.39138 12.2914 5.70865 12.6086 5.70865 13V16C5.70865 16.3914 5.39138 16.7087 5 16.7087C4.60862 16.7087 4.29135 16.3914 4.29135 16V13C4.29135 12.6086 4.60862 12.2914 5 12.2914ZM9.99314 12.2914C10.3845 12.2914 10.7018 12.6086 10.7018 13V16C10.7018 16.3914 10.3845 16.7087 9.99314 16.7087C9.60176 16.7087 9.28449 16.3914 9.28449 16V13C9.28449 12.6086 9.60176 12.2914 9.99314 12.2914ZM15.6949 13C15.6949 12.6086 15.3777 12.2914 14.9863 12.2914C14.5949 12.2914 14.2776 12.6086 14.2776 13V16C14.2776 16.3914 14.5949 16.7087 14.9863 16.7087C15.3777 16.7087 15.6949 16.3914 15.6949 16V13Z" fill="white"/>
</svg>
