<svg width="22" height="22" viewBox="0 0 22 22" fill="none" xmlns="http://www.w3.org/2000/svg">
<path fill-rule="evenodd" clip-rule="evenodd" d="M11 2.4086C6.25514 2.4086 2.40866 6.25508 2.40866 11C2.40866 15.7448 6.25514 19.5913 11 19.5913C15.7449 19.5913 19.5914 15.7448 19.5914 11C19.5914 6.25508 15.7449 2.4086 11 2.4086ZM0.991364 11C0.991364 5.47233 5.47239 0.991302 11 0.991302C16.5276 0.991302 21.0087 5.47233 21.0087 11C21.0087 16.5276 16.5276 21.0086 11 21.0086C5.47239 21.0086 0.991364 16.5276 0.991364 11ZM5.89136 10.9999C5.89136 10.6086 6.20863 10.2913 6.60001 10.2913H10.2914V6.59995C10.2914 6.20857 10.6086 5.89129 11 5.89129C11.3914 5.89129 11.7087 6.20857 11.7087 6.59995V10.2913H15.4C15.7914 10.2913 16.1087 10.6086 16.1087 10.9999C16.1087 11.3913 15.7914 11.7086 15.4 11.7086H11.7087V15.3999C11.7087 15.7913 11.3914 16.1086 11 16.1086C10.6086 16.1086 10.2914 15.7913 10.2914 15.3999V11.7086H6.60001C6.20863 11.7086 5.89136 11.3913 5.89136 10.9999Z" fill="white"/>
</svg>
