<svg width="20" height="20" viewBox="0 0 20 20" fill="none" xmlns="http://www.w3.org/2000/svg">
<path fill-rule="evenodd" clip-rule="evenodd" d="M13.6343 18.6086C13.2429 18.6086 12.9256 18.2914 12.9256 17.9L12.9256 13.6737L12.6354 13.9306C12.3424 14.19 11.8945 14.1628 11.6351 13.8697C11.3757 13.5767 11.4029 13.1288 11.696 12.8694L13.1622 11.5714C13.2876 11.4594 13.453 11.3913 13.6343 11.3913C13.8156 11.3913 13.9811 11.4595 14.1064 11.5715L15.5726 12.8694C15.8656 13.1288 15.8929 13.5767 15.6335 13.8697C15.3741 14.1628 14.9262 14.19 14.6331 13.9306L14.3429 13.6737L14.3429 17.9C14.3429 18.2914 14.0257 18.6086 13.6343 18.6086ZM7.77981 13.9306C8.07286 14.19 8.52072 14.1628 8.78014 13.8697C9.03955 13.5767 9.01228 13.1288 8.71923 12.8694L7.25242 11.5709C7.12716 11.4592 6.96198 11.3913 6.78094 11.3913C6.59936 11.3913 6.43372 11.4596 6.30833 11.572L4.84266 12.8694C4.54961 13.1288 4.52234 13.5767 4.78176 13.8697C5.04117 14.1628 5.48903 14.19 5.78209 13.9306L6.07229 13.6737L6.07229 17.9C6.07229 18.2914 6.38957 18.6086 6.78094 18.6086C7.17232 18.6086 7.48959 18.2914 7.48959 17.9L7.48959 13.6737L7.77981 13.9306ZM19.9235 9.60001C19.9235 9.99138 19.6062 10.3087 19.2149 10.3087L1.10248 10.3087C0.711101 10.3087 0.393827 9.99138 0.393827 9.60001L0.393826 1.00001C0.393826 0.608629 0.7111 0.291357 1.10248 0.291357L19.2149 0.291355C19.6062 0.291355 19.9235 0.608627 19.9235 1L19.9235 9.60001ZM18.5062 8.89136L18.5062 1.70866L1.81113 1.70866L1.81113 8.89136L18.5062 8.89136ZM15 7.70865C14.6086 7.70865 14.2913 7.39138 14.2913 7L14.2913 4C14.2913 3.60862 14.6086 3.29135 15 3.29135C15.3914 3.29135 15.7086 3.60862 15.7086 4L15.7086 7C15.7086 7.39138 15.3914 7.70865 15 7.70865ZM10.0069 7.70865C9.61548 7.70865 9.29821 7.39138 9.29821 7L9.29821 4C9.29821 3.60862 9.61548 3.29135 10.0069 3.29135C10.3982 3.29135 10.7155 3.60862 10.7155 4L10.7155 7C10.7155 7.39138 10.3982 7.70865 10.0069 7.70865ZM4.30506 7C4.30506 7.39138 4.62233 7.70865 5.01371 7.70865C5.40508 7.70865 5.72236 7.39138 5.72236 7L5.72236 4C5.72236 3.60862 5.40508 3.29135 5.01371 3.29135C4.62233 3.29135 4.30506 3.60862 4.30506 4L4.30506 7Z" fill="#50FFF8"/>
</svg>
