<svg width="20" height="21" viewBox="0 0 20 21" fill="none" xmlns="http://www.w3.org/2000/svg">
<path fill-rule="evenodd" clip-rule="evenodd" d="M15.3086 0.799959C15.3086 0.408582 14.9914 0.0913086 14.6 0.0913086C14.2086 0.0913086 13.8913 0.408582 13.8913 0.799959V1.59131H6.10865V0.799959C6.10865 0.408582 5.79137 0.0913086 5.4 0.0913086C5.00862 0.0913086 4.69135 0.408582 4.69135 0.799959V1.59131H2.29997C1.5679 1.59131 0.791321 2.1518 0.791321 3.09996V6.89993V18.5C0.791321 19.4481 1.5679 20.0086 2.29997 20.0086H17.7C18.6481 20.0086 19.2086 19.232 19.2086 18.5V6.89993V3.09996C19.2086 2.1518 18.432 1.59131 17.7 1.59131H15.3086V0.799959ZM17.7913 6.19128V3.09996C17.7913 3.07117 17.786 3.05701 17.7836 3.05183C17.781 3.04597 17.7773 3.04056 17.7711 3.03484C17.7555 3.0205 17.7277 3.00861 17.7 3.00861H15.3086V3.79996C15.3086 4.19134 14.9914 4.50861 14.6 4.50861C14.2086 4.50861 13.8913 4.19134 13.8913 3.79996V3.00861H6.10865V3.79996C6.10865 4.19134 5.79137 4.50861 5.4 4.50861C5.00862 4.50861 4.69135 4.19134 4.69135 3.79996V3.00861H2.29997C2.27225 3.00861 2.24447 3.02049 2.22882 3.03484C2.22259 3.04055 2.2189 3.04597 2.21629 3.05183C2.21399 3.05701 2.20862 3.07117 2.20862 3.09996V6.19128H17.7913ZM2.20862 7.60858H17.7913V18.5C17.7913 18.5277 17.7794 18.5555 17.7651 18.5711C17.7594 18.5773 17.754 18.581 17.7481 18.5836C17.7429 18.5859 17.7288 18.5913 17.7 18.5913H2.29997C2.27225 18.5913 2.24447 18.5794 2.22882 18.5651C2.22259 18.5594 2.2189 18.5539 2.21629 18.5481C2.21399 18.5429 2.20862 18.5287 2.20862 18.5V7.60858ZM10.7333 10.6667C11.0279 10.4089 11.4756 10.4388 11.7333 10.7333L13.8333 13.1333C14.0708 13.4048 14.0665 13.8114 13.8233 14.0778L11.7233 16.3778C11.4594 16.6668 11.0112 16.6872 10.7222 16.4233C10.4331 16.1594 10.4128 15.7112 10.6767 15.4222L11.6934 14.3086H6.69998C6.30861 14.3086 5.99133 13.9914 5.99133 13.6C5.99133 13.2086 6.30861 12.8913 6.69998 12.8913H11.7383L10.6667 11.6666C10.4089 11.3721 10.4388 10.9244 10.7333 10.6667Z" fill="white"/>
</svg>
