<svg width="20" height="21" viewBox="0 0 20 21" fill="none" xmlns="http://www.w3.org/2000/svg">
<path fill-rule="evenodd" clip-rule="evenodd" d="M14.5999 0.0913391C14.9913 0.0913391 15.3086 0.408613 15.3086 0.799989V1.59134H17.7C18.432 1.59134 19.2086 2.15183 19.2086 3.09999V6.9V18.5C19.2086 19.2321 18.6481 20.0086 17.7 20.0086H2.29997C1.56789 20.0086 0.791321 19.4481 0.791321 18.5V6.9V3.09999C0.791321 2.15183 1.5679 1.59134 2.29997 1.59134H4.69135V0.799989C4.69135 0.408613 5.00862 0.0913391 5.4 0.0913391C5.79137 0.0913391 6.10865 0.408613 6.10865 0.799989V1.59134H13.8913V0.799989C13.8913 0.408613 14.2086 0.0913391 14.5999 0.0913391ZM17.7913 3.09999V6.19135H2.20862V3.09999C2.20862 3.0712 2.21399 3.05704 2.21629 3.05186C2.2189 3.046 2.22259 3.04058 2.22882 3.03487C2.24447 3.02053 2.27225 3.00864 2.29997 3.00864H4.69135V3.79999C4.69135 4.19137 5.00862 4.50864 5.4 4.50864C5.79137 4.50864 6.10865 4.19137 6.10865 3.79999V3.00864H13.8913V3.79999C13.8913 4.19137 14.2086 4.50864 14.5999 4.50864C14.9913 4.50864 15.3086 4.19137 15.3086 3.79999V3.00864H17.7C17.7277 3.00864 17.7555 3.02053 17.7711 3.03487C17.7773 3.04058 17.781 3.046 17.7836 3.05186C17.786 3.05704 17.7913 3.0712 17.7913 3.09999ZM17.7913 7.60865H2.20862V18.5C2.20862 18.5288 2.21399 18.5429 2.21629 18.5481C2.2189 18.554 2.22259 18.5594 2.22882 18.5651C2.24448 18.5795 2.27225 18.5913 2.29997 18.5913H17.7C17.7288 18.5913 17.7429 18.586 17.7481 18.5837C17.754 18.5811 17.7594 18.5774 17.7651 18.5711C17.7794 18.5555 17.7913 18.5277 17.7913 18.5V7.60865ZM13.9835 11.3181C14.2696 11.051 14.2851 10.6026 14.018 10.3165C13.751 10.0303 13.3026 10.0149 13.0164 10.2819L8.99651 14.0339L6.97977 12.1785C6.69174 11.9135 6.24344 11.9322 5.97845 12.2202C5.71347 12.5082 5.73215 12.9565 6.02017 13.2215L8.52017 15.5215C8.79282 15.7723 9.21266 15.7708 9.4835 15.5181L13.9835 11.3181Z" fill="#50fff8"/>
</svg>
