<svg width="176" height="86" viewBox="0 0 176 86" fill="none" xmlns="http://www.w3.org/2000/svg">
<path d="M28.1257 3.86575L28.1256 3.8658C25.4824 4.93682 23.7501 5.76402 22.6888 6.46255C21.5783 7.1935 21.5 7.58892 21.5 7.711C21.5 8.18461 21.4291 8.71688 21.1148 9.19996C20.7947 9.69194 20.3137 9.99437 19.7729 10.195C18.7637 10.5695 17.1599 10.7198 14.8021 10.8426C14.8021 10.8426 14.802 10.8426 14.802 10.8426L9.98738 11.0938L9.72891 30.4073L9.72891 30.4074L9.47242 49.644H21.979H34.5V38.21V25.777V24.8857L35.3855 24.7836L38.1355 24.4666L38.136 24.4665C39.0382 24.363 39.5211 24.1591 39.7962 23.9291C40.042 23.7236 40.2381 23.3995 40.33 22.7533C40.3717 22.4584 40.3941 22.2814 40.3954 22.1448C40.3956 22.1277 40.3954 22.1131 40.3949 22.1008C40.3178 22.062 40.1269 21.9866 39.7089 21.9156C38.9594 21.7883 37.7647 21.7168 35.8612 21.6807C33.9732 21.6448 31.4489 21.644 28.07 21.644H14.5H13.5V20.644V18.173V15.702V14.7228L14.4789 14.7022L27.7289 14.4232L40 14.1648V12.644C40 11.6987 39.8488 11.4098 39.7274 11.2833C39.5839 11.1338 39.2345 10.9466 38.1854 10.8254L28.1257 3.86575ZM28.1257 3.86575L34.0893 1.44823L34.302 4.82389L34.302 4.82402M28.1257 3.86575L34.302 4.82402M34.302 4.82402C34.3704 5.90785 34.4405 6.79062 34.5501 7.49717M34.302 4.82402L34.5501 7.49717M34.5501 7.49717C34.6582 8.19434 34.8176 8.81645 35.1192 9.32629M34.5501 7.49717L35.1192 9.32629M35.1192 9.32629C35.805 10.4855 36.9892 10.6874 38.1853 10.8254L35.1192 9.32629ZM137 61.634L137.27 61.634L137.502 61.4986L146.002 56.5586L154.272 51.7526L164.723 51.699L173.58 51.6535L166.252 62.8421L167.089 63.39L166.252 62.8422L157.905 75.5882L157.512 76.1894L157.956 76.7542L159.835 79.143C159.835 79.1431 159.835 79.1432 159.835 79.1432C160.279 79.7084 160.705 80.4822 161.018 81.2745C161.337 82.0807 161.5 82.8069 161.5 83.279V84.6435L88.7505 84.604L15.5268 84.5653L8.32457 74.0682L7.5 74.634L8.32455 74.0682C5.28003 69.6313 3.44083 66.7702 2.35977 64.6498C1.29548 62.5623 1 61.2575 1 59.924V57.1319L22.0701 56.8749L43.6885 56.6123L45.7541 58.8096L45.7544 58.8099L48.1201 61.3286L48.4164 61.6441L48.8491 61.644L92.9241 61.639L137 61.634Z" stroke="white" stroke-width="2"/>
</svg>
