<svg width="20" height="20" viewBox="0 0 20 20" fill="none" xmlns="http://www.w3.org/2000/svg">
<path fill-rule="evenodd" clip-rule="evenodd" d="M1.44812 2.53243C1.44812 2.50629 1.45941 2.48019 1.47252 2.46588C1.4776 2.46033 1.48221 2.45724 1.48709 2.45507C1.49128 2.45321 1.50428 2.44809 1.53178 2.44809H18.3683C18.3939 2.44809 18.4196 2.45919 18.4339 2.47226C18.4394 2.47733 18.4426 2.482 18.4448 2.48704C18.4467 2.49141 18.4519 2.50465 18.4519 2.53243V14.7247C18.4519 14.7508 18.4406 14.7769 18.4275 14.7912C18.4224 14.7968 18.4178 14.7999 18.4129 14.802C18.4088 14.8039 18.3957 14.809 18.3683 14.809H5.59234C5.48224 14.809 5.37366 14.8347 5.2752 14.8839C5.22392 14.9096 5.18999 14.9214 5.12047 14.9446L5.11629 14.946L5.11628 14.946C5.0374 14.9723 4.92423 15.01 4.78001 15.0822C4.73045 15.107 4.68398 15.1375 4.64153 15.1732L1.57135 17.7504L1.55855 17.7614C1.54547 17.7585 1.52821 17.7529 1.50847 17.7431C1.48876 17.7332 1.47019 17.7208 1.45398 17.7071L1.45281 17.7044C1.45043 17.6989 1.44893 17.6941 1.44812 17.691V2.53243ZM1.53178 1.03079C0.587876 1.03079 0.0308228 1.80447 0.0308228 2.53243V17.6984C0.0308228 18.0967 0.213305 18.4718 0.43624 18.6949C0.689907 18.9488 1.03111 19.1243 1.39429 19.1698C1.7574 19.2152 2.17473 19.13 2.50205 18.8196L5.47889 16.3207C5.50409 16.3108 5.53132 16.3016 5.56902 16.289L5.5732 16.2876L5.57322 16.2876L5.57325 16.2876C5.61872 16.2724 5.67557 16.2535 5.74318 16.2263H18.3683C19.3122 16.2263 19.8692 15.4526 19.8692 14.7247V2.53243C19.8692 1.58921 19.0971 1.03079 18.3683 1.03079H1.53178ZM11.1378 8.67812C11.1378 9.33506 10.6057 9.86761 9.94937 9.86761C9.293 9.86761 8.76091 9.33506 8.76091 8.67812C8.76091 8.02119 9.293 7.48863 9.94937 7.48863C10.6057 7.48863 11.1378 8.02119 11.1378 8.67812ZM5.3936 9.86761C6.04997 9.86761 6.58206 9.33506 6.58206 8.67812C6.58206 8.02119 6.04997 7.48863 5.3936 7.48863C4.73724 7.48863 4.20515 8.02119 4.20515 8.67812C4.20515 9.33506 4.73724 9.86761 5.3936 9.86761ZM15.6936 8.67812C15.6936 9.33506 15.1615 9.86761 14.5052 9.86761C13.8488 9.86761 13.3167 9.33506 13.3167 8.67812C13.3167 8.02119 13.8488 7.48863 14.5052 7.48863C15.1615 7.48863 15.6936 8.02119 15.6936 8.67812Z" fill="white"/>
</svg>
