<svg width="40" height="40" viewBox="0 0 40 40" fill="none" xmlns="http://www.w3.org/2000/svg">
<path d="M23.2474 35.8356V25.2209C27.2671 24.1316 30.9416 20.5917 30.5183 15.5956L29.0437 0.66474C29.0066 0.287543 28.6892 0 28.3101 0H21.2388L19.3926 3.93993L22.6305 5.29993C22.9205 5.42158 23.1522 5.65973 23.2662 5.95317C23.38 6.24646 23.3698 6.57854 23.2382 6.86416L20.6233 12.5295C20.4331 12.9413 20.0172 13.2074 19.5637 13.2074H19.5632C19.3941 13.2074 19.23 13.1712 19.0754 13.0999C18.4915 12.8305 18.2355 12.1359 18.5051 11.5518L20.6137 6.98316L17.3695 5.6205C17.0781 5.49826 16.846 5.25894 16.7325 4.96402C16.6189 4.66925 16.6309 4.336 16.7649 4.04993L18.6624 0H11.6968C11.3177 0 11.0003 0.287543 10.963 0.664887L9.48772 15.6041C9.26432 18.1703 9.9907 20.461 11.5885 22.2281C12.8559 23.63 14.6757 24.6809 16.7593 25.224V35.8356C13.0705 36.3873 10.459 38.6043 10.3434 38.704C10.1098 38.9051 10.0261 39.2303 10.1333 39.5193C10.2406 39.8082 10.5162 40 10.8246 40H29.1822C29.4904 40 29.7661 39.8083 29.8735 39.5193C29.9807 39.2303 29.8969 38.9051 29.6633 38.704C29.5477 38.6043 26.9362 36.3874 23.2474 35.8356Z" fill="#50FFF8"/>
<circle cx="27" cy="31" r="2" fill="#50FFF8"/>
<circle cx="37" cy="31" r="2" fill="#50FFF8"/>
<circle cx="32" cy="31" r="2" fill="#50FFF8"/>
</svg>
