<?xml version="1.0" encoding="utf-8"?>
<!-- Generator: Adobe Illustrator 25.4.1, SVG Export Plug-In . SVG Version: 6.00 Build 0)  -->
<svg version="1.1" id="gradient" xmlns="http://www.w3.org/2000/svg" xmlns:xlink="http://www.w3.org/1999/xlink" x="0px" y="0px"
	 viewBox="0 0 512 512" enable-background="new 0 0 512 512" xml:space="preserve">
<linearGradient id="SVGID_1_" gradientUnits="userSpaceOnUse" x1="56.5155" y1="467.8291" x2="455.4845" y2="68.8601">
	<stop  offset="0" style="stop-color:#5EBCE5"/>
	<stop  offset="0.5052" style="stop-color:#B678E6"/>
	<stop  offset="1" style="stop-color:#E25B61"/>
</linearGradient>
<path fill="url(#SVGID_1_)" d="M40.972,375.029C45.504,379.562,48,385.589,48,392L48.001,392c0,4.418,3.582,8,8,8s8-3.582,8-8
	c0-0.058,0-0.114,0-0.172C64.094,378.673,74.823,368,88,368c4.418,0,8-3.582,8-8s-3.582-8-8-8c-6.41,0-12.438-2.497-16.971-7.029
	c-4.532-4.533-7.028-10.56-7.028-16.97L64,328c0-4.418-3.582-8-8-8s-8,3.582-8,8c0,0.058,0,0.114,0,0.172
	C47.907,341.327,37.178,352,24.001,352c-4.418,0-8,3.582-8,8s3.582,8,8,8C30.412,368,36.438,370.497,40.972,375.029z
	 M52.285,356.284c1.354-1.354,2.599-2.787,3.729-4.29c2.274,3.024,4.967,5.717,7.991,7.991c-1.503,1.131-2.937,2.376-4.29,3.73
	c-1.354,1.353-2.599,2.787-3.729,4.29c-2.274-3.024-4.967-5.717-7.991-7.992C49.498,358.883,50.932,357.638,52.285,356.284z
	 M143.999,448c-6.41,0-12.438-2.497-16.97-7.029c-4.533-4.533-7.029-10.56-7.028-16.97h-0.002c0-0.001,0-0.001,0-0.002
	c-0.001-4.418-3.582-8-8-7.999c-4.419,0-8,3.582-8,8c0,0.081,0,0.163,0.001,0.243C103.869,437.366,93.154,448,80.001,448
	c-4.418,0-8,3.582-8,8s3.582,8,8,8c6.41,0,12.438,2.497,16.97,7.029c4.533,4.533,7.029,10.56,7.028,16.97h0.002
	c0,0.001,0,0.001,0,0.002c0.001,4.418,3.582,8,8,7.999c4.419,0,8-3.582,8-8c0-0.081,0-0.163-0.001-0.243
	C120.131,474.634,130.846,464,143.999,464c4.418,0,8-3.582,8-8S148.417,448,143.999,448z M115.715,459.716
	c-1.354,1.354-2.598,2.787-3.729,4.29c-2.274-3.024-4.967-5.717-7.991-7.991c1.503-1.131,2.937-2.376,4.29-3.73
	c1.354-1.354,2.598-2.787,3.729-4.29c2.274,3.024,4.967,5.717,7.991,7.991C118.502,457.117,117.068,458.362,115.715,459.716z
	 M487.999,352c-6.411,0-12.438-2.497-16.971-7.029C466.496,340.438,464,334.411,464,328L463.999,328c0-4.418-3.582-8-8-8
	s-8,3.582-8,8c0,0.058,0,0.114,0,0.172C447.906,341.327,437.177,352,424,352c-4.418,0-8,3.582-8,8s3.582,8,8,8
	c6.41,0,12.438,2.497,16.971,7.029c4.532,4.533,7.028,10.56,7.028,16.97L448,392c0,4.418,3.582,8,8,8s8-3.582,8-8
	c0-0.058,0-0.114,0-0.172C464.093,378.673,474.822,368,487.999,368c4.418,0,8-3.582,8-8S492.417,352,487.999,352z M459.715,363.716
	c-1.354,1.354-2.599,2.787-3.729,4.29c-2.274-3.024-4.967-5.717-7.991-7.991c1.503-1.131,2.937-2.376,4.29-3.73
	c1.354-1.353,2.599-2.787,3.729-4.29c2.274,3.024,4.967,5.717,7.991,7.992C462.502,361.117,461.068,362.362,459.715,363.716z
	 M431.999,448c-6.41,0-12.438-2.497-16.97-7.029c-4.533-4.533-7.029-10.56-7.028-16.97h-0.002c0-0.001,0-0.001,0-0.002
	c-0.001-4.418-3.582-8-8-7.999c-4.419,0-8,3.582-8,8c0,0.081,0,0.163,0.001,0.243C391.869,437.366,381.154,448,368.001,448
	c-4.418,0-8,3.582-8,8s3.582,8,8,8c6.41,0,12.438,2.497,16.97,7.029c4.533,4.533,7.029,10.56,7.028,16.97h0.002
	c0,0.001,0,0.001,0,0.002c0.001,4.418,3.582,8,8,7.999c4.419,0,8-3.582,8-8c0-0.081,0-0.163-0.001-0.243
	C408.131,474.634,418.846,464,431.999,464c4.418,0,8-3.582,8-8S436.417,448,431.999,448z M403.715,459.716
	c-1.354,1.354-2.598,2.787-3.729,4.29c-2.274-3.024-4.967-5.717-7.991-7.991c1.503-1.131,2.937-2.376,4.29-3.73
	c1.354-1.354,2.598-2.787,3.729-4.29c2.274,3.024,4.967,5.717,7.991,7.991C406.502,457.117,405.068,458.362,403.715,459.716z
	 M369.425,399.977c3.067,0,5.994-1.774,7.317-4.758l87.586-197.445l14.625,6.488c1.041,0.461,2.145,0.687,3.243,0.687
	c1.825,0,3.632-0.625,5.091-1.828c2.338-1.928,3.386-5.011,2.707-7.964L463.107,78.208c-0.564-2.454-2.251-4.499-4.553-5.521
	c-2.301-1.02-4.948-0.898-7.148,0.33l-104.742,58.558c-2.645,1.479-4.227,4.325-4.087,7.352c0.14,3.027,1.978,5.715,4.747,6.944
	l14.625,6.488l-87.586,197.445c-0.86,1.94-0.915,4.142-0.152,6.121c0.764,1.98,2.281,3.576,4.221,4.436l21.94,9.732l-29.192,65.809
	c-2.604,5.859-2.768,12.381-0.463,18.362c2.25,5.839,6.59,10.481,12.248,13.117c0.138,0.071,0.278,0.139,0.421,0.202
	c3.11,1.38,6.408,2.072,9.714,2.072c2.918,0,5.842-0.54,8.648-1.622c5.981-2.308,10.707-6.803,13.305-12.66l29.195-65.817
	l21.938,9.731C367.24,399.756,368.342,399.977,369.425,399.977z M449.904,92.188l20.912,90.96l-102.379-45.415L449.904,92.188z
	 M402.9,170.525l-31.191-0.709l4.866-10.969L402.9,170.525z M364.68,185.66l76.248,1.733l8.775,3.893l-4.325,9.75l-86.645-1.969
	L364.68,185.66z M351.705,214.911l86.645,1.969l-5.948,13.407l-86.644-1.969L351.705,214.911z M338.729,244.163l86.645,1.969
	l-5.947,13.406l-86.646-1.969L338.729,244.163z M325.754,273.414l86.644,1.969l-5.947,13.407l-86.644-1.969L325.754,273.414z
	 M312.777,302.665l86.645,1.969l-5.947,13.407l-86.645-1.969L312.777,302.665z M293.854,345.323l5.947-13.407l86.645,1.969
	l-5.947,13.407L293.854,345.323z M300.428,448.886c-0.865,1.951-2.441,3.449-4.438,4.219c-1.909,0.736-3.982,0.72-5.864-0.041
	c-0.084-0.041-0.17-0.081-0.256-0.119c-1.955-0.866-3.455-2.441-4.224-4.435c-0.767-1.991-0.712-4.162,0.156-6.117l29.194-65.813
	l14.626,6.488L300.428,448.886z M343.426,371.688c0,0-0.001-0.001-0.002-0.001s-0.001,0-0.002-0.001l-21.938-9.731l51.987,1.182
	l-8.11,18.282L343.426,371.688z M211.628,370.093l21.94-9.732c1.939-0.86,3.457-2.456,4.221-4.436
	c0.763-1.979,0.708-4.181-0.152-6.121l-87.586-197.445l14.625-6.488c2.77-1.229,4.607-3.917,4.747-6.944
	c0.14-3.027-1.442-5.873-4.087-7.352L60.594,73.017c-2.201-1.23-4.849-1.351-7.148-0.33c-2.302,1.021-3.988,3.066-4.553,5.521
	L22.005,195.156c-0.679,2.953,0.369,6.036,2.707,7.964c1.46,1.204,3.266,1.828,5.091,1.828c1.098,0,2.203-0.226,3.243-0.687
	l14.625-6.488l87.586,197.445c1.323,2.984,4.25,4.758,7.317,4.758c1.083,0,2.185-0.222,3.239-0.689l21.937-9.731l29.196,65.817
	c2.598,5.856,7.323,10.352,13.305,12.659c2.807,1.082,5.73,1.622,8.648,1.622c3.306,0,6.604-0.692,9.714-2.072
	c0.143-0.063,0.282-0.13,0.42-0.201c5.658-2.636,9.998-7.278,12.249-13.118c2.305-5.981,2.141-12.503-0.461-18.358L211.628,370.093z
	 M41.184,183.148l20.912-90.96l81.467,45.545L41.184,183.148z M140.291,169.816l-31.191,0.709l26.325-11.678L140.291,169.816z
	 M62.297,191.286l8.776-3.893l76.248-1.733l5.947,13.406l-86.645,1.969L62.297,191.286z M73.65,216.88l86.645-1.969l5.947,13.407
	l-86.644,1.969L73.65,216.88z M86.626,246.132l86.645-1.969l5.947,13.406l-86.645,1.969L86.626,246.132z M99.603,275.383
	l86.644-1.969l5.947,13.407l-86.644,1.969L99.603,275.383z M112.577,304.634l86.645-1.969l5.947,13.407l-86.645,1.969
	L112.577,304.634z M131.501,347.292l-5.947-13.407l86.645-1.969l5.947,13.407L131.501,347.292z M168.576,371.687
	c-0.001,0-0.001,0.001-0.002,0.001l-21.936,9.73l-8.11-18.282l51.987-1.182l-21.938,9.731
	C168.578,371.687,168.577,371.687,168.576,371.687z M226.354,448.511c-0.769,1.994-2.269,3.568-4.224,4.435
	c-0.086,0.038-0.171,0.078-0.255,0.119c-1.886,0.761-3.957,0.776-5.865,0.041c-1.996-0.77-3.572-2.268-4.438-4.218l-29.196-65.817
	l14.627-6.488l29.196,65.817C227.065,444.349,227.12,446.52,226.354,448.511z M246.331,280.547
	c-4.291-38.629-14.823-76.066-31.302-111.27c-12.828-27.404-29.016-52.9-48.248-76.082c1.547-1.805,2.247-4.224,1.813-6.622
	l-3.938-21.724l16.768-15.468c2.276-2.099,3.136-5.323,2.209-8.277c-0.928-2.954-3.476-5.107-6.543-5.529l-23.547-3.238
	l-10.449-20.038C141.715,9.658,138.981,8,136,8s-5.715,1.658-7.094,4.301l-10.449,20.038L94.91,35.576
	c-3.067,0.421-5.615,2.575-6.543,5.529c-0.927,2.954-0.067,6.178,2.209,8.277l16.768,15.468l-3.938,21.724
	c-0.539,2.978,0.647,6.005,3.067,7.823c2.419,1.817,5.658,2.113,8.368,0.766L136,84.637l3.213,1.598
	c25.186,26.492,45.82,56.702,61.325,89.826c15.736,33.616,25.793,69.365,29.891,106.254l1.62,14.57
	c0.455,4.091,3.919,7.116,7.941,7.116c0.295,0,0.594-0.016,0.894-0.049c4.392-0.488,7.556-4.444,7.067-8.835L246.331,280.547z
	 M150.576,56.07c-2.013,1.856-2.937,4.613-2.448,7.307l1.878,10.356l-10.442-5.195c-1.122-0.558-2.343-0.837-3.563-0.837
	s-2.441,0.279-3.563,0.837l-10.442,5.195l1.878-10.356c0.488-2.694-0.436-5.451-2.448-7.307l-7.537-6.953l10.843-1.491
	c2.567-0.353,4.805-1.928,6.004-4.226l5.267-10.1l5.267,10.1c1.199,2.298,3.437,3.873,6.004,4.226l10.843,1.491L150.576,56.07z
	 M272.01,304c4.022,0,7.486-3.025,7.941-7.116l1.62-14.571c4.098-36.888,14.154-72.637,29.891-106.253
	c15.505-33.124,36.14-63.334,61.325-89.826L376,84.637l21.158,10.526c1.129,0.562,2.349,0.837,3.562,0.837
	c1.702,0,3.394-0.542,4.806-1.604c2.42-1.818,3.606-4.845,3.067-7.823l-3.938-21.724l16.768-15.468
	c2.276-2.099,3.136-5.323,2.209-8.277c-0.928-2.954-3.476-5.107-6.543-5.529l-23.547-3.238l-10.449-20.038
	C381.715,9.658,378.981,8,376,8s-5.715,1.658-7.094,4.301l-10.449,20.038l-23.547,3.238c-3.067,0.421-5.615,2.575-6.543,5.529
	c-0.927,2.954-0.067,6.178,2.209,8.277l16.768,15.468l-3.938,21.724c-0.435,2.401,0.268,4.823,1.818,6.628
	c-19.235,23.18-35.426,48.672-48.254,76.076c-16.479,35.204-27.011,72.641-31.302,111.269l-1.62,14.57
	c-0.488,4.391,2.676,8.347,7.067,8.835C271.416,303.984,271.715,304,272.01,304z M364.729,47.626
	c2.567-0.353,4.805-1.928,6.004-4.226l5.267-10.1l5.267,10.1c1.199,2.298,3.437,3.873,6.004,4.226l10.843,1.491l-7.537,6.953
	c-2.013,1.856-2.937,4.613-2.448,7.307l1.878,10.356l-10.442-5.195c-1.122-0.558-2.343-0.837-3.563-0.837s-2.441,0.279-3.563,0.837
	l-10.442,5.195l1.878-10.356c0.488-2.694-0.436-5.451-2.448-7.307l-7.537-6.953L364.729,47.626z M264,136.617l13.158,6.546
	c1.129,0.562,2.349,0.837,3.562,0.837c1.702,0,3.394-0.542,4.806-1.604c2.42-1.818,3.606-4.845,3.067-7.823l-3.938-21.724
	l16.768-15.468c2.276-2.099,3.136-5.323,2.209-8.277c-0.928-2.954-3.476-5.107-6.543-5.529l-23.547-3.238l-10.449-20.038
	C261.715,57.658,258.981,56,256,56s-5.715,1.658-7.094,4.301l-10.449,20.038l-23.547,3.238c-3.067,0.421-5.615,2.575-6.543,5.529
	c-0.927,2.954-0.067,6.178,2.209,8.277l16.768,15.468l-3.938,21.724c-0.539,2.978,0.647,6.005,3.067,7.823
	c2.419,1.817,5.658,2.113,8.368,0.766L248,136.617V248c0,4.418,3.582,8,8,8s8-3.582,8-8V136.617z M259.563,116.539
	c-1.122-0.558-2.343-0.837-3.563-0.837s-2.441,0.279-3.563,0.837l-10.442,5.195l1.878-10.356c0.488-2.694-0.436-5.451-2.448-7.307
	l-7.537-6.953l10.843-1.491c2.567-0.353,4.805-1.928,6.004-4.226l5.267-10.1l5.267,10.1c1.199,2.298,3.437,3.873,6.004,4.226
	l10.843,1.491l-7.537,6.953c-2.013,1.856-2.937,4.613-2.448,7.307l1.878,10.356L259.563,116.539z M72,432c0,4.418-3.582,8-8,8h-8v8
	c0,4.418-3.582,8-8,8s-8-3.582-8-8v-8h-8c-4.418,0-8-3.582-8-8s3.582-8,8-8h8v-8c0-4.418,3.582-8,8-8s8,3.582,8,8v8h8
	C68.418,424,72,427.582,72,432z M56,256v8h8c4.418,0,8,3.582,8,8s-3.582,8-8,8h-8v8c0,4.418-3.582,8-8,8s-8-3.582-8-8v-8h-8
	c-4.418,0-8-3.582-8-8s3.582-8,8-8h8v-8c0-4.418,3.582-8,8-8S56,251.582,56,256z M456,288v-8h-8c-4.418,0-8-3.582-8-8s3.582-8,8-8h8
	v-8c0-4.418,3.582-8,8-8s8,3.582,8,8v8h8c4.418,0,8,3.582,8,8s-3.582,8-8,8h-8v8c0,4.418-3.582,8-8,8S456,292.418,456,288z M488,432
	c0,4.418-3.582,8-8,8h-8v8c0,4.418-3.582,8-8,8s-8-3.582-8-8v-8h-8c-4.418,0-8-3.582-8-8s3.582-8,8-8h8v-8c0-4.418,3.582-8,8-8
	s8,3.582,8,8v8h8C484.418,424,488,427.582,488,432z"/>
</svg>
