<svg width="161" height="90" viewBox="0 0 161 90" fill="none" xmlns="http://www.w3.org/2000/svg">
<rect x="7" y="7" width="147" height="77" rx="9" stroke="white" stroke-width="4"/>
<path d="M62.6786 72H33.8806C31.6733 72 30.5696 70.922 30.5696 68.766C30.5696 65.3267 31.1086 62.4007 32.1866 59.988C33.2903 57.5497 34.6891 55.4963 36.3831 53.828C38.1028 52.134 39.9251 50.7095 41.8501 49.5545C43.7751 48.3738 45.559 47.3087 47.2016 46.359C50.0506 44.742 52.4248 43.3432 54.3241 42.1625C56.2491 40.9818 57.6865 39.7755 58.6361 38.5435C59.5858 37.3115 60.0606 35.81 60.0606 34.039C60.0606 30.9847 59.5088 28.9313 58.4051 27.879C57.3271 26.801 55.2866 26.262 52.2836 26.262H44.0446C41.632 26.262 39.8481 26.5828 38.6931 27.2245C37.5381 27.8662 36.8066 29.0597 36.4986 30.805C36.319 31.8317 35.9725 32.6145 35.4591 33.1535C34.9458 33.6925 34.163 33.962 33.1106 33.962C32.0326 33.962 31.2113 33.6797 30.6466 33.115C30.082 32.5247 29.851 31.6777 29.9536 30.574C30.4926 26.955 31.9171 24.26 34.2271 22.489C36.5371 20.6923 39.8096 19.794 44.0446 19.794H52.2836C57.109 19.794 60.6895 20.9618 63.0251 23.2975C65.3608 25.6332 66.5286 29.2137 66.5286 34.039C66.5286 37.119 65.7715 39.6985 64.2571 41.7775C62.7428 43.8308 60.7536 45.6532 58.2896 47.2445C55.8256 48.8102 53.182 50.3887 50.3586 51.98C48.3053 53.1607 46.3546 54.3413 44.5066 55.522C42.6843 56.7027 41.1186 58.0758 39.8096 59.6415C38.5263 61.2072 37.6793 63.1707 37.2686 65.532H62.6786C64.8346 65.532 65.9126 66.61 65.9126 68.766C65.9126 70.922 64.8346 72 62.6786 72ZM94.7257 71.923C88.848 71.923 84.4975 70.5242 81.6742 67.7265C78.8765 64.9032 77.4777 60.5527 77.4777 54.675V36.888C77.4777 30.959 78.8765 26.5957 81.6742 23.798C84.4975 21.0003 88.848 19.64 94.7257 19.717H99.3457C105.249 19.717 109.599 21.1158 112.397 23.9135C115.195 26.6855 116.594 31.036 116.594 36.965V54.675C116.594 60.5527 115.195 64.9032 112.397 67.7265C109.599 70.5242 105.249 71.923 99.3457 71.923H94.7257ZM94.7257 65.455H99.3457C102.092 65.455 104.248 65.1213 105.814 64.454C107.379 63.7867 108.483 62.6702 109.125 61.1045C109.792 59.5388 110.126 57.3957 110.126 54.675V36.965C110.126 34.2187 109.792 32.0627 109.125 30.497C108.483 28.9313 107.379 27.8277 105.814 27.186C104.248 26.5187 102.092 26.185 99.3457 26.185H94.7257C92.005 26.1337 89.8618 26.4288 88.2962 27.0705C86.7305 27.6865 85.614 28.7902 84.9467 30.3815C84.2793 31.9472 83.9457 34.116 83.9457 36.888V54.675C83.9457 57.3957 84.2665 59.5388 84.9082 61.1045C85.5755 62.6702 86.692 63.7867 88.2577 64.454C89.8233 65.1213 91.9793 65.455 94.7257 65.455ZM96.1117 49.593C94.0583 49.593 93.0317 48.5663 93.0317 46.513V44.588C93.0317 42.586 94.0583 41.585 96.1117 41.585H97.9597C99.9103 41.585 100.886 42.586 100.886 44.588V46.513C100.886 48.5663 99.9103 49.593 97.9597 49.593H96.1117ZM137.583 31.729C136.069 32.9353 134.76 32.8327 133.656 31.421L128.035 24.645C126.803 23.1563 126.906 21.8473 128.343 20.718C129.781 19.5117 131.09 19.6143 132.27 21.026L137.891 27.802C139.098 29.2393 138.995 30.5483 137.583 31.729Z" fill="white"/>
</svg>
