<svg width="161" height="90" viewBox="0 0 161 90" fill="none" xmlns="http://www.w3.org/2000/svg">
<rect x="7" y="7" width="147" height="77" rx="9" stroke="white" stroke-width="4"/>
<path d="M55.7183 72C53.5623 72 52.4843 70.922 52.4843 68.766L52.5613 27.34L55.1023 25.492L32.3103 56.369L31.7713 54.752L63.4183 54.598C64.4707 54.598 65.2663 54.906 65.8053 55.522C66.37 56.138 66.6523 56.908 66.6523 57.832C66.6523 59.988 65.5743 61.066 63.4183 61.066H28.6913C26.5353 61.066 25.4573 59.988 25.4573 57.832C25.4573 56.8053 25.8937 55.676 26.7663 54.444L50.9443 21.796C51.6117 20.8977 52.2918 20.3458 52.9848 20.1405C53.7035 19.9095 54.5377 19.794 55.4873 19.794C57.8487 19.794 59.0293 20.872 59.0293 23.028L58.9523 68.766C58.9523 70.922 57.8743 72 55.7183 72ZM94.0679 71.923C88.1903 71.923 83.8398 70.5242 81.0164 67.7265C78.2188 64.9032 76.8199 60.5527 76.8199 54.675V36.888C76.8199 30.959 78.2188 26.5957 81.0164 23.798C83.8398 21.0003 88.1903 19.64 94.0679 19.717H98.6879C104.591 19.717 108.942 21.1158 111.739 23.9135C114.537 26.6855 115.936 31.036 115.936 36.965V54.675C115.936 60.5527 114.537 64.9032 111.739 67.7265C108.942 70.5242 104.591 71.923 98.6879 71.923H94.0679ZM94.0679 65.455H98.6879C101.434 65.455 103.59 65.1213 105.156 64.454C106.722 63.7867 107.825 62.6702 108.467 61.1045C109.134 59.5388 109.468 57.3957 109.468 54.675V36.965C109.468 34.2187 109.134 32.0627 108.467 30.497C107.825 28.9313 106.722 27.8277 105.156 27.186C103.59 26.5187 101.434 26.185 98.6879 26.185H94.0679C91.3473 26.1337 89.2041 26.4288 87.6384 27.0705C86.0728 27.6865 84.9563 28.7902 84.2889 30.3815C83.6216 31.9472 83.2879 34.116 83.2879 36.888V54.675C83.2879 57.3957 83.6088 59.5388 84.2504 61.1045C84.9178 62.6702 86.0343 63.7867 87.5999 64.454C89.1656 65.1213 91.3216 65.455 94.0679 65.455ZM95.4539 49.593C93.4006 49.593 92.3739 48.5663 92.3739 46.513V44.588C92.3739 42.586 93.4006 41.585 95.4539 41.585H97.3019C99.2526 41.585 100.228 42.586 100.228 44.588V46.513C100.228 48.5663 99.2526 49.593 97.3019 49.593H95.4539ZM136.926 31.729C135.411 32.9353 134.102 32.8327 132.999 31.421L127.378 24.645C126.146 23.1563 126.248 21.8473 127.686 20.718C129.123 19.5117 130.432 19.6143 131.613 21.026L137.234 27.802C138.44 29.2393 138.337 30.5483 136.926 31.729Z" fill="white"/>
</svg>
