<svg width="20" height="20" viewBox="0 0 20 20" fill="none" xmlns="http://www.w3.org/2000/svg">
<path fill-rule="evenodd" clip-rule="evenodd" d="M7.69998 0.0913391C6.3779 0.0913391 5.49133 1.14004 5.49133 2.29999V3.09134H2.99997H1.49997C1.10859 3.09134 0.791321 3.40861 0.791321 3.79999C0.791321 4.19137 1.10859 4.50864 1.49997 4.50864H2.29132V18.4C2.29132 19.3482 3.0679 19.9086 3.79997 19.9086H16.1C17.0481 19.9086 17.6086 19.1321 17.6086 18.4V4.50864H18.5C18.8913 4.50864 19.2086 4.19137 19.2086 3.79999C19.2086 3.40861 18.8913 3.09134 18.5 3.09134H16.9H14.6086V2.29999C14.6086 0.977907 13.5599 0.0913391 12.4 0.0913391H7.69998ZM13.1913 3.09134V2.29999C13.1913 1.82207 12.84 1.50864 12.4 1.50864H7.69998C7.22207 1.50864 6.90863 1.85994 6.90863 2.29999V3.09134H13.1913ZM6.19998 4.50864H3.70862V18.4C3.70862 18.4288 3.71399 18.4429 3.71629 18.4481C3.7189 18.454 3.72259 18.4594 3.72882 18.4651C3.74447 18.4794 3.77225 18.4913 3.79997 18.4913H16.1C16.1288 18.4913 16.1429 18.486 16.1481 18.4837C16.154 18.4811 16.1594 18.4774 16.1651 18.4711C16.1794 18.4555 16.1913 18.4277 16.1913 18.4V4.50864H13.9H6.19998ZM7.69998 7.79135C8.09136 7.79135 8.40863 8.10862 8.40863 8.5V14.6C8.40863 14.9914 8.09136 15.3086 7.69998 15.3086C7.30861 15.3086 6.99133 14.9914 6.99133 14.6V8.5C6.99133 8.10862 7.30861 7.79135 7.69998 7.79135ZM13.0086 8.5C13.0086 8.10862 12.6913 7.79135 12.3 7.79135C11.9086 7.79135 11.5913 8.10862 11.5913 8.5V14.6C11.5913 14.9914 11.9086 15.3086 12.3 15.3086C12.6913 15.3086 13.0086 14.9914 13.0086 14.6V8.5Z" fill="white"/>
</svg>
