<svg width="24" height="24" viewBox="0 0 24 24" fill="none" xmlns="http://www.w3.org/2000/svg">
<path fill-rule="evenodd" clip-rule="evenodd" d="M19.2728 3.14142C18.5698 2.43848 17.4301 2.43848 16.7272 3.14142L5.11822 14.7504C4.87968 14.9889 4.71297 15.2897 4.63711 15.6184L4.00071 18.3761C3.70161 19.6723 4.86324 20.8339 6.15937 20.5348L8.91708 19.8984C9.2458 19.8225 9.54658 19.6558 9.78513 19.4173L21.3941 7.80832C22.097 7.10538 22.097 5.96568 21.3941 5.26274L19.2728 3.14142ZM17.8586 4.27279C17.9367 4.19469 18.0633 4.19469 18.1414 4.27279L20.2627 6.39411C20.3408 6.47222 20.3408 6.59885 20.2627 6.67695L19.0355 7.90416L16.6313 5.5L17.8586 4.27279ZM15.5 6.63137L6.24959 15.8817C6.22309 15.9083 6.20457 15.9417 6.19614 15.9782L5.55974 18.7359C5.52651 18.8799 5.65558 19.009 5.79959 18.9758L8.55731 18.3394C8.59383 18.3309 8.62725 18.3124 8.65376 18.2859L17.9041 9.03553L15.5 6.63137Z" fill="#FFFFFF"/>
</svg>
