<svg width="20" height="20" viewBox="0 0 20 20" fill="none" xmlns="http://www.w3.org/2000/svg">
<path fill-rule="evenodd" clip-rule="evenodd" d="M13.651 1.43195L13.6511 1.4318C13.654 1.42894 13.6655 1.41734 13.7053 1.41734C13.7434 1.41734 13.8052 1.42977 13.8769 1.4752L18.3757 5.97398L18.3758 5.97413C18.3787 5.97698 18.3903 5.98851 18.3903 6.0283C18.3903 6.06609 18.3781 6.12716 18.3336 6.19801L16.1932 8.30395L11.4685 3.57926L13.6469 1.436L13.6469 1.43602L13.651 1.43195ZM1.66352 13.2261L6.38822 17.9508L15.1829 9.29799L10.4582 4.57329L1.66352 13.2261ZM6.5989 19.5602C6.82038 19.5014 7.03818 19.3739 7.19261 19.1476L15.7478 10.7304L16.1195 12.2637L12.3526 16.0307C12.0758 16.3074 12.0758 16.7561 12.3526 17.0329C12.6293 17.3096 13.078 17.3096 13.3547 17.0329L17.4031 12.9845C17.5778 12.8098 17.6489 12.5566 17.5907 12.3165L16.9253 9.57188L19.3738 7.16292C19.3991 7.13805 19.4224 7.11132 19.4437 7.08296C19.8961 6.4797 19.9836 5.57751 19.3779 4.9718L14.8358 0.429765C14.8121 0.406054 14.7868 0.384056 14.7599 0.363936C14.1575 -0.087903 13.2569 -0.175718 12.6512 0.427351L0.40913 12.472C0.353457 12.5267 0.307222 12.5903 0.272295 12.6602L0.255596 12.6933C0.169615 12.8631 0 13.1982 0 13.5696V18.1116C0 18.8386 0.556711 19.6102 1.49857 19.6102H6.0406L6.06814 19.6102C6.12147 19.6104 6.19072 19.6106 6.2674 19.6068C6.37919 19.6178 6.49309 19.6022 6.5989 19.5602ZM4.62594 18.1929L1.4173 14.9842V18.1116C1.4173 18.1368 1.42824 18.162 1.44086 18.1758C1.4457 18.1811 1.45005 18.184 1.45467 18.1861C1.45862 18.1878 1.47136 18.1929 1.49857 18.1929H4.62594Z" fill="white"/>
</svg>
