<svg width="42" height="42" viewBox="0 0 42 42" fill="none" xmlns="http://www.w3.org/2000/svg">
<path d="M4.65889 30.6936C2.29728 26.7125 1.47022 22.0062 2.33302 17.4585C3.19582 12.9107 5.68913 8.83438 9.34475 5.99487C13.0004 3.15536 17.5668 1.74802 22.1867 2.03711C26.8065 2.32621 31.1619 4.29186 34.435 7.56495C37.7081 10.838 39.6738 15.1934 39.9629 19.8133C40.252 24.4331 38.8447 28.9995 36.0052 32.6552C33.1657 36.3108 29.0894 38.8041 24.5416 39.667C19.9939 40.5298 15.2876 39.7027 11.3065 37.3412L11.3065 37.341L4.74153 39.2167C4.46992 39.2943 4.18249 39.2978 3.90904 39.227C3.63559 39.1561 3.38606 39.0134 3.18631 38.8137C2.98657 38.6139 2.84387 38.3644 2.77301 38.0909C2.70216 37.8175 2.70572 37.5301 2.78332 37.2585L4.65903 30.6935L4.65889 30.6936Z" stroke="#F9F6F6" stroke-width="2.5" stroke-linecap="round" stroke-linejoin="round"/>
<path d="M26.4665 21.7617L27.3748 22.6204L26.4665 21.7617C26.0022 22.2528 25.7832 22.9267 25.8702 23.5969L27.1098 23.4361L25.8702 23.5969L26.5189 28.5961L21.9649 26.4343C21.3543 26.1445 20.6457 26.1445 20.0351 26.4343L15.4811 28.5961L16.1298 23.5969C16.2168 22.9267 15.9978 22.2528 15.5335 21.7617L12.0703 18.0986L17.0252 17.1707C17.6895 17.0463 18.2628 16.6298 18.5864 16.0364L21 11.6107L23.4136 16.0364C23.7372 16.6298 24.3105 17.0463 24.9748 17.1707L29.9297 18.0986L26.4665 21.7617Z" stroke="white" stroke-width="2.5"/>
</svg>
