<svg width="29" height="33" viewBox="0 0 29 33" fill="none" xmlns="http://www.w3.org/2000/svg">
<path fill-rule="evenodd" clip-rule="evenodd" d="M24.9421 14.3663V17.9586L25.4025 18.0687C26.9675 18.443 28.1336 19.8536 28.1337 21.529V28.8061C28.1337 30.7743 26.5302 32.4 24.5753 32.4H0.866364V14.3663L4.65666 9.11467V0.599998H21.1518V9.11467L24.9421 14.3663ZM21.7505 24.8007H27.4V21.529C27.4 19.9709 26.1335 18.7042 24.5753 18.7042C23.0171 18.7042 21.7505 19.9708 21.7505 21.529V24.8007ZM23.8582 14.1181L20.5974 9.6H5.21103L1.95021 14.1181H23.8582ZM24.2085 17.9587V14.8517H1.59996V26.3793H21.0169V21.529C21.0169 19.8536 22.1831 18.4431 23.748 18.0688L24.2085 17.9587ZM20.4182 1.35151H5.39026V8.86644H8.62362V5.2064H9.35721V8.86644H12.5374V5.2064H13.271V8.86644H16.4512V5.2064H17.1848V8.86644H20.4182V1.35151ZM21.017 27.1128H1.59996V31.6308H22.1577L21.5712 30.7088C21.2205 30.1575 21.017 29.5058 21.017 28.8061V27.1128ZM27.4 25.5343H21.7505V28.8061C21.7505 30.3642 23.0173 31.6308 24.5753 31.6308C26.1334 31.6308 27.4 30.3642 27.4 28.8061V25.5343Z" fill="white"/>
<path fill-rule="evenodd" clip-rule="evenodd" d="M12.5374 23.5041V20.9822H10.0155V20.2486H12.5374V17.7267H13.271V20.2486H15.7929V20.9822H13.271V23.5041H12.5374Z" fill="white"/>
</svg>
