<svg width="18" height="33" viewBox="0 0 18 33" fill="none" xmlns="http://www.w3.org/2000/svg">
<path d="M6.06281 29.041V32.1747H2.39793C2.17002 32.1747 1.98528 32.3594 1.98528 32.5874C1.98528 32.8153 2.16974 33 2.39793 33H10.5527C10.7806 33 10.9654 32.8153 10.9654 32.5874C10.9654 32.3594 10.7809 32.1747 10.5527 32.1747H6.88786V29.0494C8.51625 28.8747 9.86382 27.6028 10.0975 25.9519L12.8375 6.59402L15.4535 9.21004C15.5309 9.28745 15.6357 9.33089 15.7453 9.33089C15.8549 9.33089 15.9597 9.28744 16.0371 9.21004C18.1411 7.10599 18.1411 3.68222 16.0371 1.57825C13.9324 -0.52579 10.5096 -0.526379 8.40456 1.57825C8.32715 1.65566 8.2837 1.76041 8.2837 1.87004C8.2837 1.97939 8.32715 2.08442 8.40456 2.16182L11.1728 4.93004L0.412401 4.92975C0.292694 4.92975 0.179027 4.98154 0.101044 5.0719C0.0224868 5.16226 -0.0126228 5.28197 0.00406991 5.40023L2.91299 25.9523C3.14377 27.5824 4.46144 28.842 6.06279 29.0411L6.06281 29.041ZM9.28053 25.8366C9.0863 27.2106 7.89296 28.2468 6.5051 28.2468C5.11723 28.2468 3.92392 27.2107 3.72966 25.8366L1.56889 10.5686H11.4416L9.28053 25.8366ZM15.4535 2.1611C17.1374 3.84532 17.2301 6.52727 15.7323 8.3217L9.29292 1.88257C11.0871 0.384793 13.7696 0.476581 15.4535 2.16111L15.4535 2.1611ZM11.9981 5.7543L12.1075 5.86365L11.5584 9.74319H1.45223L0.887648 5.75455L11.9981 5.7543Z" fill="white"/>
<path d="M14.6368 3.56222C14.7979 3.40137 14.7979 3.14008 14.6368 2.97894C14.4756 2.81779 14.2146 2.81779 14.0535 2.97894L13.5698 3.46266C13.4086 3.62351 13.4086 3.8848 13.5698 4.04594C13.6503 4.12652 13.7559 4.1668 13.8616 4.1668C13.9672 4.1668 14.0728 4.12651 14.1533 4.04594L14.6368 3.56222Z" fill="white"/>
<path d="M12.2213 1.97818C11.9934 1.97818 11.8086 2.16292 11.8086 2.39083V3.07453C11.8086 3.30244 11.9931 3.48718 12.2213 3.48718C12.4492 3.48718 12.6339 3.30244 12.6339 3.07453V2.39083C12.6336 2.16292 12.4492 1.97818 12.2213 1.97818Z" fill="white"/>
<path d="M15.2246 4.98177H14.5406C14.3127 4.98177 14.128 5.1665 14.128 5.39441C14.128 5.62232 14.3124 5.80706 14.5406 5.80706H15.2246C15.4525 5.80706 15.6373 5.62232 15.6373 5.39441C15.637 5.1665 15.4525 4.98177 15.2246 4.98177Z" fill="white"/>
</svg>
