<svg width="39" height="33" viewBox="0 0 39 33" fill="none" xmlns="http://www.w3.org/2000/svg">
<path fill-rule="evenodd" clip-rule="evenodd" d="M2.48871 8.94082C1.49584 8.03213 0.748536 6.50202 0.600559 3.84917C0.589396 3.64906 0.75831 3.46085 0.989285 3.46491C2.69217 3.49469 3.93457 3.61175 4.85341 3.88272L5.38391 4.03917L5.58293 3.52312C5.96045 2.54423 6.72992 1.57824 7.94941 0.665729C8.06652 0.578088 8.22974 0.578104 8.34685 0.665744C9.57633 1.58571 10.3483 2.56008 10.7225 3.5473L10.9272 4.08736L11.4747 3.90334C12.4083 3.58952 13.6456 3.48699 15.3077 3.4631C15.5385 3.4598 15.707 3.6474 15.6957 3.84917C15.5477 6.50204 14.8005 8.03212 13.8076 8.9407L13.2721 9.43081L13.8542 9.8645C14.2453 10.1558 14.4674 10.6388 14.385 11.1629C13.8034 14.8561 12.3479 22.6758 9.36515 31.4877C9.16255 32.0863 8.66968 32.3903 8.17222 32.3998L8.71723 30.7676C9.83097 27.4322 10.724 24.2491 11.4329 21.3933L11.6178 20.6487H7.72624V19.8052H11.8175L11.925 19.3403C12.7316 15.8496 13.2424 12.9831 13.5369 11.1249L13.6469 10.4309H2.64942L2.7594 11.1249C2.89181 11.9603 3.06792 12.9993 3.29493 14.2071L3.38687 14.6963H6.52624V15.5398H3.55093L3.69906 16.2606C4.23662 18.8762 4.97198 22.0358 5.95497 25.4996L6.07876 25.9358H7.54802V26.7794H6.32275L6.55685 27.5532C6.87486 28.6042 7.21519 29.6778 7.57899 30.7676L8.12388 32.3998C7.6265 32.3902 7.13376 32.0862 6.93119 31.4877C3.94843 22.6758 2.49298 14.8561 1.91139 11.1629C1.82886 10.6388 2.05103 10.1558 2.44201 9.86464L3.02427 9.43098L2.48871 8.94082ZM4.61477 4.6918L5.89113 5.06821L6.36997 3.82674C6.60422 3.21953 7.04065 2.5789 7.74106 1.93211L8.14812 1.55621L8.55518 1.93211C9.263 2.58576 9.7013 3.23325 9.93377 3.84628L10.4263 5.14568L11.7436 4.70285C12.3358 4.50384 13.0962 4.39732 14.104 4.34452L14.8404 4.30595L14.7285 5.0348C14.4042 7.14566 13.5966 8.1458 12.7607 8.68646C11.648 9.40605 10.0991 9.58545 8.17867 9.58739L8.11696 9.58739C6.19667 9.58545 4.64822 9.40602 3.53549 8.68643C2.70046 8.14631 1.89357 7.14754 1.56871 5.04076L1.45601 4.30985L2.19445 4.35022C3.23501 4.40709 4.01635 4.51537 4.61477 4.6918Z" fill="white"/>
<path d="M33.5 20.5C34.0475 20.6369 34.1369 20.9525 34 21.5C33.3977 23.9097 31.9097 25.3976 29.5 26C28.9525 26.1369 28.751 26.1311 28.6141 25.5836C28.4772 25.0362 28.9525 25.1369 29.5 25C31.1775 24.5807 32.5 23 33 21.5C33.218 20.846 33 20.5 33.5 20.5Z" fill="white"/>
<path fill-rule="evenodd" clip-rule="evenodd" d="M27.6751 13.3384L27.9565 13.9966L28.5554 13.6045C30.8285 12.1163 33.2079 12.301 35.0341 13.5578C36.8773 14.8263 38.2014 17.2241 38.2014 20.2269C38.2014 25.4861 33.4929 29.8447 27.5618 29.8447C21.6307 29.8447 16.9222 25.4861 16.9222 20.2269C16.9222 17.4314 18.0704 15.1585 19.7167 13.8354C21.3541 12.5194 23.5008 12.1222 25.6186 13.0804L26.7891 13.61L26.4439 12.3725C25.7402 9.85021 26.0422 7.17373 27.8768 5.04202L28.5 5.5C26.6564 7.6885 26.5501 10.7076 27.6751 13.3384ZM26.66 14.7126L27.5618 15.434L28.4636 14.7126C30.555 13.0394 32.7013 13.0996 34.3388 14.1111C36.0335 15.1578 37.3578 17.3437 37.3578 20.2269C37.3578 24.9427 33.1085 29.0012 27.5618 29.0012C22.0151 29.0012 17.7658 24.9427 17.7658 20.2269C17.7658 17.3437 19.0901 15.1578 20.7848 14.1111C22.4224 13.0996 24.5686 13.0394 26.66 14.7126Z" fill="white"/>
<path fill-rule="evenodd" clip-rule="evenodd" d="M31.4346 6.72949C32.0813 6.08274 32.9777 5.65217 34.081 5.53351C33.9624 6.63679 33.5318 7.53321 32.885 8.17996C32.2383 8.82671 31.3419 9.25727 30.2386 9.37594C30.3573 8.27266 30.7878 7.37624 31.4346 6.72949Z" fill="white"/>
</svg>
