<svg width="33" height="33" viewBox="0 0 33 33" fill="none" xmlns="http://www.w3.org/2000/svg">
<g clip-path="url(#clip0_29_397)">
<path d="M28.1995 21.7079H26.6526V10.3742C27.787 10.3742 28.7151 9.45128 28.7151 8.31174C28.7151 7.17739 27.7921 6.24924 26.6526 6.24924H18.1292C18.8098 5.07878 18.1859 3.58346 16.8813 3.22767C17.0567 2.27378 17.9126 2.05202 18.882 2.12424C19.1656 2.14487 19.4131 1.93346 19.4337 1.64989C19.4543 1.36632 19.2429 1.11878 18.9594 1.09818C16.9742 0.953805 15.9945 1.92832 15.845 3.21739C14.5199 3.55255 13.8805 5.06332 14.5611 6.24411H6.03769C4.90334 6.24411 3.97519 7.16707 3.97519 8.30661C3.97519 9.44096 4.89815 10.3691 6.03769 10.3691V21.7079H4.49084C4.20725 21.7079 3.97519 21.9399 3.97519 22.2236V25.3122C3.97519 25.5958 4.20722 25.8278 4.49084 25.8278H28.1995C28.483 25.8278 28.7151 25.5958 28.7151 25.3122V22.2236C28.7151 21.94 28.4831 21.7079 28.1995 21.7079V21.7079ZM7.06908 13.9788H9.38941C9.53378 13.9788 9.64722 14.0922 9.64722 14.2366C9.64722 14.9482 10.2247 15.5257 10.9363 15.5257H11.9675C12.6791 15.5257 13.2566 14.9482 13.2566 14.2366C13.2566 14.0922 13.3701 13.9788 13.5144 13.9788H15.0613C15.2057 13.9788 15.3191 14.0922 15.3191 14.2366C15.3191 14.9482 15.8966 15.5257 16.6082 15.5257H18.6707C19.3822 15.5257 19.9597 14.9482 19.9597 14.2366C19.9597 14.0922 20.0732 13.9788 20.2176 13.9788H25.6315V17.583H20.2124C19.5008 17.583 18.9233 18.1605 18.9233 18.8721C18.9233 19.0113 18.8099 19.1299 18.6655 19.1299H16.603C16.4586 19.1299 16.3452 19.0165 16.3452 18.8721C16.3452 18.1605 15.7677 17.583 15.0561 17.583H13.5092C12.7977 17.583 12.2202 18.1605 12.2202 18.8721C12.2202 19.0113 12.1067 19.1299 11.9624 19.1299H10.9311C10.7867 19.1299 10.6733 19.0165 10.6733 18.8721C10.6733 18.1605 10.0958 17.583 9.38422 17.583H7.06389L7.06908 13.9788ZM15.3139 5.22342C15.3139 4.66138 15.7676 4.20249 16.3245 4.19217H16.3658C16.9226 4.20248 17.3764 4.66138 17.3764 5.22342C17.3764 5.79059 16.9124 6.25467 16.3452 6.25467C15.778 6.25467 15.3139 5.7906 15.3139 5.22342H15.3139ZM5.00658 8.31203C5.00658 7.74485 5.47065 7.28078 6.03783 7.28078H26.6576C27.2248 7.28078 27.6889 7.74484 27.6889 8.31203C27.6889 8.87921 27.2248 9.34328 26.6576 9.34328H21.5012C21.2176 9.34328 20.9855 9.57531 20.9855 9.85893C20.9855 10.3127 20.4441 10.5447 20.1141 10.2302C19.8718 9.99814 19.4696 10.06 19.3098 10.3539C18.9488 11.0036 18.0413 11.0706 17.5876 10.4828C17.371 10.1992 16.9327 10.2199 16.7419 10.5241C16.4119 11.05 15.6437 10.9933 15.3858 10.4467C15.2466 10.1477 14.8599 10.0549 14.6021 10.2611C14.401 10.421 14.1174 10.4106 13.9318 10.2302C13.6894 9.99815 13.2872 10.06 13.1274 10.3539C12.7355 11.0603 11.7146 11.0603 11.3227 10.3539C11.1577 10.06 10.7607 9.99815 10.5184 10.2302C10.1884 10.5396 9.64699 10.3075 9.64699 9.85893C9.64699 9.57533 9.41496 9.34328 9.13135 9.34328H6.0376C5.46523 9.34328 5.00635 8.87921 5.00635 8.31203L5.00658 8.31203ZM8.70362 10.3745C8.99753 11.2047 9.92565 11.6224 10.7403 11.2924C11.5499 12.1277 12.8905 12.1328 13.7052 11.2924C14.03 11.4213 14.4013 11.447 14.757 11.3336C15.4016 12.0349 16.4741 12.1174 17.2063 11.5347C18.0261 12.1277 19.1759 12.0348 19.8926 11.2924C20.7073 11.6224 21.6355 11.2047 21.9294 10.3745H25.6264V12.9475H20.2125C19.5009 12.9475 18.9234 13.525 18.9234 14.2366C18.9234 14.3809 18.81 14.4944 18.6656 14.4944H16.6031C16.4587 14.4944 16.3453 14.3809 16.3453 14.2366C16.3453 13.525 15.7678 12.9475 15.0562 12.9475H13.5094C12.7978 12.9475 12.2203 13.525 12.2203 14.2366C12.2203 14.3809 12.1069 14.4944 11.9625 14.4944H10.9312C10.7869 14.4944 10.6734 14.3809 10.6734 14.2366C10.6734 13.525 10.0959 12.9475 9.38435 12.9475H7.06403V10.3745H8.70362ZM7.06908 18.6142H9.38941C9.53378 18.6142 9.64722 18.7276 9.64722 18.872C9.64722 19.5835 10.2247 20.161 10.9363 20.161H11.9675C12.6791 20.161 13.2566 19.5835 13.2566 18.872C13.2566 18.7276 13.3701 18.6142 13.5144 18.6142H15.0613C15.2057 18.6142 15.3191 18.7276 15.3191 18.872C15.3191 19.5835 15.8966 20.161 16.6082 20.161H18.6707C19.3822 20.161 19.9597 19.5835 19.9597 18.872C19.9597 18.7276 20.0732 18.6142 20.2176 18.6142H25.6315V21.7079H7.06895L7.06908 18.6142ZM27.6837 24.7965H5.00658V22.734H27.6837V24.7965Z" fill="white"/>
<path d="M8.6163 15.5256C8.3327 15.5256 8.10065 15.7576 8.10065 16.0412C8.10065 16.3248 8.33268 16.5569 8.6163 16.5569C8.89991 16.5569 9.13194 16.3248 9.13194 16.0412C9.12679 15.7576 8.89991 15.5256 8.6163 15.5256Z" fill="white"/>
<path d="M14.2829 16.5566C14.5665 16.5566 14.7985 16.3245 14.7985 16.0409C14.7985 15.7573 14.5665 15.5253 14.2829 15.5253C13.9993 15.5253 13.7672 15.7573 13.7672 16.0409C13.7672 16.3245 13.9993 16.5566 14.2829 16.5566Z" fill="white"/>
<path d="M8.6163 19.6454C8.3327 19.6454 8.10065 19.8774 8.10065 20.161C8.10065 20.4446 8.33268 20.6767 8.6163 20.6767C8.89991 20.6767 9.13194 20.4446 9.13194 20.161C9.12679 19.8774 8.89991 19.6454 8.6163 19.6454Z" fill="white"/>
<path d="M14.2829 19.6454C13.9993 19.6454 13.7672 19.8774 13.7672 20.161C13.7672 20.4446 13.9993 20.6767 14.2829 20.6767C14.5665 20.6767 14.7985 20.4446 14.7985 20.161C14.7985 19.8774 14.5665 19.6454 14.2829 19.6454Z" fill="white"/>
<path d="M22.5329 19.6454C22.2493 19.6454 22.0172 19.8774 22.0172 20.161C22.0172 20.4446 22.2493 20.6767 22.5329 20.6767C22.8165 20.6767 23.0485 20.4446 23.0485 20.161C23.0485 19.8774 22.8165 19.6454 22.5329 19.6454Z" fill="white"/>
<path d="M17.8921 18.0986C18.1757 18.0986 18.4078 17.8666 18.4078 17.583C18.4078 17.2994 18.1758 17.0673 17.8921 17.0673C17.6085 17.0673 17.3765 17.2994 17.3765 17.583C17.3765 17.8717 17.6085 18.0986 17.8921 18.0986Z" fill="white"/>
<path d="M23.5639 16.0413C23.8475 16.0413 24.0795 15.8093 24.0795 15.5257C24.0795 15.242 23.8475 15.01 23.5639 15.01C23.2803 15.01 23.0482 15.242 23.0482 15.5257C23.0482 15.8093 23.2751 16.0413 23.5639 16.0413Z" fill="white"/>
</g>
<defs>
<clipPath id="clip0_29_397">
<rect width="33" height="33" fill="white"/>
</clipPath>
</defs>
</svg>
