<svg width="23" height="33" viewBox="0 0 23 33" fill="none" xmlns="http://www.w3.org/2000/svg">
<path d="M2.52178 28.8109C1.58138 27.2294 1.06851 25.3911 1.06851 23.5103C1.06851 19.022 3.93247 15.0895 8.20702 13.6789C8.42081 13.6362 8.54903 13.4651 8.54903 13.2513C8.54903 13.2086 8.59167 13.1657 8.59167 13.1231V9.19047H13.08C13.1227 9.36132 13.1227 9.53247 13.1656 9.66069C13.422 10.9002 14.0204 12.3964 14.7471 13.5506C14.7898 13.6788 14.918 13.807 15.0465 13.85C17.6966 14.8759 19.8768 16.9703 20.9454 19.6208C21.031 19.8346 21.2019 19.9201 21.4157 19.9201C21.5012 19.9201 21.5439 19.9201 21.6295 19.8775C21.8859 19.7493 22.0141 19.4499 21.9288 19.1935C20.7746 16.3296 18.4665 14.0641 15.6452 12.9525C14.9612 11.9265 14.4483 10.6014 14.1919 9.44721C13.6791 6.9253 14.5339 4.27484 16.4575 2.43693C16.6283 2.30872 16.6712 2.05229 16.5857 1.88115C16.4572 1.66736 16.286 1.53915 16.0725 1.53915H15.3459L16.0299 0.855149C16.1581 0.726935 16.2007 0.470507 16.1581 0.299364C16.0725 0.085575 15.9017 0 15.6879 0L8.20709 0.00029817C7.9933 0.00029817 7.82245 0.128512 7.73688 0.299662C7.6513 0.470515 7.69424 0.727241 7.86509 0.855447L8.54909 1.53944H8.07887H8.03623H7.95066C3.84693 1.92409 0.598416 5.3864 0.598416 9.57562C0.598416 10.9862 0.983057 12.3969 1.66706 13.5938C1.75263 13.7646 1.92348 13.8502 2.09463 13.8502C2.18021 13.8502 2.26549 13.8076 2.35106 13.7646C2.60749 13.6364 2.69306 13.2944 2.52191 13.0806C1.92349 12.012 1.58151 10.8151 1.58151 9.57534C1.58151 6.07005 4.1464 3.1635 7.48048 2.60773V12.7812C2.99212 14.4056 0 18.6373 0 23.4676C0 25.5193 0.555785 27.5283 1.62441 29.3237C1.70998 29.4945 1.88084 29.5801 2.05199 29.5801C2.13756 29.5801 2.22284 29.5374 2.30841 29.4945C2.56484 29.3663 2.65042 29.0672 2.52191 28.8108L2.52178 28.8109ZM12.9945 8.12201H8.54876V2.565H14.9179C13.6355 4.18941 12.9515 6.15586 12.9945 8.12201V8.12201ZM14.4051 1.02647L14.0204 1.41111C13.9778 1.45375 13.9348 1.53932 13.8922 1.58196H9.91702C9.87438 1.53932 9.87438 1.49638 9.83144 1.45375L9.4468 1.0691L14.4051 1.02647Z" fill="white"/>
<path d="M22.3985 20.7747C22.3129 20.5183 22.0565 20.3471 21.7574 20.3901C21.501 20.4756 21.3298 20.7321 21.3728 21.0311C21.5866 21.8434 21.6721 22.6555 21.6721 23.5104C21.6721 26.8871 20.0051 30.0504 17.2267 31.974H5.47095C4.6587 31.4182 3.9321 30.6916 3.291 29.9223C3.12014 29.7085 2.77814 29.6659 2.56436 29.8367C2.35058 30.0076 2.30793 30.3496 2.47879 30.5633C3.20542 31.4612 4.0603 32.273 5.0007 32.9144C5.08627 32.9571 5.17155 33 5.30006 33H17.4398C17.5254 33 17.6536 32.9574 17.7392 32.9144C20.8595 30.7772 22.7404 27.2719 22.7404 23.5104C22.7404 22.57 22.6122 21.6725 22.3984 20.7747L22.3985 20.7747Z" fill="white"/>
<path d="M7.01004 17.0558C7.26647 16.9276 7.39469 16.6283 7.26647 16.3718C7.13826 16.1154 6.83889 15.9872 6.58247 16.1154C3.67593 17.4831 1.96618 20.6038 2.39348 23.8096C2.43612 24.066 2.64991 24.2798 2.90634 24.2798H2.99191C3.29128 24.2372 3.46213 23.9805 3.41949 23.724C3.03485 20.9028 4.48813 18.2526 7.01004 17.0558V17.0558Z" fill="white"/>
</svg>
