<svg width="33" height="33" viewBox="0 0 33 33" fill="none" xmlns="http://www.w3.org/2000/svg">
<g clip-path="url(#clip0)">
<path d="M2.39368 1.94115V0H11.9706L12.7172 5.22615H18.4568C18.9232 2.31488 21.4521 0.0833399 24.4929 0.0833399C27.8638 0.0833399 30.6062 2.82579 30.6062 6.19672C30.6062 9.41779 28.1021 12.0648 24.9384 12.2938L23.1432 33H9.34292L6.93487 5.22615H10.7563L10.2871 1.94115H2.39368ZM28.6652 6.19672C28.6652 3.89614 26.7934 2.02449 24.4929 2.02449C22.5265 2.02449 20.8746 3.39228 20.4359 5.22615H25.5513L25.1094 10.3231C27.1186 10.0243 28.6652 8.28785 28.6652 6.19672ZM21.363 31.0588L23.009 12.0745C22.3438 11.9527 21.1917 11.8204 19.5051 11.8893L17.4639 16.6962L11.7524 14.2707L12.4354 12.6623C12.3044 12.6666 12.1751 12.6693 12.0488 12.6693C11.0295 12.6693 10.1687 12.535 9.503 12.3744L11.123 31.0588H21.363ZM17.3438 12.0127L15.2058 11.1047L14.2979 13.2428L16.4359 14.1507L17.3438 12.0127ZM9.32345 10.3033C10.0127 10.5375 11.4202 10.8817 13.2902 10.6495L14.1779 8.55922L17.7384 10.0712C20.3237 9.81113 22.1105 9.95704 23.1773 10.1346L23.4345 7.16729H9.05155L9.32345 10.3033Z" fill="white"/>
<path d="M2.39368 1.94115V0H11.9706L12.7172 5.22615H18.4568C18.9232 2.31488 21.4521 0.0833399 24.4929 0.0833399C27.8638 0.0833399 30.6062 2.82579 30.6062 6.19672C30.6062 9.41779 28.1021 12.0648 24.9384 12.2938L23.1432 33H9.34292L6.93487 5.22615H10.7563L10.2871 1.94115H2.39368ZM28.6652 6.19672C28.6652 3.89614 26.7934 2.02449 24.4929 2.02449C22.5265 2.02449 20.8746 3.39228 20.4359 5.22615H25.5513L25.1094 10.3231C27.1186 10.0243 28.6652 8.28785 28.6652 6.19672ZM21.363 31.0588L23.009 12.0745C22.3438 11.9527 21.1917 11.8204 19.5051 11.8893L17.4639 16.6962L11.7524 14.2707L12.4354 12.6623C12.3044 12.6666 12.1751 12.6693 12.0488 12.6693C11.0295 12.6693 10.1687 12.535 9.503 12.3744L11.123 31.0588H21.363ZM17.3438 12.0127L15.2058 11.1047L14.2979 13.2428L16.4359 14.1507L17.3438 12.0127ZM9.32345 10.3033C10.0127 10.5375 11.4202 10.8817 13.2902 10.6495L14.1779 8.55922L17.7384 10.0712C20.3237 9.81113 22.1105 9.95704 23.1773 10.1346L23.4345 7.16729H9.05155L9.32345 10.3033Z" fill="url(#paint0_linear)"/>
<path d="M20.3695 23.756L15.1053 27.041L11.8203 21.7767L17.0846 18.4917L20.3695 23.756ZM14.4948 22.3959L15.7244 24.3666L17.6951 23.1369L16.4654 21.1663L14.4948 22.3959Z" fill="white"/>
<path d="M20.3695 23.756L15.1053 27.041L11.8203 21.7767L17.0846 18.4917L20.3695 23.756ZM14.4948 22.3959L15.7244 24.3666L17.6951 23.1369L16.4654 21.1663L14.4948 22.3959Z" fill="url(#paint1_linear)"/>
<path d="M12.2737 16.9229C12.7813 16.9229 13.2677 17.3692 13.2442 17.8934C13.2207 18.4193 12.8178 18.864 12.2737 18.864C11.766 18.864 11.2796 18.4176 11.3031 17.8934C11.3266 17.3676 11.7295 16.9229 12.2737 16.9229Z" fill="white"/>
<path d="M12.2737 16.9229C12.7813 16.9229 13.2677 17.3692 13.2442 17.8934C13.2207 18.4193 12.8178 18.864 12.2737 18.864C11.766 18.864 11.2796 18.4176 11.3031 17.8934C11.3266 17.3676 11.7295 16.9229 12.2737 16.9229Z" fill="url(#paint2_linear)"/>
<path d="M19.3663 16.8483C19.3899 16.3224 19.7928 15.8777 20.3369 15.8777C20.8445 15.8777 21.3309 16.3241 21.3074 16.8483C21.2839 17.3741 20.881 17.8188 20.3369 17.8188C19.8292 17.8188 19.3428 17.3724 19.3663 16.8483Z" fill="white"/>
<path d="M19.3663 16.8483C19.3899 16.3224 19.7928 15.8777 20.3369 15.8777C20.8445 15.8777 21.3309 16.3241 21.3074 16.8483C21.2839 17.3741 20.881 17.8188 20.3369 17.8188C19.8292 17.8188 19.3428 17.3724 19.3663 16.8483Z" fill="url(#paint3_linear)"/>
<path d="M18.3708 27.6985C18.8785 27.6985 19.3649 28.1449 19.3414 28.6691C19.3178 29.1949 18.9149 29.6396 18.3708 29.6396C17.8631 29.6396 17.3767 29.1932 17.4002 28.6691C17.4238 28.1432 17.8267 27.6985 18.3708 27.6985Z" fill="white"/>
<path d="M18.3708 27.6985C18.8785 27.6985 19.3649 28.1449 19.3414 28.6691C19.3178 29.1949 18.9149 29.6396 18.3708 29.6396C17.8631 29.6396 17.3767 29.1932 17.4002 28.6691C17.4238 28.1432 17.8267 27.6985 18.3708 27.6985Z" fill="url(#paint4_linear)"/>
</g>
<defs>
<linearGradient id="paint0_linear" x1="16.5" y1="0" x2="16.5" y2="33" gradientUnits="userSpaceOnUse">
<stop stop-color="white"/>
<stop offset="1" stop-color="white" stop-opacity="0"/>
</linearGradient>
<linearGradient id="paint1_linear" x1="16.0949" y1="18.4917" x2="16.0949" y2="27.041" gradientUnits="userSpaceOnUse">
<stop stop-color="white"/>
<stop offset="1" stop-color="white" stop-opacity="0"/>
</linearGradient>
<linearGradient id="paint2_linear" x1="12.2737" y1="16.9229" x2="12.2737" y2="18.864" gradientUnits="userSpaceOnUse">
<stop stop-color="white"/>
<stop offset="1" stop-color="white" stop-opacity="0"/>
</linearGradient>
<linearGradient id="paint3_linear" x1="20.3369" y1="15.8777" x2="20.3369" y2="17.8188" gradientUnits="userSpaceOnUse">
<stop stop-color="white"/>
<stop offset="1" stop-color="white" stop-opacity="0"/>
</linearGradient>
<linearGradient id="paint4_linear" x1="18.3708" y1="27.6985" x2="18.3708" y2="29.6396" gradientUnits="userSpaceOnUse">
<stop stop-color="white"/>
<stop offset="1" stop-color="white" stop-opacity="0"/>
</linearGradient>
<clipPath id="clip0">
<rect width="33" height="33" fill="white" transform="matrix(-1 0 0 1 33 0)"/>
</clipPath>
</defs>
</svg>
