<svg width="33" height="33" viewBox="0 0 33 33" fill="none" xmlns="http://www.w3.org/2000/svg">
<path d="M31.9001 27.5944V6.05005C31.8998 5.99088 31.8902 5.93219 31.8716 5.87621L30.8 2.66138V0.550001C30.8 0.404153 30.7421 0.264195 30.639 0.161072C30.5359 0.0579481 30.3959 0 30.25 0H10.45C10.1463 0 9.9 0.246275 9.9 0.550001V2.66138L8.82848 5.87621C8.80982 5.93219 8.80024 5.99088 8.79999 6.05005V17.6478C7.80188 17.5246 6.79076 17.7343 5.92402 18.2445L2.96998 20.02C1.88249 20.679 1.18861 21.8306 1.11425 23.1H0.550001C0.246275 23.1 0 23.3462 0 23.65V27.555C0.000736624 28.7127 0.406611 29.8336 1.1474 30.7236L1.55818 31.2186C2.49733 32.3488 3.89125 33.0017 5.3608 33H30.2498C30.9788 32.999 31.6778 32.709 32.1934 32.1937C32.7088 31.678 32.9988 30.979 32.9998 30.25V29.15C32.9993 28.8089 32.8934 28.4762 32.6965 28.1976C32.4996 27.9191 32.2212 27.7082 31.8998 27.594L31.9001 27.5944ZM11 1.10004H29.7001V2.20004H11V1.10004ZM3.53571 20.9598L6.49026 19.1878C7.02381 18.8745 7.63149 18.7092 8.25026 18.7092C8.86903 18.7092 9.47673 18.8745 10.0103 19.1878L12.9648 20.9598C13.7248 21.4192 14.2181 22.215 14.2914 23.0999H2.20898C2.2824 22.215 2.77568 21.4192 3.53559 20.9598H3.53571ZM16.4937 23.6175C16.4785 23.328 16.2401 23.1009 15.9504 23.0999H15.3861C15.3142 21.8825 14.6714 20.7707 13.6524 20.1006C12.8505 17.9596 13.1191 15.5644 14.3755 13.654C15.6316 11.7437 17.7246 10.5482 20.0083 10.4365C22.2921 10.3247 24.4918 11.31 25.9287 13.0885C27.3656 14.8669 27.8668 17.2245 27.2777 19.4339C26.6887 21.643 25.0802 23.4381 22.9487 24.2651C20.8169 25.092 18.4185 24.8514 16.4939 23.6176L16.4937 23.6175ZM10.4503 31.9002H5.36109C4.21809 31.9019 3.1338 31.3936 2.40384 30.5141L1.99306 30.0191C1.41678 29.3272 1.10105 28.4555 1.10029 27.5552V24.2002H15.4003V27.5552C15.3996 28.4555 15.0838 29.3272 14.5076 30.0191L14.0968 30.5141C13.3666 31.3936 12.2825 31.9016 11.1395 31.9002H10.4503ZM31.9004 30.2502C31.9004 30.6877 31.7265 31.1076 31.4172 31.4169C31.1078 31.7262 30.6879 31.9001 30.2504 31.9001H14.2457C14.5001 31.6963 14.7338 31.4685 14.9437 31.2193L15.3545 30.7243C16.0948 29.834 16.5002 28.7128 16.5006 27.5551V24.8926C18.7362 26.0797 21.3919 26.1797 23.7104 25.1641C26.0292 24.1486 27.7563 22.1288 28.3998 19.6806C29.0431 17.2326 28.5322 14.6245 27.0126 12.6003C25.4929 10.5761 23.1311 9.35727 20.6011 9.29171C18.0706 9.22615 15.6489 10.321 14.0263 12.2639C12.4038 14.2068 11.7585 16.7847 12.2744 19.2631L10.5765 18.2451V18.2449C10.3609 18.1184 10.1347 18.0106 9.9005 17.9232V6.13935L10.8471 3.30021H29.8538L30.8004 6.13935V28.0501C30.8004 28.196 30.8584 28.3359 30.9615 28.4391C31.0646 28.5422 31.2046 28.6001 31.3504 28.6001C31.4963 28.6001 31.6362 28.6581 31.7393 28.7612C31.8425 28.8643 31.9004 29.0043 31.9004 29.1501L31.9004 30.2502Z" fill="white"/>
<path d="M20.9 23.1001V22.0001C21.7923 22.0433 22.6674 21.7433 23.3453 21.1613C24.4222 20.0849 24.1605 18.1837 24.1482 18.1034C24.1133 17.8626 23.9243 17.6733 23.6836 17.6382C23.6726 17.6382 23.6242 17.6298 23.551 17.6227C24.3853 16.5266 24.1592 14.8776 24.1484 14.8034H24.1482C24.1133 14.5625 23.9243 14.3732 23.6836 14.3381C23.2891 14.2905 22.8906 14.2905 22.4959 14.3381C22.1988 13.2712 21.5612 12.3308 20.6799 11.6601C20.4845 11.5135 20.2154 11.5135 20.0199 11.6601C19.9512 11.7119 18.4927 12.8205 18.2049 14.3369C17.8059 14.2883 17.4022 14.2883 17.0033 14.3369C16.7622 14.372 16.5729 14.5613 16.538 14.8022C16.527 14.8764 16.3016 16.5254 17.1354 17.6215C17.0622 17.6286 17.0143 17.6352 17.0033 17.637C16.7622 17.6721 16.5729 17.8614 16.538 18.1022C16.5265 18.1825 16.263 20.0822 17.3409 21.1601V21.1604C18.0228 21.7447 18.903 22.0453 19.7999 22.0001V23.1001C19.7999 23.4038 20.0462 23.6501 20.3499 23.6501C20.6536 23.6501 20.8999 23.4038 20.8999 23.1001L20.9 23.1001ZM22.5677 20.3825C22.0933 20.7525 21.5004 20.9364 20.9 20.9001V20.5993C20.9042 20.0945 21.082 19.6064 21.4034 19.2172C21.8822 18.845 22.4811 18.6611 23.0863 18.7001C23.1248 19.3056 22.9404 19.904 22.5677 20.3826L22.5677 20.3825ZM23.0868 15.4001C23.1256 16.0058 22.9409 16.6049 22.5677 17.0837C22.0933 17.4532 21.5004 17.6369 20.9 17.6001V17.5929C20.9 17.5318 20.9 17.4687 20.8961 17.4014C20.8851 16.862 21.0653 16.3358 21.4049 15.9164C21.8837 15.5449 22.4815 15.3613 23.0863 15.4001L23.0868 15.4001ZM20.35 12.8283C20.8848 13.2963 21.2615 13.9188 21.4279 14.6097C21.1296 14.734 20.8575 14.9139 20.6267 15.1398C20.5214 15.2471 20.4269 15.364 20.3439 15.4892C20.2611 15.364 20.1663 15.2471 20.0613 15.1398C19.8339 14.9176 19.5667 14.7401 19.2736 14.6163C19.4361 13.9222 19.8125 13.2966 20.35 12.8284L20.35 12.8283ZM17.6 15.4001C18.2053 15.3615 18.8039 15.5459 19.2825 15.9186C19.622 16.338 19.802 16.8642 19.7907 17.4036C19.7907 17.4734 19.7868 17.5394 19.7868 17.6028C19.186 17.6396 18.592 17.4555 18.1176 17.0847C17.7446 16.6054 17.5605 16.0061 17.6 15.4001V15.4001ZM17.6 18.7001C18.2053 18.6615 18.8039 18.8459 19.2825 19.2187C19.622 19.638 19.802 20.1642 19.7907 20.7037C19.7907 20.7734 19.7868 20.8394 19.7868 20.9028C19.186 20.9396 18.592 20.7555 18.1176 20.3847C17.7446 19.9054 17.5605 19.3061 17.6 18.7001V18.7001Z" fill="white"/>
</svg>
