<?xml version="1.0"?>
<svg xmlns="http://www.w3.org/2000/svg" xmlns:xlink="http://www.w3.org/1999/xlink" xmlns:svgjs="http://svgjs.com/svgjs" version="1.1" width="512" height="512" x="0" y="0" viewBox="0 0 512 512" style="enable-background:new 0 0 512 512" xml:space="preserve"><g>
<g xmlns="http://www.w3.org/2000/svg">
	<g>
		<g>
			<path d="M475.684,126.824c-4.132-0.431-7.805,2.57-8.23,6.689c-1.428,13.833-6.285,26.531-13.696,37.317V79.86     c5.928,8.603,10.238,18.419,12.451,29.065c0.844,4.055,4.815,6.663,8.869,5.816c4.055-0.843,6.66-4.813,5.816-8.869     c-9.245-44.472-49.327-76.75-95.306-76.75c-53.645,0-97.29,43.116-97.29,96.112c0,52.997,43.644,96.113,97.29,96.113     c24.198,0,47.406-8.866,65.35-24.965c17.842-16.007,29.006-37.788,31.436-61.33C482.8,130.931,479.805,127.246,475.684,126.824z      M438.758,64.287v122.977c-14.371,11.958-32.952,19.082-53.169,19.082c-45.375,0-82.29-36.388-82.29-81.113     c0-44.725,36.915-81.112,82.29-81.112c20.022,0,38.717,7.215,53.214,19.338C438.773,63.73,438.758,64.007,438.758,64.287z" fill="#ffffff" data-original="#000000" style=""/>
			<path d="M334.885,125.233c0-13.377,5.257-25.94,14.802-35.377c2.946-2.912,2.972-7.66,0.06-10.606     c-2.912-2.945-7.661-2.972-10.606-0.06c-12.416,12.275-19.255,28.627-19.255,46.042c0,17.416,6.838,33.769,19.255,46.045     c1.462,1.445,3.368,2.167,5.273,2.167c1.934,0,3.866-0.743,5.333-2.227c2.912-2.945,2.886-7.694-0.06-10.606     C340.142,151.173,334.885,138.609,334.885,125.233z" fill="#ffffff" data-original="#000000" style=""/>
			<path d="M97.07,424.902c0,4.143,3.358,7.5,7.5,7.5h223.264c4.143,0,7.5-3.357,7.5-7.5s-3.357-7.5-7.5-7.5h-31.328V381.22     c0-6.812-5.542-12.354-12.354-12.354h-19.414c-6.812,0-12.354,5.542-12.354,12.354v36.182h-14.121v-94.424     c0-6.812-5.542-12.354-12.354-12.354h-19.414c-6.812,0-12.354,5.542-12.354,12.354v94.424H180.02v-55.596     c0-6.812-5.542-12.354-12.354-12.354h-19.414c-6.812,0-12.354,5.542-12.354,12.354v55.596H112.07v-99.277     c0-4.143-3.358-7.5-7.5-7.5c-4.142,0-7.5,3.357-7.5,7.5V424.902z M267.383,383.867h14.121v33.535h-14.121V383.867z      M209.141,325.625h14.121v91.777h-14.121V325.625z M150.898,364.453h14.121v52.949h-14.121V364.453z" fill="#ffffff" data-original="#000000" style=""/>
			<path d="M104.57,247.969h165.02c4.143,0,7.5-3.357,7.5-7.5s-3.357-7.5-7.5-7.5H104.57c-4.142,0-7.5,3.357-7.5,7.5     C97.07,244.611,100.428,247.969,104.57,247.969z" fill="#ffffff" data-original="#000000" style=""/>
			<path d="M104.57,160.605h38.828c4.142,0,7.5-3.357,7.5-7.5s-3.358-7.5-7.5-7.5H104.57c-4.142,0-7.5,3.357-7.5,7.5     S100.428,160.605,104.57,160.605z" fill="#ffffff" data-original="#000000" style=""/>
			<path d="M104.57,218.848h135.898c4.142,0,7.5-3.357,7.5-7.5s-3.358-7.5-7.5-7.5H104.57c-4.142,0-7.5,3.357-7.5,7.5     S100.428,218.848,104.57,218.848z" fill="#ffffff" data-original="#000000" style=""/>
			<path d="M104.57,82.949h116.484c4.142,0,7.5-3.357,7.5-7.5s-3.358-7.5-7.5-7.5H104.57c-4.142,0-7.5,3.357-7.5,7.5     S100.428,82.949,104.57,82.949z" fill="#ffffff" data-original="#000000" style=""/>
			<path d="M512,125.233C512,56.18,455.292,0,385.589,0c-24.918,0-48.179,7.182-67.779,19.562c-0.481-0.097-0.98-0.148-1.491-0.148     H36.621C16.428,19.414,0,35.842,0,56.035v77.656c0,4.143,3.358,7.5,7.5,7.5h50.742v312.833c0,9.488,7.719,17.207,17.207,17.207     h252.52c4.143,0,7.5-3.357,7.5-7.5s-3.357-7.5-7.5-7.5H75.449c-1.217,0-2.207-0.99-2.207-2.207V56.036     c0-8.08-2.631-15.558-7.08-21.621h232.474c-24.292,22.836-39.458,55.103-39.458,90.819c0,61.602,45.125,112.959,104.351,123.325     l-0.005,72.775c-8.817,2.797-15.219,11.007-15.219,20.674v1.041c0,6.369,2.777,12.106,7.193,16.082     c-4.648,19.128-7.193,43.125-7.193,68.068c0,20.804,1.757,40.963,5.079,58.299C356.327,500.854,369.872,512,385.589,512     c15.718,0,29.262-11.146,32.205-26.502c0.876-4.574,1.644-9.342,2.299-14.268h16.458c9.488,0,17.207-7.719,17.207-17.207V255.026     c0-4.143-3.357-7.5-7.5-7.5s-7.5,3.357-7.5,7.5v198.998c0,1.217-0.99,2.207-2.207,2.207H421.7     c0.776-9.375,1.173-19.13,1.173-29.031c0-24.938-2.545-48.937-7.191-68.063c4.415-3.971,7.191-9.707,7.191-16.073v-1.041     c0-9.673-6.407-17.889-15.229-20.687l0.005-72.777C466.875,238.192,512,186.836,512,125.233z M58.242,126.191H15V56.035     c0-11.922,9.699-21.621,21.621-21.621s21.621,9.699,21.621,21.621V126.191z M403.063,482.674     C401.472,490.975,394.124,497,385.59,497s-15.882-6.025-17.473-14.326c-3.148-16.42-4.812-35.603-4.812-55.475     c0-22.886,2.215-44.808,6.276-62.447c0.199,0.005,0.398,0.008,0.597,0.008h30.837c0.194,0,0.389-0.003,0.582-0.008     c4.06,17.638,6.276,39.564,6.276,62.447C407.873,447.071,406.209,466.254,403.063,482.674z M407.873,342.023v1.041     c0,3.692-3.076,6.696-6.858,6.696h-30.837c-3.79,0-6.873-3.011-6.873-6.711v-1.041c0-3.692,3.076-6.696,6.858-6.696H401     C404.79,335.312,407.873,338.322,407.873,342.023z M378.524,320.312l0.005-70.037c4.676,0.258,9.445,0.258,14.121,0     l-0.005,70.037H378.524z M385.589,235.467c-61.432,0-111.411-49.451-111.411-110.234C274.178,64.45,324.157,15,385.589,15     S497,64.45,497,125.233C497,186.017,447.021,235.467,385.589,235.467z" fill="#ffffff" data-original="#000000" style=""/>
			<path d="M104.57,112.07h77.656c4.142,0,7.5-3.357,7.5-7.5s-3.358-7.5-7.5-7.5H104.57c-4.142,0-7.5,3.357-7.5,7.5     S100.428,112.07,104.57,112.07z" fill="#ffffff" data-original="#000000" style=""/>
			<path d="M104.57,277.09h135.898c4.142,0,7.5-3.357,7.5-7.5s-3.358-7.5-7.5-7.5H104.57c-4.142,0-7.5,3.357-7.5,7.5     S100.428,277.09,104.57,277.09z" fill="#ffffff" data-original="#000000" style=""/>
		</g>
	</g>
</g>
<g xmlns="http://www.w3.org/2000/svg">
</g>
<g xmlns="http://www.w3.org/2000/svg">
</g>
<g xmlns="http://www.w3.org/2000/svg">
</g>
<g xmlns="http://www.w3.org/2000/svg">
</g>
<g xmlns="http://www.w3.org/2000/svg">
</g>
<g xmlns="http://www.w3.org/2000/svg">
</g>
<g xmlns="http://www.w3.org/2000/svg">
</g>
<g xmlns="http://www.w3.org/2000/svg">
</g>
<g xmlns="http://www.w3.org/2000/svg">
</g>
<g xmlns="http://www.w3.org/2000/svg">
</g>
<g xmlns="http://www.w3.org/2000/svg">
</g>
<g xmlns="http://www.w3.org/2000/svg">
</g>
<g xmlns="http://www.w3.org/2000/svg">
</g>
<g xmlns="http://www.w3.org/2000/svg">
</g>
<g xmlns="http://www.w3.org/2000/svg">
</g>
</g></svg>
