<svg width="29" height="33" viewBox="0 0 29 33" fill="none" xmlns="http://www.w3.org/2000/svg">
<path d="M25.5421 17.4852V14.1724L21.7518 8.92076V0H4.05665V8.92076L0.266357 14.1724V33H24.5753C26.8682 33 28.7337 31.099 28.7337 28.8061V21.529C28.7336 19.5689 27.3701 17.9224 25.5421 17.4852ZM26.8 21.529V24.2007H22.3505V21.529C22.3505 20.3022 23.3485 19.3042 24.5753 19.3042C25.8021 19.3042 26.8 20.3022 26.8 21.529ZM20.2905 10.2L22.6852 13.5181H3.12318L5.51793 10.2H20.2905ZM23.6085 15.4517V17.4853C21.7805 17.9224 20.4169 19.5689 20.4169 21.529V25.7793H2.19995V15.4517H23.6085ZM5.99025 1.95151H19.8182V8.26644H17.7848V4.6064H15.8512V8.26644H13.871V4.6064H11.9374V8.26644H9.95721V4.6064H8.02361V8.26644H5.99025V1.95151ZM2.19995 27.7128H20.417V28.8061C20.417 29.6241 20.6553 30.3869 21.0649 31.0308H2.19995V27.7128ZM24.5753 31.0308C23.3486 31.0308 22.3505 30.0328 22.3505 28.8061V26.1343H26.8V28.8061C26.8 30.0328 25.802 31.0308 24.5753 31.0308Z" fill="white"/>
<path d="M25.5421 17.4852V14.1724L21.7518 8.92076V0H4.05665V8.92076L0.266357 14.1724V33H24.5753C26.8682 33 28.7337 31.099 28.7337 28.8061V21.529C28.7336 19.5689 27.3701 17.9224 25.5421 17.4852ZM26.8 21.529V24.2007H22.3505V21.529C22.3505 20.3022 23.3485 19.3042 24.5753 19.3042C25.8021 19.3042 26.8 20.3022 26.8 21.529ZM20.2905 10.2L22.6852 13.5181H3.12318L5.51793 10.2H20.2905ZM23.6085 15.4517V17.4853C21.7805 17.9224 20.4169 19.5689 20.4169 21.529V25.7793H2.19995V15.4517H23.6085ZM5.99025 1.95151H19.8182V8.26644H17.7848V4.6064H15.8512V8.26644H13.871V4.6064H11.9374V8.26644H9.95721V4.6064H8.02361V8.26644H5.99025V1.95151ZM2.19995 27.7128H20.417V28.8061C20.417 29.6241 20.6553 30.3869 21.0649 31.0308H2.19995V27.7128ZM24.5753 31.0308C23.3486 31.0308 22.3505 30.0328 22.3505 28.8061V26.1343H26.8V28.8061C26.8 30.0328 25.802 31.0308 24.5753 31.0308Z" fill="url(#paint0_linear)"/>
<path d="M9.41553 21.5822H11.9374V24.1041H13.871V21.5822H16.3929V19.6486H13.871V17.1267H11.9374V19.6486H9.41553V21.5822Z" fill="white"/>
<path d="M9.41553 21.5822H11.9374V24.1041H13.871V21.5822H16.3929V19.6486H13.871V17.1267H11.9374V19.6486H9.41553V21.5822Z" fill="url(#paint1_linear)"/>
<defs>
<linearGradient id="paint0_linear" x1="14.5" y1="0" x2="14.5" y2="33" gradientUnits="userSpaceOnUse">
<stop stop-color="white"/>
<stop offset="1" stop-color="white" stop-opacity="0"/>
</linearGradient>
<linearGradient id="paint1_linear" x1="12.9042" y1="17.1267" x2="12.9042" y2="24.1041" gradientUnits="userSpaceOnUse">
<stop stop-color="white"/>
<stop offset="1" stop-color="white" stop-opacity="0"/>
</linearGradient>
</defs>
</svg>
