<svg width="16" height="33" viewBox="0 0 16 33" fill="none" xmlns="http://www.w3.org/2000/svg">
<path d="M12.0529 6.52141C11.653 5.79168 11.4163 4.98042 11.3543 4.15344C12.0026 4.08737 12.5111 3.54012 12.5111 2.87241V1.28484C12.5111 0.574592 11.9327 0 11.2263 0H4.25825C3.548 0 2.97341 0.578391 2.97341 1.28484V2.87241C2.97341 3.54015 3.48193 4.08738 4.13022 4.15344C4.06821 4.98042 3.83128 5.79168 3.43161 6.52141L1.13352 10.7218C0.392143 12.0765 0 13.6099 0 15.155V30.8573C0 32.0374 0.962646 33 2.14268 33H13.3344C14.5144 33 15.477 32.0374 15.477 30.8573V15.155C15.477 13.6099 15.085 12.0768 14.3435 10.7218L12.0529 6.52141ZM3.83089 2.87643V1.28886C3.83089 1.0522 4.02504 0.86184 4.25792 0.86184H11.226C11.4626 0.86184 11.653 1.05599 11.653 1.28886V2.87643C11.653 3.11309 11.4588 3.30345 11.226 3.30345H4.25792C4.02504 3.30345 3.83089 3.11309 3.83089 2.87643ZM14.6268 30.8574C14.6268 31.5676 14.0484 32.1422 13.3419 32.1422H2.15023C1.43998 32.1422 0.86539 31.5638 0.86539 30.8574V18.4699C1.39341 18.8853 2.13103 19.2154 3.043 19.4404C3.92032 19.6538 4.9179 19.7626 5.97773 19.7626C6.78517 19.7626 7.62761 19.7006 8.4738 19.5725C9.96064 19.3513 11.3619 18.9438 12.5225 18.4003C13.4077 17.985 14.1217 17.5076 14.6265 16.9912L14.6268 30.8574ZM14.3357 16.0049C13.9436 16.5755 13.171 17.1501 12.1581 17.6237C11.0711 18.1322 9.75135 18.5126 8.34603 18.7223C6.49824 18.9979 4.68913 18.9589 3.24506 18.6058C2.33281 18.3846 1.63011 18.0469 1.21884 17.647C4.3087 17.6316 6.81669 16.9094 9.04436 16.2649C11.063 15.6827 12.8215 15.1742 14.6227 15.2828C14.6032 15.5159 14.506 15.7564 14.3354 16.0049L14.3357 16.0049ZM8.8077 15.442C6.54829 16.094 4.00189 16.8278 0.865722 16.7891V15.155C0.865722 13.7537 1.22288 12.3637 1.89443 11.1333L4.19252 6.93295C4.65827 6.07893 4.9339 5.13174 4.99622 4.16126H10.5006C10.5626 5.12793 10.8383 6.07893 11.3043 6.93295L13.6024 11.1333C14.1575 12.1504 14.4952 13.276 14.5962 14.4252C12.6704 14.328 10.7877 14.8676 8.80798 15.442H8.8077Z" fill="white"/>
</svg>
