<svg width="17" height="31" viewBox="0 0 17 31" fill="none" xmlns="http://www.w3.org/2000/svg">
<path fill-rule="evenodd" clip-rule="evenodd" d="M13.5013 30.9999H3.49866C1.56935 30.9999 0 29.5772 0 27.8269V13.9314C0 13.1314 0.84562 11.2707 2.23404 8.30151C3.03776 6.59122 4.13097 4.25053 4.14239 3.7782C4.14239 3.54204 3.74434 3.1078 3.4758 2.82021C3.02252 2.33075 2.554 1.82223 2.8473 1.24325C3.12917 0.683311 3.90242 0.605225 4.70233 0.605225H12.2881C13.2976 0.612843 14.0213 0.730925 14.2936 1.27943C14.5755 1.86032 14.0898 2.37836 13.6613 2.83736C13.3966 3.11732 12.9985 3.54013 12.9985 3.7763C13.0024 4.25244 14.0689 6.62169 14.8555 8.34912C16.1906 11.2916 17 13.1372 17 13.9294V27.825C17 29.5772 15.4268 30.9999 13.5013 30.9999ZM4.75185 2.54025C5.16895 3.00115 5.61461 3.65441 5.61461 4.32862C5.61461 4.9895 4.99754 6.44838 3.77672 9.10142C2.92158 10.9507 1.7598 13.48 1.7598 14.0532V27.467C1.7598 28.4821 2.66446 29.3068 3.7691 29.3068H13.2214C14.3336 29.3068 15.2364 28.4821 15.2364 27.467V14.0532C15.2364 13.48 14.1184 10.9698 13.2976 9.13951C12.1472 6.54742 11.3721 4.98569 11.3721 4.31909C11.3721 3.63727 11.9606 3.00686 12.3834 2.54786C12.4138 2.51168 12.2386 2.41835 12.0653 2.41835H4.91183C4.81089 2.41835 4.71947 2.50216 4.75185 2.54025Z" fill="#D9DDDD"/>
<path fill-rule="evenodd" clip-rule="evenodd" d="M13.17 25.4919C13.17 26.827 12.1777 27.1813 10.9531 27.1813H6.0698C4.84517 27.1813 3.8548 26.827 3.8548 25.4919V13.0095C3.8548 11.6744 5.05467 15.9311 7.63533 13.9123C10.2179 11.9011 13.17 11.6744 13.17 13.0095V25.4919Z" fill="#D9DDDD"/>
</svg>
