<svg width="34" height="33" viewBox="0 0 34 33" fill="none" xmlns="http://www.w3.org/2000/svg">
<path d="M8.0046 28.6952C8.0046 28.9437 7.85483 29.1679 7.62523 29.263C7.39563 29.3582 7.13118 29.3056 6.95562 29.1297C6.77978 28.9542 6.72739 28.6897 6.82231 28.4601C6.91749 28.2305 7.14161 28.0807 7.39014 28.0807C7.55308 28.0807 7.70944 28.1455 7.82465 28.261C7.93986 28.3762 8.0046 28.5323 8.0046 28.6952ZM10.4583 25.6308C10.2114 25.6308 9.9887 25.7795 9.89406 26.0077C9.79941 26.236 9.85154 26.4985 10.0263 26.6732C10.201 26.848 10.4635 26.9003 10.6918 26.8057C10.92 26.7113 11.0687 26.4886 11.0687 26.2414C11.0687 25.9043 10.7955 25.6311 10.4583 25.6308V25.6308ZM13.5364 28.0843C13.2879 28.0843 13.0638 28.2341 12.9689 28.4637C12.8737 28.6933 12.9261 28.9575 13.1019 29.1333C13.2777 29.3092 13.5419 29.3615 13.7715 29.2663C14.0011 29.1714 14.1509 28.9473 14.1509 28.6988C14.1509 28.5358 14.0861 28.3795 13.9709 28.2643C13.8557 28.1491 13.6994 28.0843 13.5364 28.0843ZM16.6087 25.6265C16.3602 25.6265 16.1361 25.7762 16.0412 26.0058C15.946 26.2354 15.9984 26.4996 16.1742 26.6754C16.3501 26.8513 16.6142 26.9037 16.8438 26.8085C17.0734 26.7136 17.2232 26.4895 17.2232 26.2409C17.2232 26.078 17.1585 25.9216 17.0433 25.8064C16.9281 25.6912 16.7717 25.6265 16.6087 25.6265ZM19.6811 28.0843C19.4326 28.0843 19.2084 28.2341 19.1135 28.4637C19.0183 28.6933 19.0707 28.9575 19.2466 29.1333C19.4224 29.3092 19.6866 29.3615 19.9162 29.2663C20.1458 29.1714 20.2955 28.9473 20.2955 28.6988C20.2955 28.5358 20.2308 28.3795 20.1156 28.2643C20.0004 28.1491 19.844 28.0843 19.6811 28.0843ZM31.3686 14.21V25.9151C31.3626 27.2343 30.7061 28.4656 29.6144 29.2057C29.5916 29.2214 29.5677 29.2354 29.5431 29.2477L23.0593 32.5077L23.0588 32.5063L23.0585 32.5066C22.4531 32.8314 21.7766 33.0009 21.0898 32.9998H5.95774C4.88077 33.0102 3.84362 32.5933 3.07389 31.84C2.30387 31.087 1.86441 30.0591 1.85128 28.9825V16.5428C0.31209 14.6707 -0.312279 12.2095 0.148325 9.82978C0.570221 7.43034 2.06497 4.71187 6.29299 3.28104L6.29107 3.27583C6.90856 3.02922 21.4695 -2.69054 28.7138 1.57646L28.7237 1.58112V1.5814C31.0309 2.69046 32.6522 4.85535 33.067 7.38154C33.5286 9.79664 32.9076 12.2926 31.3684 14.2098L31.3686 14.21ZM21.0898 31.7711C21.8408 31.7818 22.5654 31.4943 23.1049 30.9715C23.6442 30.4489 23.9542 29.7335 23.967 28.9827V16.2966C23.967 16.132 24.0332 15.974 24.1503 15.8585C25.5309 14.2631 26.0985 12.1202 25.6886 10.0504C24.9255 5.70775 20.8327 3.50557 13.5236 3.50557C11.2775 3.45427 9.03686 3.74477 6.87801 4.36667C6.80422 4.39492 6.75265 4.41495 6.74552 4.41769L6.74141 4.40699C3.64492 5.42686 1.83909 7.30924 1.35882 10.0425L1.35854 10.0428C0.947891 12.115 1.51545 14.2609 2.89689 15.8591C3.0143 15.9746 3.08013 16.132 3.08013 16.2966V28.9827C3.09303 29.7335 3.40328 30.449 3.94256 30.9715C4.48187 31.4943 5.20661 31.7818 5.95766 31.7711L21.0898 31.7711ZM30.1397 25.9153V14.8549L25.196 16.8324V28.9827C25.196 29.3775 25.1362 29.7703 25.0188 30.1472L28.9525 28.1696C29.6912 27.6559 30.1339 26.8151 30.1397 25.9153H30.1397ZM31.8571 7.59506L31.8569 7.59478C31.5025 5.46171 30.1352 3.63313 28.1892 2.69001C28.1667 2.67986 28.1445 2.66834 28.1226 2.65572C24.4643 0.473835 18.4863 1.17938 13.7799 2.28045C23.525 2.3515 26.2981 6.41908 26.8986 9.83804H26.8988C27.222 11.637 26.957 13.4922 26.1428 15.1285L30.4262 13.4151H30.4265C31.7323 11.7778 32.2551 9.65047 31.8568 7.59443L31.8571 7.59506Z" fill="white"/>
</svg>
