<?xml version="1.0" encoding="utf-8"?>
<!-- Generator: Adobe Illustrator 24.0.0, SVG Export Plug-In . SVG Version: 6.00 Build 0)  -->
<svg version="1.1" id="Layer_1" xmlns="http://www.w3.org/2000/svg" xmlns:xlink="http://www.w3.org/1999/xlink" x="0px" y="0px"
	 viewBox="0 0 192 192" style="enable-background:new 0 0 192 192;" xml:space="preserve">
<style type="text/css">
	.st0{fill:none;}
	.st1{fill:none;stroke:#FFFFFF;stroke-width:12;stroke-linecap:round;stroke-linejoin:round;stroke-miterlimit:3;}
	.st2{fill:#FFFFFF;}
</style>
<rect y="0" class="st0" width="192" height="192"/>
<g>
	<g>
		<path class="st1" d="M36,36h120c3.3,0,6,2.7,6,6v120c0,3.3-2.7,6-6,6H36c-3.3,0-6-2.7-6-6V42C30,38.7,32.7,36,36,36z"/>
		<line class="st1" x1="132" y1="24" x2="132" y2="48"/>
		<line class="st1" x1="60" y1="24" x2="60" y2="48"/>
	</g>
	<path class="st2" d="M121.2,74.4c-1.2-0.8-2.3-1.2-3.4-0.9c-1.1,0.2-2,0.9-2.7,2.1l-19.5,29.8L76.9,75.5c-1.5-2.4-3.7-2.9-6.2-1.4
		c-2.4,1.6-2.8,3.8-1.4,6.3L91,115v19.2c0,2.9,1.6,4.5,4.5,4.5c2.9,0,4.5-1.6,4.5-4.5V115l22.5-34.5c0.8-1.2,1.1-2.3,0.9-3.3
		C123.2,76.1,122.4,75.1,121.2,74.4z"/>
</g>
</svg>
