<svg width="50" height="60" viewBox="0 0 50 60" fill="none" xmlns="http://www.w3.org/2000/svg">
<path d="M39.2286 29.6998C37.0079 31.9206 33.2326 31.9206 31.0119 29.6998C29.9015 28.5895 29.2354 27.257 29.2354 25.7025V23.0376C29.2354 19.9286 31.9002 17.2637 35.0093 17.2637C36.5638 17.2637 37.8962 17.93 39.0066 19.0403" stroke="white" stroke-width="2" stroke-miterlimit="10" stroke-linecap="round" stroke-linejoin="round"/>
<path d="M27.4587 22.3716H35.2313" stroke="white" stroke-width="2" stroke-miterlimit="10" stroke-linecap="round" stroke-linejoin="round"/>
<path d="M27.4587 25.4804H33.8989" stroke="white" stroke-width="2" stroke-miterlimit="10" stroke-linecap="round" stroke-linejoin="round"/>
<path d="M14.9534 24.4418C19.3831 24.4418 23.5913 26.6392 26.0276 29.9353C27.7995 32.3525 28.907 35.2091 28.907 38.5052C28.907 46.1961 22.7054 52.3488 14.9534 52.3488C7.20152 52.3488 1 46.1961 1 38.5052C1 30.8143 7.20152 24.4418 14.9534 24.4418Z" stroke="white" stroke-width="2" stroke-miterlimit="10" stroke-linecap="round" stroke-linejoin="round"/>
<path d="M19.9767 23.8837C19.9767 16.1318 26.1782 9.93024 33.9301 9.93024C41.6821 9.93024 47.8836 16.1318 47.8836 23.8837C47.8836 31.6356 41.6821 37.8372 33.9301 37.8372C32.1583 37.8372 30.6079 37.6157 29.0575 36.9513" stroke="white" stroke-width="2" stroke-miterlimit="10" stroke-linecap="round" stroke-linejoin="round"/>
<path d="M15.2449 30.3661V32.5868" stroke="white" stroke-width="2" stroke-miterlimit="10" stroke-linecap="round" stroke-linejoin="round"/>
<path d="M15.2449 44.1345V46.3553" stroke="white" stroke-width="2" stroke-miterlimit="10" stroke-linecap="round" stroke-linejoin="round"/>
<path d="M11.9137 44.1346H17.0214C18.5759 44.1346 19.9083 42.8022 19.9083 41.2476C19.9083 39.6931 18.5759 38.3607 17.0214 38.3607H13.4682C11.9137 38.3607 10.5813 37.0283 10.5813 35.4737C10.5813 33.9192 11.9137 32.5868 13.4682 32.5868H18.5759" stroke="white" stroke-width="2" stroke-miterlimit="10" stroke-linecap="round" stroke-linejoin="round"/>
<path d="M15.9111 14.1548L9.69301 17.93L6.13989 11.4899" stroke="white" stroke-width="2" stroke-miterlimit="10" stroke-linecap="round" stroke-linejoin="round"/>
<path d="M28.1251 1.49663C21.0188 -0.502033 13.6904 3.71736 11.6917 10.8237L9.69299 17.93" stroke="white" stroke-width="2" stroke-miterlimit="10" stroke-linecap="round" stroke-linejoin="round"/>
<path d="M39.0067 45.0229L45.4468 41.4697L49 47.9099" stroke="white" stroke-width="2" stroke-miterlimit="10" stroke-linecap="round" stroke-linejoin="round"/>
<path d="M27.0148 57.9031C34.1211 59.9018 41.4495 55.6824 43.4482 48.5761L45.4468 41.4697" stroke="white" stroke-width="2" stroke-miterlimit="10" stroke-linecap="round" stroke-linejoin="round"/>
</svg>
