<?xml version="1.0" encoding="utf-8"?>
<!-- Generator: Adobe Illustrator 24.0.0, SVG Export Plug-In . SVG Version: 6.00 Build 0)  -->
<svg version="1.1" id="Layer_1" xmlns="http://www.w3.org/2000/svg" xmlns:xlink="http://www.w3.org/1999/xlink" x="0px" y="0px"
	 viewBox="0 0 192 192" style="enable-background:new 0 0 192 192;" xml:space="preserve">
<style type="text/css">
	.st0{fill:none;}
	.st1{fill:none;stroke:#FFFFFF;stroke-width:12;stroke-linecap:round;stroke-linejoin:round;stroke-miterlimit:3;}
	.st2{fill:#FFFFFF;}
</style>
<rect y="0" class="st0" width="192" height="192"/>
<g>
	<g>
		<path class="st1" d="M36,36h120c3.3,0,6,2.7,6,6v120c0,3.3-2.7,6-6,6H36c-3.3,0-6-2.7-6-6V42C30,38.7,32.7,36,36,36z"/>
		<line class="st1" x1="132" y1="24" x2="132" y2="48"/>
		<line class="st1" x1="60" y1="24" x2="60" y2="48"/>
	</g>
	<path class="st2" d="M118.1,132.2c0.3-0.2,0.6-0.5,0.8-0.8c3.5-3.5,5.3-9.1,5.3-16.4V93.2c0-7.4-1.8-12.9-5.3-16.5
		c-3.5-3.5-9.1-5.3-16.5-5.3H91.1c-7.3,0-12.8,1.7-16.4,5.2c-3.6,3.5-5.4,9.1-5.4,16.5V115c0,7.4,1.8,12.9,5.3,16.4
		c3.5,3.5,9.1,5.3,16.4,5.3h11.4c3.1,0,5.9-0.3,8.4-1l7.1,7.5c0.9,0.9,1.9,1.3,2.8,1.3c0.9,0,1.8-0.4,2.6-1.2
		c0.9-0.8,1.4-1.7,1.4-2.7c0-1-0.4-1.9-1.1-2.7L118.1,132.2z M102.5,127.8H91.1c-3.3,0-5.9-0.4-7.8-1.2c-1.8-0.8-3.1-2-3.8-3.8
		c-0.8-1.9-1.2-4.5-1.2-7.8V93.1c0-3.3,0.4-5.9,1.2-7.8c0.8-1.8,2-3.1,3.9-3.8c1.8-0.7,4.3-1.1,7.4-1.1c0.1,0,0.2,0,0.4,0h11.4
		c3.3,0,5.9,0.4,7.8,1.2c1.8,0.8,3.1,2,3.8,3.9c0.8,1.9,1.2,4.5,1.2,7.7V115c0,3.3-0.4,5.9-1.2,7.8c-0.5,1.2-1.2,2.2-2.2,2.9l-4.7-5
		c-1.8-1.7-3.8-1.8-5.5-0.1c-0.9,0.8-1.3,1.7-1.3,2.7c0,1,0.4,1.9,1.2,2.7l1.7,1.8C103,127.8,102.7,127.8,102.5,127.8z"/>
</g>
</svg>
