<?xml version="1.0"?>
<svg xmlns="http://www.w3.org/2000/svg" xmlns:xlink="http://www.w3.org/1999/xlink" xmlns:svgjs="http://svgjs.com/svgjs" version="1.1" width="512" height="512" x="0" y="0" viewBox="0 0 512 512" style="enable-background:new 0 0 512 512" xml:space="preserve" class=""><g><g xmlns="http://www.w3.org/2000/svg"><path d="m469.333 0h-426.666c-23.553.028-42.639 19.114-42.667 42.667v426.667c.028 23.552 19.114 42.638 42.667 42.666h426.667c23.552-.028 42.638-19.114 42.667-42.667v-426.666c-.029-23.553-19.115-42.639-42.668-42.667zm-426.666 17.067h426.667c14.138 0 25.6 11.462 25.6 25.6v25.6h-477.867v-25.6c0-14.139 11.461-25.6 25.6-25.6zm-25.6 452.266v-384h25.6v409.6c-14.139 0-25.6-11.461-25.6-25.6zm452.266 25.6h-409.6v-409.6h435.2v384c0 14.139-11.461 25.6-25.6 25.6z" fill="#ffffff" data-original="#000000" style="" class=""/><path d="m443.733 102.4h-173.508c-3.694-.007-7.289 1.191-10.24 3.413l-22.741 17.067c-7.541 5.655-9.069 16.353-3.413 23.893.97 1.294 2.12 2.443 3.413 3.413l22.758 17.067c2.951 2.222 6.546 3.421 10.24 3.413h173.491c14.138 0 25.6-11.462 25.6-25.6v-17.066c0-14.138-11.461-25.6-25.6-25.6zm8.534 42.667c0 4.713-3.821 8.533-8.533 8.533h-173.517l-22.75-17.067 22.758-17.067h173.508c4.713 0 8.533 3.82 8.533 8.533v17.068z" fill="#ffffff" data-original="#000000" style="" class=""/><path d="m443.733 204.8h-173.508c-3.694-.007-7.289 1.191-10.24 3.413l-22.741 17.067c-7.541 5.655-9.069 16.353-3.413 23.893.97 1.294 2.12 2.443 3.413 3.413l22.758 17.067c2.951 2.222 6.546 3.421 10.24 3.413h173.491c14.138 0 25.6-11.462 25.6-25.6v-17.066c0-14.138-11.461-25.6-25.6-25.6zm8.534 42.667c0 4.713-3.821 8.533-8.533 8.533h-173.517l-22.75-17.067 22.758-17.067h173.508c4.713 0 8.533 3.82 8.533 8.533v17.068z" fill="#ffffff" data-original="#000000" style="" class=""/><path d="m443.733 307.2h-173.508c-3.694-.007-7.289 1.191-10.24 3.413l-22.741 17.067c-7.541 5.655-9.069 16.353-3.413 23.893.97 1.294 2.12 2.443 3.413 3.413l22.758 17.067c2.951 2.222 6.546 3.421 10.24 3.413h173.491c14.138 0 25.6-11.462 25.6-25.6v-17.066c0-14.138-11.461-25.6-25.6-25.6zm8.534 42.667c0 4.713-3.821 8.533-8.533 8.533h-173.517l-22.75-17.067 22.758-17.067h173.508c4.713 0 8.533 3.82 8.533 8.533v17.068z" fill="#ffffff" data-original="#000000" style="" class=""/><path d="m443.733 409.6h-173.508c-3.694-.007-7.289 1.191-10.24 3.413l-22.741 17.067c-7.541 5.655-9.069 16.353-3.413 23.893.97 1.294 2.12 2.443 3.413 3.413l22.758 17.067c2.951 2.222 6.546 3.421 10.24 3.413h173.491c14.138 0 25.6-11.462 25.6-25.6v-17.066c0-14.138-11.461-25.6-25.6-25.6zm8.534 42.667c0 4.713-3.821 8.533-8.533 8.533h-173.517l-22.75-17.067 22.758-17.067h173.508c4.713 0 8.533 3.82 8.533 8.533v17.068z" fill="#ffffff" data-original="#000000" style="" class=""/><path d="m110.933 102.4c-18.851 0-34.133 15.282-34.133 34.133s15.282 34.133 34.133 34.133c6.074-.03 12.027-1.702 17.229-4.838l2.338 2.338c3.39 3.274 8.792 3.18 12.066-.21 3.194-3.307 3.194-8.55 0-11.856l-2.338-2.338c3.137-5.202 4.809-11.155 4.838-17.229.001-18.851-15.281-34.133-34.133-34.133zm0 51.2c-9.426 0-17.067-7.641-17.067-17.067s7.641-17.067 17.067-17.067 17.067 7.642 17.067 17.067c-.02 1.475-.235 2.942-.64 4.361l-1.86-1.86c-3.39-3.274-8.792-3.18-12.066.21-3.194 3.307-3.194 8.55 0 11.856l1.86 1.86c-1.419.405-2.885.62-4.361.64z" fill="#ffffff" data-original="#000000" style="" class=""/><path d="m110.933 204.8c-18.851 0-34.133 15.282-34.133 34.133s15.282 34.133 34.133 34.133c6.074-.03 12.027-1.702 17.229-4.838l2.338 2.338c3.39 3.274 8.792 3.18 12.066-.21 3.194-3.307 3.194-8.55 0-11.856l-2.338-2.338c3.137-5.202 4.809-11.155 4.838-17.229.001-18.851-15.281-34.133-34.133-34.133zm0 51.2c-9.426 0-17.067-7.641-17.067-17.067s7.641-17.067 17.067-17.067 17.067 7.642 17.067 17.067c-.02 1.475-.235 2.942-.64 4.361l-1.86-1.86c-3.39-3.274-8.792-3.18-12.066.21-3.194 3.307-3.194 8.55 0 11.856l1.86 1.86c-1.419.405-2.885.62-4.361.64z" fill="#ffffff" data-original="#000000" style="" class=""/><path d="m170.667 162.133c0 4.713 3.821 8.533 8.533 8.533h17.067c4.713 0 8.533-3.821 8.533-8.533 0-4.713-3.821-8.533-8.533-8.533v-42.667c-.001-4.713-3.822-8.533-8.535-8.532-2.262 0-4.431.899-6.031 2.498l-8.533 8.533c-3.332 3.333-3.331 8.736.002 12.068 1.6 1.599 3.769 2.498 6.031 2.498v25.6c-4.714.002-8.534 3.823-8.534 8.535z" fill="#ffffff" data-original="#000000" style="" class=""/><path d="m187.733 204.8c-14.138 0-25.6 11.462-25.6 25.6 0 4.713 3.821 8.533 8.533 8.533 4.713 0 8.533-3.821 8.533-8.533s3.821-8.533 8.533-8.533c4.713 0 8.533 3.82 8.533 8.533 0 10.965-11.648 17.604-29.414 26.453-4.242 2.054-6.016 7.157-3.962 11.399 1.441 2.976 4.471 4.851 7.776 4.814h34.135c4.713 0 8.533-3.82 8.533-8.533s-3.82-8.533-8.533-8.533h-3.772c7.743-6.248 12.263-15.65 12.305-25.6 0-14.138-11.461-25.6-25.6-25.6z" fill="#ffffff" data-original="#000000" style="" class=""/><path d="m110.933 307.2c-18.851 0-34.133 15.282-34.133 34.133s15.282 34.133 34.133 34.133c6.074-.03 12.027-1.702 17.229-4.838l2.338 2.338c3.39 3.274 8.792 3.18 12.066-.209 3.194-3.307 3.194-8.55 0-11.857l-2.338-2.338c3.137-5.202 4.809-11.155 4.838-17.229.001-18.851-15.281-34.133-34.133-34.133zm0 51.2c-9.426 0-17.067-7.641-17.067-17.067s7.641-17.067 17.067-17.067 17.067 7.642 17.067 17.067c-.02 1.475-.235 2.942-.64 4.361l-1.86-1.86c-3.39-3.274-8.792-3.181-12.066.209-3.194 3.307-3.194 8.55 0 11.857l1.86 1.86c-1.419.405-2.885.62-4.361.64z" fill="#ffffff" data-original="#000000" style="" class=""/><path d="m183.467 358.4h-12.8c-4.713 0-8.533 3.82-8.533 8.533s3.821 8.533 8.533 8.533h12.8c11.782 0 21.333-9.551 21.333-21.333 0-4.616-1.497-9.107-4.267-12.8 7.069-9.426 5.159-22.797-4.267-29.867-3.693-2.77-8.184-4.267-12.8-4.267h-12.8c-4.713 0-8.533 3.821-8.533 8.533 0 4.713 3.821 8.533 8.533 8.533h12.8c2.356 0 4.267 1.91 4.267 4.267s-1.91 4.267-4.267 4.267c-4.713 0-8.533 3.82-8.533 8.533s3.82 8.533 8.533 8.533c2.356 0 4.267 1.91 4.267 4.267s-1.91 4.268-4.266 4.268z" fill="#ffffff" data-original="#000000" style="" class=""/><path d="m110.933 409.6c-18.851 0-34.133 15.282-34.133 34.133s15.282 34.133 34.133 34.133c6.074-.03 12.027-1.702 17.229-4.838l2.338 2.338c3.39 3.274 8.792 3.181 12.066-.209 3.194-3.307 3.194-8.55 0-11.857l-2.338-2.338c3.137-5.202 4.809-11.155 4.838-17.229.001-18.851-15.281-34.133-34.133-34.133zm0 51.2c-9.426 0-17.067-7.641-17.067-17.067s7.641-17.067 17.067-17.067 17.067 7.642 17.067 17.067c-.02 1.475-.235 2.942-.64 4.361l-1.86-1.86c-3.39-3.274-8.792-3.18-12.066.209-3.194 3.307-3.194 8.55 0 11.857l1.86 1.86c-1.419.405-2.885.62-4.361.64z" fill="#ffffff" data-original="#000000" style="" class=""/><path d="m204.8 443.733h-20.326l10.94-21.786c2.107-4.218.395-9.345-3.823-11.452s-9.345-.395-11.452 3.823l-17.067 34.133c-2.107 4.216-.397 9.341 3.819 11.448 1.173.586 2.465.894 3.776.9h8.533v8.533c0 4.713 3.821 8.533 8.533 8.533 4.713 0 8.533-3.821 8.533-8.533v-8.532h8.533c4.713 0 8.533-3.82 8.533-8.533s-3.819-8.534-8.532-8.534z" fill="#ffffff" data-original="#000000" style="" class=""/><path d="m51.2 34.133c4.713 0 8.533 3.821 8.533 8.533s-3.82 8.534-8.533 8.534h-8.533c-4.713 0-8.533-3.821-8.533-8.533s3.821-8.533 8.533-8.533h8.533z" fill="#ffffff" data-original="#000000" style="" class=""/><path d="m93.867 34.133c4.713 0 8.533 3.821 8.533 8.533s-3.82 8.534-8.533 8.534h-8.533c-4.713 0-8.533-3.821-8.533-8.533s3.821-8.533 8.533-8.533h8.533z" fill="#ffffff" data-original="#000000" style="" class=""/><path d="m136.533 34.133c4.713 0 8.533 3.821 8.533 8.533s-3.821 8.533-8.533 8.533h-8.533c-4.713 0-8.533-3.821-8.533-8.533s3.82-8.533 8.533-8.533z" fill="#ffffff" data-original="#000000" style="" class=""/></g></g></svg>
