<svg width="57" height="33" viewBox="0 0 57 33" fill="none" xmlns="http://www.w3.org/2000/svg">
<path d="M46.3094 13.8888C45.6924 13.8888 45.191 13.3867 45.191 12.7704C45.191 12.1535 45.6924 11.6514 46.3094 11.6514C46.9263 11.6514 47.4278 12.1535 47.4278 12.7704C47.4278 13.3867 46.9263 13.8888 46.3094 13.8888ZM46.3094 10.6834C45.1587 10.6834 44.223 11.6198 44.223 12.7704C44.223 13.9204 45.1587 14.8568 46.3094 14.8568C47.4601 14.8568 48.3958 13.9204 48.3958 12.7704C48.3958 11.6198 47.4601 10.6834 46.3094 10.6834Z" fill="white"/>
<path d="M29.9833 9.95068H33.0203V8.98266H29.9833V9.95068Z" fill="white"/>
<path d="M29.9833 14.8566H33.0203V13.8886H29.9833V14.8566Z" fill="white"/>
<path d="M29.9833 19.7632H33.0203V18.7952H29.9833V19.7632Z" fill="white"/>
<path d="M23.3246 12.4036H26.3622V11.4356H23.3246V12.4036Z" fill="white"/>
<path d="M23.3246 17.3096H26.3622V16.3416H23.3246V17.3096Z" fill="white"/>
<path d="M16.6666 14.8566H19.7036V13.8886H16.6666V14.8566Z" fill="white"/>
<path d="M41.6924 22.4327V6.48871C45.7006 7.69745 50.8428 10.0407 53.5978 14.462C50.8447 18.8794 45.7019 21.2233 41.6924 22.4327ZM24.9179 30.0781C24.4119 29.3617 25.0328 26.6442 25.6375 24.934C26.135 23.7898 27.1527 21.8518 27.789 21.4666L27.2883 20.6386C26.3977 21.1768 25.3935 23.1574 24.9547 24.0957L12.2691 17.5771L12.0264 17.9217C9.62898 21.3285 5.70205 26.1273 4.47847 26.1273C2.93803 26.1273 2.93803 22.856 2.93803 20.6922C2.93803 19.5247 4.09514 18.3534 5.11543 17.3202C6.11959 16.3031 6.98758 15.4248 6.98758 14.462C6.98758 13.492 6.10668 12.5879 5.08703 11.5411C4.07965 10.5066 2.93803 9.33469 2.93803 8.2318C2.93803 7.76069 2.90318 7.24377 2.86898 6.74427C2.77734 5.39614 2.67279 3.86796 3.29233 3.20519C3.54917 2.93027 3.93703 2.79733 4.47847 2.79733C6.6791 2.79733 10.6583 8.69709 12.0064 10.9706L12.3233 11.5063L12.7641 11.0668C21.0813 2.77022 35.8643 5.25545 36.0133 5.28191L36.0508 5.28708C36.1011 5.29159 38.0643 5.49423 40.7244 6.21315V22.7089C39.2356 23.1122 37.9687 23.3529 37.1311 23.4878C37.3834 23.0096 37.5809 22.4081 37.4486 21.7886C37.2834 21.0181 36.6748 20.4224 35.639 20.0184L35.2873 20.9206C35.9998 21.1981 36.4083 21.5576 36.5012 21.9893C36.6464 22.6611 36.0411 23.4736 35.7713 23.7575C32.4104 26.2615 26.5958 30.2026 25.1857 30.2026C25.0366 30.2026 24.9708 30.1529 24.9179 30.0781ZM43.4213 6.02277C39.6299 4.69529 36.4664 4.3552 36.1624 4.32486C35.3235 4.18031 21.1762 1.879 12.5221 9.95551C11.3011 7.97882 7.27734 1.82931 4.47847 1.82931C3.66533 1.82931 3.02838 2.06938 2.58503 2.54435C1.67896 3.51431 1.79254 5.18963 1.90289 6.81009C1.93774 7.31605 1.97001 7.7936 1.97001 8.2318C1.97001 9.72771 3.25748 11.05 4.39393 12.2162C5.19287 13.037 6.01956 13.8857 6.01956 14.462C6.01956 15.0273 5.20965 15.8469 4.4262 16.64C3.2749 17.8055 1.97001 19.1272 1.97001 20.6922C1.97001 23.3942 1.97001 27.0953 4.47847 27.0953C6.50615 27.0953 11.1572 20.807 12.5743 18.8219L24.5926 24.9979C24.177 26.2608 23.2684 29.4205 24.1273 30.6363C24.3745 30.9861 24.7404 31.1706 25.1857 31.1706C27.3167 31.1706 34.9705 25.5581 36.2799 24.5868C36.9485 24.512 39.917 24.128 43.4213 22.9018C48.6247 21.0794 52.4839 18.2469 54.58 14.7085L54.7265 14.462L54.58 14.2155C52.4839 10.677 48.6247 7.84394 43.4213 6.02277" fill="white"/>
</svg>
