<svg width="33" height="33" viewBox="0 0 33 33" fill="none" xmlns="http://www.w3.org/2000/svg">
<path d="M31.983 9.52144L32.8608 8.64323C32.955 8.54362 33.0053 8.41047 32.9998 8.27345C32.9501 8.13482 32.8715 8.00878 32.7686 7.90367L30.0419 6.42456L30.0416 3.4206C30.0567 3.2939 30.0129 3.16753 29.9229 3.07725C29.8327 2.98731 29.7063 2.94346 29.5796 2.95862H26.5753L25.0962 0.23188L24.7264 0.000727722L24.7267 0.000405336C24.5897 -0.00507521 24.4566 0.0452172 24.357 0.139354L23.4787 1.01756V1.01724C22.361 2.15105 21.7307 3.67721 21.7227 5.26948C21.7137 5.90038 21.8233 6.52741 22.0461 7.118C20.9026 6.5274 19.6005 6.31623 18.329 6.51578C17.0575 6.71534 15.8827 7.31466 14.9749 8.22731L8.2273 14.9749C7.31459 15.8827 6.71533 17.0574 6.51578 18.329C6.31622 19.6005 6.52738 20.9026 7.11799 22.0461C6.52739 21.8233 5.90034 21.7137 5.26947 21.7227C3.6772 21.7308 2.15104 22.3611 1.01723 23.4788L0.139354 24.357C0.045219 24.4566 -0.00507479 24.5897 0.000405257 24.7267C0.0500525 24.8654 0.128716 24.9914 0.231557 25.0965L2.95829 26.5756V29.5796H2.95862C2.94346 29.7063 2.98731 29.8327 3.07725 29.9229C3.16753 30.0129 3.2939 30.0567 3.4206 30.0416H6.42455L7.90367 32.7683L8.27345 32.9995H8.31955V32.9998C8.4427 33.0037 8.56102 32.9527 8.64323 32.8608L9.52144 31.9826V31.983C10.3074 31.2021 10.8587 30.2163 11.1118 29.1379C11.3652 28.0592 11.3104 26.9312 10.9542 25.8821C11.8297 26.3222 12.7934 26.5591 13.7734 26.5752C15.3753 26.5701 16.9077 25.9205 18.0254 24.7728L24.773 18.0252C25.9206 16.9075 26.5702 15.3752 26.5754 13.7732C26.5593 12.7932 26.3224 11.8295 25.8823 10.954C26.4729 11.1767 27.1 11.2863 27.7308 11.2773C29.3241 11.2741 30.8518 10.6432 31.9831 9.52132L31.983 9.52144ZM24.1261 1.66459L24.5884 1.24871L25.9286 3.65209L25.9282 3.65177C25.9982 3.79233 26.141 3.88163 26.298 3.88292H29.1173V6.70217C29.1185 6.85917 29.2079 7.00199 29.3484 7.07195L31.7518 8.41209L31.3359 8.87439C30.3817 9.83381 29.0841 10.3735 27.7306 10.3735C26.3775 10.3735 25.08 9.83381 24.1257 8.87439C23.1776 7.91398 22.6456 6.61899 22.6456 5.26944C22.6456 3.91965 23.1775 2.62458 24.1257 1.66417L24.1261 1.66459ZM8.87442 31.3361L8.41211 31.752L7.07198 29.3486C7.00202 29.208 6.8592 29.1187 6.7022 29.1174H3.88294V26.2982C3.88165 26.1412 3.79235 25.9983 3.65179 25.9284L1.24841 24.5882L1.66429 24.1259C2.6247 23.1778 3.91969 22.6458 5.26957 22.6458C6.61911 22.6458 7.9141 23.1778 8.87451 24.1259C9.83394 25.0802 10.3736 26.3778 10.3736 27.7309C10.3736 29.0842 9.83393 30.3819 8.87451 31.3362L8.87442 31.3361ZM24.1261 17.3785L17.3782 24.126C16.4252 25.0909 15.1293 25.6393 13.7733 25.6512C12.4151 25.6496 11.1152 25.0996 10.1683 24.126L8.87425 22.8319C7.9145 21.8777 7.37483 20.5804 7.37483 19.227C7.37483 17.8739 7.91451 16.5763 8.87425 15.622L15.6218 8.87448C16.5764 7.91762 17.8753 7.38472 19.2267 7.39537C20.5801 7.37409 21.8833 7.90893 22.8317 8.87448L24.1258 10.1686C25.0994 11.1154 25.6494 12.4153 25.6509 13.7735C25.639 15.1295 25.0906 16.4255 24.1258 17.3785H24.1261Z" fill="white"/>
</svg>
