<svg width="27" height="33" viewBox="0 0 27 33" fill="none" xmlns="http://www.w3.org/2000/svg">
<path d="M6.25535 9.58783C6.27921 10.3218 6.06596 11.0435 5.64682 11.6465C5.47089 11.9072 5.53969 12.2611 5.80041 12.437C6.06114 12.6127 6.41503 12.5441 6.59096 12.2834C7.13601 11.4921 7.41679 10.5485 7.39268 9.58782C7.40664 8.36392 6.9578 7.17985 6.13603 6.27252C5.47345 5.56575 5.10885 4.63099 5.11801 3.66224C5.10811 2.68914 5.47496 1.74984 6.14161 1.04079L6.22691 0.932638C6.32617 0.813576 6.37264 0.65897 6.35512 0.504618C6.3376 0.350519 6.25789 0.210133 6.13451 0.116196C6.01088 0.022265 5.85449 -0.0173402 5.70115 0.00703127C5.54782 0.0314027 5.41124 0.11721 5.32264 0.244649L5.23734 0.3528C4.41885 1.25961 3.97054 2.44062 3.98068 3.66224C3.96926 4.88413 4.4181 6.06559 5.23734 6.97195C5.90219 7.6795 6.26705 8.61699 6.25535 9.58782V9.58783Z" fill="white"/>
<path d="M13.648 9.58783C13.6719 10.3218 13.4586 11.0435 13.0395 11.6465C12.8636 11.9072 12.9324 12.2611 13.1931 12.437C13.4538 12.6127 13.8077 12.5441 13.9836 12.2834C14.5287 11.4921 14.8095 10.5485 14.7854 9.58782C14.7993 8.36392 14.3505 7.17985 13.5287 6.27252C12.8661 5.56575 12.5015 4.63099 12.5107 3.66224C12.5008 2.68914 12.8676 1.74984 13.5343 1.04079L13.6196 0.932638C13.7188 0.813576 13.7653 0.65897 13.7478 0.504618C13.7303 0.350519 13.6506 0.210133 13.5272 0.116196C13.4035 0.022265 13.2472 -0.0173402 13.0938 0.00703127C12.9405 0.0314027 12.8039 0.11721 12.7153 0.244649L12.63 0.3528C11.8115 1.25961 11.3632 2.44062 11.3734 3.66224C11.3619 4.88413 11.8108 6.06559 12.63 6.97195C13.2949 7.6795 13.6597 8.61699 13.648 9.58782V9.58783Z" fill="white"/>
<path d="M21.0407 9.58783C21.0646 10.3218 20.8513 11.0435 20.4322 11.6465C20.2562 11.9072 20.325 12.2611 20.5858 12.437C20.8465 12.6127 21.2004 12.5441 21.3763 12.2834C21.9214 11.4921 22.2021 10.5485 22.178 9.58782C22.192 8.36392 21.7431 7.17985 20.9214 6.27252C20.2588 5.56575 19.8942 4.63099 19.9034 3.66224C19.8935 2.68914 20.2603 1.74984 20.927 1.04079L21.0123 0.932638C21.1115 0.813576 21.158 0.65897 21.1405 0.504618C21.1229 0.350519 21.0432 0.210133 20.9198 0.116196C20.7962 0.022265 20.6398 -0.0173402 20.4865 0.00703127C20.3332 0.0314027 20.1966 0.11721 20.108 0.244649L20.0227 0.3528C19.2042 1.25961 18.7559 2.44062 18.766 3.66224C18.7546 4.88413 19.2034 6.06559 20.0227 6.97195C20.6875 7.6795 21.0524 8.61699 21.0407 9.58782V9.58783Z" fill="white"/>
<path d="M25.59 14.234H0.568678C0.254644 14.234 1.13076e-05 14.4886 1.13076e-05 14.8027V23.9013C-0.00328897 25.7894 0.715947 27.6071 2.01043 28.9818C3.30465 30.3562 5.07564 31.1836 6.96062 31.294V32.4313C6.96062 32.5821 7.02053 32.7268 7.12716 32.8335C7.23378 32.9401 7.37849 33 7.52929 33H18.6297C18.7805 33 18.9252 32.9401 19.0318 32.8335C19.1384 32.7268 19.1983 32.5821 19.1983 32.4313V31.294C21.0833 31.1836 22.8543 30.3562 24.1485 28.9818C25.443 27.6071 26.1622 25.7894 26.1589 23.9013V14.8027C26.1589 14.6519 26.099 14.5072 25.9924 14.4005C25.8858 14.2939 25.7411 14.234 25.5903 14.234H25.59ZM18.0609 31.8627H8.09782V31.294H18.0609V31.8627ZM25.0213 23.9013C25.0213 25.5604 24.3623 27.1514 23.1892 28.3245C22.016 29.4977 20.4251 30.1567 18.766 30.1567H7.39268C5.73366 30.1567 4.14263 29.4976 2.96949 28.3245C1.79635 27.1514 1.13734 25.5604 1.13734 23.9013V15.3713H25.0213V23.9013Z" fill="white"/>
<path d="M11.4702 25.0783C11.6918 25.2987 12.0503 25.2987 12.2719 25.0783L17.0941 20.2561C17.2876 20.0304 17.2744 19.694 17.0644 19.4841C16.8545 19.2739 16.5181 19.2609 16.2924 19.4541L11.8682 23.8783L9.85504 21.8651V21.8653C9.62935 21.6721 9.29323 21.6851 9.08302 21.895C8.87307 22.1052 8.86012 22.4413 9.05332 22.667L11.4702 25.0783Z" fill="white"/>
</svg>
