<svg width="534" height="747" viewBox="0 0 534 747" fill="none" xmlns="http://www.w3.org/2000/svg">
<path d="M458.415 269.377C454.342 233.939 425.227 206.111 389.269 203.981C370.253 202.851 351.9 209.106 337.691 220.762C331.342 213.851 322.967 208.986 313.617 206.981L296.263 203.262C281.544 200.106 268.435 191.043 260.247 178.33L150.044 10.2633C146.679 5.09143 141.487 1.59663 135.429 0.419565C129.372 -0.752315 123.252 0.549773 118.2 4.08623L95.2932 20.1276C90.2359 23.6692 86.9235 28.9713 85.9547 35.0649C84.9859 41.1586 86.4963 47.2264 90.1891 52.1382L210.486 213.258C219.591 225.243 223.627 240.665 221.559 255.57L219.643 269.373H75.7493C33.9787 269.373 0 303.357 0 345.122V354.591C0 396.362 33.984 430.34 75.7493 430.34H139.061L155.327 632.967H155.389L160.181 692.655C162.608 722.942 188.317 746.666 218.697 746.666L417.897 746.671C448.277 746.671 473.98 722.947 476.418 692.66L481.21 632.972H481.272L500.83 389.332H500.767L506.465 318.363C521.82 316.91 533.872 303.956 533.872 288.232V269.378L458.415 269.377ZM388.248 221.169C415.175 222.763 437.087 243.133 441.045 269.377H315.9C323.905 265.356 330.316 259.163 334.452 251.361C344.884 231.699 366.009 219.861 388.249 221.167L388.248 221.169ZM465.388 614.969H171.215L154.48 406.542H482.12L480.349 428.63L465.388 614.969ZM153.041 388.542L147.416 318.506H489.19L483.564 388.542H153.041ZM503.601 300.506H133.001C125.798 300.506 119.944 294.647 119.944 287.449V287.381H516.664V287.449C516.664 294.647 510.805 300.506 503.607 300.506H503.601ZM224.228 202.902L103.957 41.8088C103.077 40.6421 102.723 39.2046 102.952 37.7566C103.181 36.314 103.968 35.0588 105.16 34.2202L128.067 18.1842C129.265 17.3457 130.718 17.0384 132.145 17.3144C133.577 17.5957 134.807 18.4186 135.619 19.6686L245.802 187.695C256.411 204.169 273.49 215.977 292.651 220.081L310.006 223.799C316.183 225.122 321.678 228.461 325.703 233.185C323.302 236.341 321.13 239.706 319.234 243.273C316.687 248.086 312.651 251.893 307.568 254.289C300.276 257.726 294.068 262.898 289.365 269.352H237.01L238.599 257.919C241.291 238.529 236.036 218.446 224.229 202.898L224.228 202.902ZM17.2012 354.595V345.127C17.2012 312.851 43.4612 286.596 75.7319 286.596H102.711V288.237C102.711 297.487 106.893 305.767 113.45 311.325C87.5595 318.382 68.4608 342.09 68.4608 370.185C68.4608 385.174 51.5395 397.351 36.7835 398.247C24.7783 387.518 17.1995 371.93 17.1995 354.597L17.2012 354.595ZM75.7319 413.126C69.3516 413.126 63.2163 412.084 57.4612 410.189C73.0865 402.709 85.6745 387.986 85.6745 370.173C85.6745 346.027 105.32 326.381 129.467 326.381H130.758L135.748 388.537L135.81 389.323H135.748L137.659 413.12L75.7326 413.131L75.7319 413.126ZM459.252 691.286C457.533 712.687 439.367 729.453 417.897 729.453H218.684C197.211 729.453 179.048 712.687 177.329 691.286L172.647 632.974H463.927L459.252 691.286Z" fill="white"/>
<path d="M423.335 510.363C423.335 466.27 376.22 430.399 318.299 430.399C260.381 430.399 213.263 466.269 213.263 510.363C213.263 510.494 213.273 510.624 213.278 510.754C213.278 510.884 213.263 511.014 213.263 511.145C213.263 555.238 260.377 591.109 318.299 591.109C376.216 591.109 423.335 555.239 423.335 511.145C423.335 511.014 423.324 510.884 423.319 510.754C423.324 510.624 423.335 510.494 423.335 510.363ZM318.304 573.113C270.064 573.113 230.799 545.175 230.501 510.758C230.798 476.342 270.069 448.403 318.304 448.403C366.544 448.403 405.809 476.341 406.107 510.758C405.81 545.174 366.539 573.113 318.304 573.113Z" fill="white"/>
</svg>
