<svg width="32" height="33" viewBox="0 0 32 33" fill="none" xmlns="http://www.w3.org/2000/svg">
<path d="M20.1044 33H11.7652C10.2795 33 9.05184 31.8749 8.88952 30.4316C6.08308 29.1062 3.68381 26.9095 2.11048 24.2195C0.635269 21.6981 -0.109945 18.6736 0.0131344 15.7037C0.0240999 15.4391 0.241951 15.23 0.507074 15.23H30.65C30.9147 15.23 31.132 15.4386 31.1437 15.7032C31.2724 18.6591 30.5304 21.6836 29.0534 24.219C29.0534 24.219 29.0532 24.219 29.0532 24.2197C27.4858 26.9 25.0932 29.0931 22.2922 30.4229V30.8123C22.292 32.0185 21.3105 33 20.1042 33H20.1044ZM0.989973 16.2186C0.967798 18.8475 1.66201 21.4943 2.96473 23.7201C4.48554 26.3211 6.83073 28.4292 9.56848 29.6554C9.74613 29.7353 9.86066 29.9115 9.86066 30.1067C9.86066 31.1572 10.7152 32.0113 11.7657 32.0113H20.105C20.7663 32.0113 21.3041 31.4732 21.3041 30.8121V30.1066C21.3041 29.9122 21.4184 29.7353 21.5961 29.6553C24.3362 28.4252 26.6814 26.3172 28.1998 23.7205C29.504 21.4818 30.1963 18.835 30.1694 16.2185L0.989973 16.2186ZM28.6264 23.9696H28.6327H28.6264Z" fill="white"/>
<path d="M2.68364 16.2186C2.44167 16.2186 2.22991 16.0403 2.19482 15.7939C1.80859 13.0769 2.40853 10.4893 3.92979 8.30995C5.52296 6.02933 8.14375 4.56317 10.7693 4.48319C13.5639 4.40327 16.3111 5.93214 17.5727 8.30022C17.7009 8.54097 17.6098 8.84021 17.3688 8.96914C17.1273 9.09585 16.828 9.00593 16.6998 8.76518C15.6113 6.72142 13.2342 5.39362 10.7989 5.4721C8.47927 5.54228 6.15754 6.84644 4.73979 8.87653C3.36445 10.8462 2.82298 13.1904 3.17344 15.655C3.2117 15.9252 3.02382 16.1757 2.75334 16.2137C2.73019 16.2171 2.70655 16.2186 2.6834 16.2186L2.68364 16.2186Z" fill="white"/>
<path d="M6.51265 16.2186C6.28407 16.2186 6.0789 16.059 6.02967 15.8266C5.51405 13.391 6.64301 10.7029 8.71453 9.43553C10.7753 8.17398 13.6212 8.54927 15.3351 10.3072C15.5257 10.5029 15.5218 10.8157 15.3261 11.0063C15.1312 11.1956 14.8173 11.193 14.627 10.9973C13.228 9.5625 10.9077 9.25303 9.23045 10.2789C7.50447 11.3353 6.56531 13.5822 6.99712 15.622C7.05341 15.8891 6.88284 16.1511 6.61576 16.2078C6.5814 16.2154 6.5468 16.2188 6.51269 16.2188L6.51265 16.2186Z" fill="white"/>
<path d="M9.6124 16.2361C9.34947 16.2361 9.13064 16.0287 9.1187 15.7636C9.06461 14.5291 9.74907 13.288 10.8225 12.6765C11.8954 12.0631 13.3119 12.1062 14.3473 12.782C14.5759 12.9313 14.6402 13.2377 14.4908 13.4662C14.3417 13.6948 14.0356 13.7604 13.8066 13.6098C13.0743 13.1314 12.0728 13.1024 11.3123 13.5352C10.5527 13.9685 10.0681 14.8465 10.1066 15.7198C10.1185 15.9927 9.907 16.2237 9.63408 16.2354C9.62701 16.2362 9.61995 16.2362 9.61239 16.2362L9.6124 16.2361Z" fill="white"/>
<path d="M28.9221 16.2186C28.9082 16.2186 28.8943 16.2179 28.8802 16.2167C28.6082 16.1943 28.4062 15.9555 28.4286 15.683C28.6034 13.5911 27.8916 11.4598 26.5246 9.98313C25.1017 8.4448 22.9698 7.62847 20.9584 7.84605C19.1956 8.03856 17.5096 9.00012 16.3317 10.4839C15.2402 11.8601 14.5971 13.6734 14.5204 15.5909C14.5094 15.8638 14.2723 16.0897 14.0065 16.0646C13.7338 16.0536 13.5216 15.8239 13.5325 15.5509C13.6178 13.4261 14.3369 11.4081 15.5575 9.86981C16.8982 8.18013 18.8277 7.08458 20.8512 6.86375C23.1684 6.60691 25.619 7.54802 27.2503 9.31099C28.8026 10.9885 29.6113 13.4009 29.4144 15.765C29.3925 16.0233 29.1763 16.2185 28.9219 16.2185L28.9221 16.2186Z" fill="white"/>
<path d="M26.6215 16.2186C26.6076 16.2186 26.5937 16.2179 26.58 16.2167C26.3078 16.1943 26.1056 15.9555 26.1283 15.683C26.245 14.2804 25.7688 12.8527 24.854 11.8648C23.9032 10.8375 22.4782 10.2916 21.1396 10.4371C19.9627 10.5658 18.8359 11.2088 18.0483 12.2013C17.3151 13.1256 16.8825 14.3467 16.8308 15.6387C16.8201 15.9116 16.593 16.1414 16.3169 16.1124C16.0443 16.1014 15.832 15.8716 15.843 15.5987C15.9034 14.0989 16.4117 12.6746 17.2741 11.5872C18.2244 10.3888 19.5946 9.61124 21.0321 9.45479C22.6788 9.26813 24.4202 9.94019 25.5794 11.1927C26.6794 12.3816 27.253 14.0905 27.1136 15.7653C27.0919 16.0234 26.8756 16.2186 26.6214 16.2186L26.6215 16.2186Z" fill="white"/>
<path d="M24.7818 16.2186C24.7679 16.2186 24.754 16.2179 24.7399 16.2167C24.468 16.1943 24.2659 15.9555 24.2884 15.683C24.3595 14.8321 24.071 13.9663 23.5171 13.3683C22.9445 12.7499 22.085 12.4221 21.2833 12.5077C20.5859 12.5842 19.8889 12.9833 19.4201 13.5743C18.9725 14.1389 18.7089 14.8848 18.6774 15.6765C18.6665 15.9494 18.4359 16.1799 18.1637 16.1502C17.8908 16.14 17.6788 15.9094 17.6893 15.6365C17.7293 14.6374 18.0687 13.6868 18.6457 12.9602C19.2847 12.1544 20.2067 11.6317 21.1756 11.5254C22.287 11.4024 23.4623 11.8532 24.2423 12.6963C24.9817 13.4944 25.3671 14.6421 25.2736 15.7655C25.2524 16.0235 25.0362 16.2187 24.7818 16.2187L24.7818 16.2186Z" fill="white"/>
<path d="M24.5404 8.37411C24.4963 8.37411 24.4519 8.36826 24.4076 8.35608C24.1444 8.28273 23.9909 8.00981 24.0638 7.74712L25.9101 1.12216C25.9835 0.858987 26.2571 0.704985 26.5191 0.778334C26.7823 0.851682 26.9358 1.1246 26.8629 1.38729L25.0165 8.01225C24.9551 8.23107 24.7565 8.37411 24.5404 8.37411V8.37411Z" fill="white"/>
<path d="M21.8667 7.75154C21.633 7.75154 21.4252 7.58535 21.3813 7.34727L20.1312 0.585075C20.0813 0.31654 20.2589 0.0584845 20.5275 0.00901563C20.7933 -0.0431319 21.054 0.136462 21.1033 0.404997L22.3536 7.16782C22.4035 7.43636 22.2259 7.69441 21.9574 7.74388C21.9269 7.74949 21.8967 7.75192 21.8667 7.75192L21.8667 7.75154Z" fill="white"/>
</svg>
