<?xml version="1.0" encoding="utf-8"?>
<!-- Generator: Adobe Illustrator 24.0.0, SVG Export Plug-In . SVG Version: 6.00 Build 0)  -->
<svg version="1.1" id="Layer_1" xmlns="http://www.w3.org/2000/svg" xmlns:xlink="http://www.w3.org/1999/xlink" x="0px" y="0px"
	 viewBox="0 0 192 192" style="enable-background:new 0 0 192 192;" xml:space="preserve">
<style type="text/css">
	.st0{fill:none;}
	.st1{fill:none;stroke:#FFFFFF;stroke-width:12;stroke-linecap:round;stroke-linejoin:round;stroke-miterlimit:3;}
	.st2{fill:#FFFFFF;}
</style>
<rect y="0" class="st0" width="192" height="192"/>
<g>
	<g>
		<path class="st1" d="M36,36h120c3.3,0,6,2.7,6,6v120c0,3.3-2.7,6-6,6H36c-3.3,0-6-2.7-6-6V42C30,38.7,32.7,36,36,36z"/>
		<line class="st1" x1="132" y1="24" x2="132" y2="48"/>
		<line class="st1" x1="60" y1="24" x2="60" y2="48"/>
	</g>
	<path class="st2" d="M123.6,74.3c-2.3,0-4.1,0.9-5.3,2.8l-21.2,32l-21.2-32c-1.3-1.8-2.9-2.8-4.8-2.8c-2.9,0-4.5,1.6-4.5,4.5v56.4
		c0,2.9,1.6,4.5,4.5,4.5s4.5-1.6,4.5-4.5V92.7l16.7,24.5c1.3,1.8,2.7,2.8,4.3,2.8c2.2,0,4-0.9,5.3-2.8l16.6-24.4v42.3
		c0,2.9,1.6,4.5,4.5,4.5c2.9,0,4.5-1.6,4.5-4.5V78.8C127.4,75.1,125.3,74.3,123.6,74.3z"/>
</g>
</svg>
