<svg width="47" height="33" viewBox="0 0 47 33" fill="none" xmlns="http://www.w3.org/2000/svg">
<path d="M39.1377 21.3754C39.6932 20.4544 39.7817 19.3256 39.377 18.3291C38.9723 17.3325 38.1217 16.5853 37.0814 16.3122C36.0413 16.0391 34.9334 16.2725 34.0914 16.9415C33.4149 17.4657 32.9613 18.2266 32.8223 19.0711H13.8612C13.6945 18.0166 13.0441 17.1007 12.1035 16.5961C11.1629 16.0915 10.04 16.056 9.06953 16.5004C8.09897 16.9448 7.39187 17.8177 7.15909 18.8595C6.96765 19.7197 7.11383 20.6202 7.56767 21.3756C7.73534 21.6432 7.73534 21.9831 7.56767 22.2507C7.00411 23.1692 6.90742 24.2995 7.30657 25.3003C7.70572 26.3011 8.55416 27.0545 9.59498 27.3328C10.6358 27.6112 11.747 27.3817 12.5922 26.7139C13.2817 26.1754 13.7363 25.3918 13.8613 24.5261H32.8224C32.9435 25.3397 33.3537 26.0823 33.9778 26.6183C34.6019 27.1541 35.3982 27.4468 36.2206 27.4432C36.4863 27.4442 36.7506 27.4123 37.0085 27.3485C38.0744 27.0978 38.9557 26.3506 39.3773 25.34C39.7989 24.3291 39.7097 23.1776 39.1377 22.2436C38.9733 21.9776 38.9733 21.6416 39.1377 21.3756L39.1377 21.3754ZM38.1678 24.4677C38.0194 25.1114 37.5626 25.6404 36.947 25.8803C36.3317 26.1206 35.6372 26.0409 35.0922 25.6678C34.5469 25.2946 34.2213 24.6761 34.2226 24.0155V23.8915C34.2333 23.6958 34.165 23.504 34.0328 23.3592C33.8983 23.2218 33.7147 23.143 33.5223 23.1404H13.1318C12.9394 23.143 12.7561 23.2218 12.6213 23.3592C12.4892 23.504 12.4208 23.6958 12.4319 23.8915C12.4286 23.9328 12.4286 23.9742 12.4319 24.0155C12.4498 24.6504 12.1649 25.2559 11.6645 25.6466C11.1641 26.0376 10.5074 26.1675 9.896 25.9962C9.28426 25.8253 8.79067 25.3737 8.56572 24.7799C8.34076 24.1861 8.4114 23.5206 8.75619 22.9873C8.97041 22.6331 9.08371 22.2271 9.08371 21.813C9.08371 21.3992 8.97041 20.9932 8.75619 20.639C8.43746 20.0998 8.38992 19.4428 8.62791 18.8633C8.86558 18.2841 9.36109 17.8498 9.96635 17.6899C10.5719 17.5301 11.2172 17.6636 11.7098 18.05C12.1822 18.4287 12.4517 19.0052 12.439 19.6105V19.7345C12.428 19.9302 12.4963 20.1223 12.6285 20.2668C12.7633 20.4042 12.9469 20.483 13.139 20.4856H33.5512C33.7436 20.483 33.9269 20.4042 34.0616 20.2668C34.1938 20.1223 34.2622 19.9302 34.2511 19.7345C34.2544 19.6932 34.2544 19.6519 34.2511 19.6105C34.243 19.0062 34.5116 18.4313 34.9804 18.05C35.4655 17.6659 36.1001 17.5259 36.7016 17.6707C37.3173 17.8221 37.8242 18.2581 38.0661 18.8444C38.3083 19.4308 38.2565 20.0972 37.9267 20.6389C37.7125 20.9931 37.5992 21.3991 37.5992 21.8129C37.5992 22.2271 37.7125 22.633 37.9267 22.9873C38.196 23.4307 38.2826 23.9617 38.1673 24.4676L38.1678 24.4677Z" fill="white"/>
<path d="M46.6788 26.597L43.1272 6.59996C42.9596 2.31909 32.8591 0 23.3419 0C13.8246 0 3.72401 2.319 3.55648 6.59996L0.00488352 26.597C-0.00162784 26.6355 -0.00162784 26.6748 0.00488352 26.7136C0.00488352 30.5934 12.1183 33 23.3416 33C34.5649 33 46.6783 30.6006 46.6783 26.7136C46.6848 26.6748 46.6848 26.6354 46.6783 26.597H46.6788ZM23.3421 1.41504C34.172 1.41504 41.7198 4.20811 41.7198 6.70939C41.7198 9.21109 34.1718 11.9969 23.3421 11.9969C12.5124 11.9969 4.96444 9.211 4.96444 6.70964C4.96444 4.20828 12.5124 1.41496 23.3421 1.41496V1.41504ZM23.3421 31.5919C9.87265 31.5919 1.58061 28.4925 1.42059 26.7716L4.5783 8.9623C7.39312 11.8794 15.5682 13.4109 23.3427 13.4109C31.1172 13.4109 39.2917 11.8647 42.1071 8.9623L45.2648 26.7716C45.1046 28.4928 36.8127 31.5923 23.3433 31.5923L23.3421 31.5919Z" fill="white"/>
</svg>
