<svg width="33" height="33" viewBox="0 0 33 33" fill="none" xmlns="http://www.w3.org/2000/svg">
<path d="M5.04158 6.8237C2.79608 8.6151 1.19479 11.5573 1.45724 14.4846L1.43066 14.4855C1.47415 16.2843 1.31721 18.1474 1.54551 20.0348C1.54648 20.0406 1.54794 20.048 1.5494 20.0537C1.9906 22.8291 4.56558 24.6102 7.13758 24.9887C9.35049 25.4508 11.4356 24.7515 13.2649 25.4102C14.6499 25.7367 15.6475 26.9151 17.0353 27.7852V27.7843C20.9355 30.0869 26.2807 29.1789 29.1866 25.7016C31.0115 23.6704 31.7151 20.9214 31.5616 18.3004C31.563 17.1156 31.5636 15.92 31.5636 14.7236C31.5693 14.3989 31.5616 14.0727 31.5313 13.7459C31.3613 10.2971 28.8352 7.50194 25.8701 6.13964C22.6949 4.67633 19.196 3.99824 15.7217 3.94878C15.2254 3.94147 14.7295 3.94774 14.2262 3.96765C11.1008 4.20183 7.64495 4.63151 5.04181 6.82343L5.04158 6.8237ZM14.2815 4.93803C14.7591 4.92151 15.2386 4.9158 15.7177 4.9234C19.0711 4.97236 22.4354 5.62711 25.4645 7.02313C28.1624 8.26265 30.4171 10.7993 30.5629 13.7969C30.5639 13.8042 30.5652 13.8117 30.5667 13.8188C30.5877 14.0377 30.5949 14.2562 30.5971 14.4747H30.5914V14.7595C30.4925 18.4322 27.8187 21.9383 24.2448 22.8879C24.2424 22.8892 24.2404 22.8893 24.2382 22.8923C21.4137 23.7038 18.1057 23.0022 15.9987 20.9102C14.0329 19.3229 11.496 19.0558 9.18414 19.3364C7.91941 19.3529 6.55569 19.1216 5.40237 18.5874C4.24477 18.0513 3.30759 17.2255 2.80809 16.0255C1.62334 13.0359 3.19941 9.53047 5.66246 7.57293C7.98818 5.61375 11.2048 5.16885 14.2816 4.93923L14.2815 4.93803ZM14.5615 6.21194C14.411 6.21048 14.268 6.27726 14.1742 6.39505L11.5088 9.72498L9.95486 8.71977C9.86544 8.66262 9.75975 8.63616 9.65395 8.64479C9.50367 8.65648 9.36727 8.73702 9.28469 8.86313C9.1368 9.08887 9.20115 9.39188 9.42803 9.53804L10.8984 10.4892L9.65585 12.0412L7.5267 10.6638C7.43719 10.6065 7.33083 10.5802 7.22484 10.5888C7.07436 10.6005 6.9381 10.6817 6.85559 10.8081C6.70801 11.0338 6.77223 11.336 6.99892 11.4821L9.04453 12.8053L6.39615 16.1144C6.22739 16.324 6.261 16.6307 6.47114 16.7988C6.68085 16.9681 6.98838 16.9346 7.15649 16.7238L9.86468 13.3369L12.1182 14.795L10.2852 17.0864C10.1158 17.2961 10.1494 17.6037 10.3602 17.7718C10.5695 17.9384 10.8742 17.9044 11.0417 17.6959L12.9383 15.3257L15.0789 16.7106C14.9916 16.9122 15.0504 17.1472 15.2222 17.284C15.4316 17.4506 15.7362 17.4165 15.9038 17.2081C16.516 16.4428 17.1281 15.6772 17.7405 14.9119C17.9612 15.0198 18.2275 14.9459 18.3613 14.7401C18.4762 14.5643 18.4651 14.3345 18.3339 14.1706C18.7532 13.6466 19.1723 13.1226 19.5916 12.5987L20.1222 12.9394C20.3482 13.0838 20.6486 13.0181 20.7933 12.7923C20.9378 12.5664 20.8719 12.2659 20.6462 12.1212L20.202 11.8354C20.7135 11.1961 21.2255 10.5572 21.7369 9.91794C21.9028 9.70784 21.8676 9.40312 21.6581 9.23643C21.5756 9.16992 21.4736 9.13222 21.3676 9.12915C21.2158 9.12477 21.0711 9.19357 20.9765 9.31225C20.4445 9.97733 19.9121 10.6425 19.3799 11.3076L17.2489 9.93686L18.8199 7.97384C18.9867 7.76473 18.9532 7.46011 18.7449 7.29228C18.6615 7.22475 18.558 7.18659 18.4506 7.18411C18.2988 7.17972 18.1541 7.24857 18.0595 7.36726L16.4268 9.40811L14.1676 7.95577L14.9308 7.00181C15.0983 6.79255 15.0648 6.48722 14.8558 6.31931C14.7723 6.25207 14.6688 6.21437 14.5616 6.21203L14.5615 6.21194ZM10.9573 7.14976C10.2724 7.12112 10.3684 8.25428 11.036 8.11515C11.6141 8.02716 11.5426 7.14398 10.9573 7.14976ZM23.9467 8.08192C23.2618 8.05327 23.3578 9.18643 24.0255 9.0473C24.6035 8.95931 24.532 8.07613 23.9467 8.08192ZM13.5572 8.71981L15.8164 10.1721L14.5834 11.7137L12.3289 10.2557L13.5572 8.71981ZM27.4997 10.4702C26.8149 10.4416 26.9109 11.5747 27.5785 11.4356C28.1565 11.3476 28.085 10.4644 27.4997 10.4702ZM16.6385 10.6999L18.7695 12.0697C18.3561 12.5863 17.9432 13.1032 17.5298 13.6198L15.4035 12.2444L16.6385 10.6999ZM11.7176 11.0198L13.972 12.4779L12.7295 14.0308L10.476 12.5728L11.7176 11.0198ZM5.19061 11.2277C4.50578 11.1991 4.60177 12.3322 5.2694 12.1931C5.84748 12.1051 5.77591 11.2219 5.19061 11.2277ZM24.2134 12.0488C24.0268 12.0547 23.8378 12.0818 23.6496 12.1352C21.7416 12.5676 21.2102 15.2574 22.8028 16.3906C24.3109 17.6348 26.7732 16.4213 26.6919 14.4637C26.7077 13.0911 25.5194 12.0114 24.2134 12.0488ZM14.7922 13.0085L16.9175 14.3839C16.5033 14.9015 16.0891 15.4193 15.675 15.9369L13.5496 14.5615L14.7922 13.0085ZM25.7303 14.4637C25.7299 14.4768 25.7299 14.4878 25.7303 14.4996C25.7867 15.6151 24.2562 16.37 23.3857 15.633C22.4444 14.9845 22.7763 13.3077 24.0511 13.043C25.0051 12.9973 25.7486 13.6643 25.7303 14.4635V14.4637ZM28.8979 13.7318C28.2131 13.7032 28.3091 14.8363 28.9767 14.6972C29.5548 14.6092 29.4832 13.726 28.8979 13.7318ZM27.3829 16.8197C26.6981 16.7912 26.7941 17.9242 27.4617 17.7851C28.0398 17.6971 27.9682 16.8139 27.3829 16.8197ZM15.3513 21.6319C17.7012 23.9695 21.3407 24.732 24.4963 23.8279C27.192 23.1117 29.4002 21.1457 30.5971 18.6878C30.6607 21 30.0023 23.3441 28.4565 25.0619C25.875 28.1649 20.9985 28.9961 17.5355 26.9519C16.3446 26.2019 15.2589 24.8993 13.5316 24.4839C11.3316 23.7052 9.17358 24.4323 7.29508 24.032C5.05294 23.7036 2.86884 22.1507 2.5109 19.8991C2.40939 19.0502 2.39259 18.184 2.39604 17.3057C3.04252 18.2804 3.96486 18.9918 4.99317 19.4681C6.31733 20.0814 7.8182 20.3279 9.2396 20.3063C11.4294 20.0363 13.6967 20.2989 15.3513 21.6319V21.6319ZM25.3639 17.4272C25.1265 17.4199 24.9194 17.5854 24.8731 17.8183L24.596 19.2554H24.595C23.9398 19.4735 23.2608 19.6019 22.5892 19.6266C22.7441 19.4257 22.8985 19.2246 23.0534 19.0238C23.2178 18.8118 23.1799 18.5068 22.968 18.3423C22.8836 18.2774 22.7801 18.242 22.6737 18.2416C22.522 18.241 22.3788 18.311 22.2864 18.4314C21.9967 18.807 21.7067 19.1814 21.4169 19.5563C20.5502 19.41 19.7304 19.0511 19.0353 18.4248C18.9356 18.3353 18.8033 18.291 18.6698 18.3023C18.5461 18.3111 18.4306 18.3681 18.3471 18.4599C18.1679 18.659 18.1837 18.9655 18.3822 19.1452C19.7639 20.3903 21.5147 20.7523 23.2243 20.552L24.0435 21.5421C24.2147 21.7495 24.5219 21.7783 24.7289 21.6065C24.9363 21.4353 24.9652 21.1282 24.7934 20.9212L24.3188 20.3478C25.0245 20.1667 25.7082 19.8993 26.3369 19.5647C26.5751 19.4383 26.6649 19.1424 26.5372 18.905C26.4112 18.6664 26.1151 18.5762 25.8774 18.7038C25.8102 18.7396 25.7407 18.7723 25.6724 18.8062L25.8271 18.0041C25.8787 17.7406 25.7063 17.485 25.4427 17.4336C25.4166 17.4292 25.3904 17.4263 25.3639 17.4263L25.3639 17.4272ZM14.6849 17.9256C14.0001 17.8971 14.0961 19.031 14.7637 18.8919C15.3418 18.8039 15.2702 17.9198 14.6849 17.9256ZM18.6461 20.6052C17.9613 20.5767 18.0573 21.7098 18.7249 21.5706C19.303 21.4826 19.2314 20.5995 18.6461 20.6052ZM10.7646 21.7766C10.1419 21.781 9.51635 21.8633 8.90025 22.0481C8.64216 22.1249 8.49573 22.397 8.57371 22.6547C8.65216 22.9113 8.92366 23.0557 9.18028 22.9774C10.5593 22.5638 12.0744 22.7582 13.4965 23.21C13.7517 23.2907 14.0242 23.1498 14.1059 22.8949C14.1891 22.6384 14.0477 22.3632 13.7907 22.2816C12.8318 21.977 11.8023 21.7691 10.7646 21.7766V21.7766ZM15.6598 23.2499C15.5087 23.2572 15.3694 23.3336 15.283 23.4577C15.1276 23.6777 15.1808 23.9822 15.4016 24.1365C16.4641 24.8773 17.6013 25.8283 19.079 26.1346C19.3413 26.1884 19.5976 26.0199 19.6523 25.7578C19.7065 25.4942 19.5363 25.2368 19.2726 25.1835C18.1009 24.9406 17.0637 24.108 15.9569 23.3362C15.8699 23.2757 15.7656 23.2455 15.6598 23.2499V23.2499Z" fill="white"/>
</svg>
