<svg width="33" height="33" viewBox="0 0 33 33" fill="none" xmlns="http://www.w3.org/2000/svg">
<g clip-path="url(#clip0_29_476)">
<path fill-rule="evenodd" clip-rule="evenodd" d="M8.60847 9.76528L8.60834 5.93792C8.60834 5.71912 8.79043 5.53265 9.02622 5.53265H24.8235C25.0594 5.53265 25.2416 5.71925 25.2416 5.93792V9.76528H26.2595C28.0818 9.76528 29.5499 11.2152 29.5499 12.9924V31.3336C29.5499 32.3319 28.7247 33.1499 27.6958 33.1499H6.15432C5.12514 33.1499 4.30017 32.3319 4.30017 31.3336V12.9924C4.30017 11.2152 5.76825 9.76528 7.59033 9.76528H8.60847ZM24.4052 6.34344H9.44435V10.1706C9.44435 10.3896 9.26226 10.5761 9.02622 10.5761H7.59021C6.23997 10.5761 5.13606 11.653 5.13606 12.9924V31.3336C5.13606 31.894 5.59685 32.3391 6.15419 32.3391H27.6956C28.2528 32.3391 28.7135 31.894 28.7135 31.3336V12.9924C28.7135 11.6531 27.6099 10.5761 26.2594 10.5761H24.8234C24.5875 10.5761 24.4052 10.3895 24.4052 10.1706V6.34344Z" fill="white"/>
<path fill-rule="evenodd" clip-rule="evenodd" d="M5.7359 3.8216C5.7359 2.43391 6.88254 1.3 8.30818 1.3H25.5413C26.9669 1.3 28.1134 2.43388 28.1134 3.8216C28.1134 5.20936 26.9669 6.34344 25.5413 6.34344H8.30818C6.88258 6.34344 5.7359 5.20932 5.7359 3.8216ZM8.30818 2.1108C7.35443 2.1108 6.57191 2.87163 6.57191 3.8216C6.57191 4.7715 7.35437 5.53264 8.30818 5.53264H25.5413C26.4952 5.53264 27.2773 4.77144 27.2773 3.8216C27.2773 2.8717 26.4951 2.1108 25.5413 2.1108H8.30818Z" fill="white"/>
<path fill-rule="evenodd" clip-rule="evenodd" d="M28.7133 14.8086H5.136V28.1065H28.7133V14.8086ZM4.29999 14.4031C4.29999 14.1843 4.48208 13.9978 4.71787 13.9978H29.1317C29.3676 13.9978 29.5498 14.1844 29.5498 14.4031V28.5123C29.5498 28.7309 29.3676 28.9175 29.1317 28.9175H4.71787C4.48208 28.9175 4.29999 28.7311 4.29999 28.5123V14.4031Z" fill="white"/>
<path fill-rule="evenodd" clip-rule="evenodd" d="M19.079 21.8633C18.5217 21.8633 18.0609 22.3084 18.0609 22.8686C18.0609 23.429 18.5217 23.8741 19.079 23.8741C19.6362 23.8741 20.0969 23.4289 20.0969 22.8686C20.0969 22.3084 19.6361 21.8633 19.079 21.8633ZM17.2249 22.8686C17.2249 21.8706 18.0498 21.0523 19.079 21.0523C20.1079 21.0523 20.9331 21.8706 20.9331 22.8686C20.9331 23.8668 20.1079 24.6849 19.079 24.6849C18.0498 24.6849 17.2249 23.8669 17.2249 22.8686Z" fill="white"/>
<path fill-rule="evenodd" clip-rule="evenodd" d="M16.2066 23.274C15.6495 23.274 15.1884 23.7191 15.1884 24.2795C15.1884 24.8398 15.6496 25.2848 16.2066 25.2848C16.7635 25.2848 17.2247 24.8398 17.2247 24.2795C17.2247 23.7191 16.7636 23.274 16.2066 23.274ZM14.3524 24.2795C14.3524 23.2813 15.1776 22.4632 16.2066 22.4632C17.2355 22.4632 18.0607 23.2813 18.0607 24.2795C18.0607 25.2775 17.2355 26.0958 16.2066 26.0958C15.1776 26.0958 14.3524 25.2775 14.3524 24.2795Z" fill="white"/>
<path fill-rule="evenodd" clip-rule="evenodd" d="M16.1617 16.3365C16.4172 16.3209 16.3581 16.7907 16.5 17L19 20.8153C19.22 21.1396 19.3299 21.7838 19 22C18.6699 22.2161 18.7012 21.9887 18.4812 21.6644L16.3199 18.4796C15.8703 19.6733 15.7943 20.9778 16.1112 22.223L16.185 22.5131C16.2812 22.891 16.3846 23.2209 16 23.3153C15.6153 23.4098 15.4123 23.0351 15.3162 22.6572L15.3162 22.3802C15 19 15.3161 19.5 15.5 17L15.5643 16.725C15.6787 16.5002 15.9063 16.3521 16.1617 16.3365Z" fill="white"/>
</g>
<defs>
<clipPath id="clip0_29_476">
<rect width="33" height="33" fill="white"/>
</clipPath>
</defs>
</svg>
