<?xml version="1.0" encoding="utf-8"?>
<!-- Generator: Adobe Illustrator 24.0.0, SVG Export Plug-In . SVG Version: 6.00 Build 0)  -->
<svg version="1.1" id="Layer_1" xmlns="http://www.w3.org/2000/svg" xmlns:xlink="http://www.w3.org/1999/xlink" x="0px" y="0px"
	 viewBox="0 0 192 192" style="enable-background:new 0 0 192 192;" xml:space="preserve">
<style type="text/css">
	.st0{fill:none;}
	.st1{fill:none;stroke:#FFFFFF;stroke-width:12;stroke-linecap:round;stroke-linejoin:round;stroke-miterlimit:3;}
	.st2{fill:#FFFFFF;}
</style>
<rect y="0" class="st0" width="192" height="192"/>
<g>
	<g>
		<path class="st1" d="M36,36h120c3.3,0,6,2.7,6,6v120c0,3.3-2.7,6-6,6H36c-3.3,0-6-2.7-6-6V42C30,38.7,32.7,36,36,36z"/>
		<line class="st1" x1="132" y1="24" x2="132" y2="48"/>
		<line class="st1" x1="60" y1="24" x2="60" y2="48"/>
	</g>
	<path class="st2" d="M103.1,75.3H80.9c-2.9,0-4.5,1.6-4.5,4.5v56.4c0,2.9,1.6,4.5,4.5,4.5s4.5-1.6,4.5-4.5v-21.2h17.7
		c5.9,0,10.5-1.6,13.7-4.8s4.8-7.8,4.8-13.7v-2.8c0-5.9-1.6-10.5-4.8-13.7C113.6,76.9,109,75.3,103.1,75.3z M103.1,106.1H85.4V84.3
		h17.7c3.5,0,5.9,0.7,7.3,2.2c1.4,1.4,2.1,3.9,2.1,7.3v2.8c0,3.5-0.7,5.9-2.1,7.3C109.1,105.4,106.6,106.1,103.1,106.1z"/>
</g>
</svg>
