<svg width="35" height="33" viewBox="0 0 35 33" fill="none" xmlns="http://www.w3.org/2000/svg">
<path d="M18.0284 4.16771C17.8234 4.16771 17.6526 3.99686 17.6526 3.79192V1.81056C17.6526 1.26392 17.2084 0.785653 16.6277 0.785653H4.60284C4.0562 0.785653 3.57793 1.22983 3.57793 1.81056V3.79192C3.57793 3.99686 3.40708 4.16771 3.20214 4.16771C2.99721 4.16771 2.82635 3.99686 2.82635 3.79192L2.82659 1.81056C2.82659 0.819997 3.64653 0 4.63715 0H16.6278C17.6184 0 18.4384 0.819936 18.4384 1.81056V3.79192C18.4043 3.99686 18.2335 4.16771 18.0285 4.16771H18.0284Z" fill="white"/>
<path d="M20.3855 9.87268H0.401049C0.264507 9.87268 0.127727 9.80429 0.0593365 9.70183C0.025261 9.59936 -0.00881566 9.4285 0.0593365 9.32604L2.8607 3.62107C2.96317 3.41614 3.20241 3.34775 3.37302 3.45022C3.57796 3.55268 3.64635 3.79193 3.54388 3.96254L1.05015 9.08701H19.8048L17.6526 3.92868C17.5842 3.72375 17.6526 3.48451 17.8575 3.41636C18.0624 3.34797 18.3017 3.41636 18.3698 3.62129L20.7613 9.32601C20.7954 9.46256 20.7954 9.59934 20.7272 9.7018C20.6586 9.80427 20.5221 9.87266 20.3855 9.87266L20.3855 9.87268Z" fill="white"/>
<path d="M0.401057 27.8758C0.196125 27.8758 0.0252686 27.7049 0.0252686 27.5V9.49689C0.0252686 9.29196 0.196125 9.1211 0.401057 9.1211H20.3855C20.5905 9.1211 20.7613 9.29196 20.7613 9.49689V11.7857C20.7613 11.9906 20.5905 12.1615 20.3855 12.1615C20.1806 12.1615 20.0097 11.9906 20.0097 11.7857V9.87273H0.810982V27.4659C0.810982 27.7051 0.640126 27.876 0.401118 27.876L0.401057 27.8758Z" fill="white"/>
<path d="M16.3886 4.20175H15.8763C15.6714 4.20175 15.5005 4.03089 15.5005 3.82596C15.5005 3.62103 15.6714 3.45017 15.8763 3.45017H16.3886C16.5936 3.45017 16.7644 3.62103 16.7644 3.82596C16.7644 4.03113 16.5938 4.20175 16.3886 4.20175Z" fill="white"/>
<path d="M14.1681 4.20175H13.6899C13.4849 4.20175 13.3141 4.03089 13.3141 3.82596C13.3141 3.62103 13.4849 3.45017 13.6899 3.45017H14.2022C14.4071 3.45017 14.578 3.62103 14.578 3.82596C14.578 4.03113 14.4074 4.20175 14.1681 4.20175V4.20175Z" fill="white"/>
<path d="M11.9818 4.20175H11.4695C11.2645 4.20175 11.0937 4.03089 11.0937 3.82596C11.0937 3.62103 11.2645 3.45017 11.4695 3.45017H11.9818C12.1867 3.45017 12.3576 3.62103 12.3576 3.82596C12.3576 4.03113 12.1867 4.20175 11.9818 4.20175Z" fill="white"/>
<path d="M9.76131 4.20175H9.24874C9.04381 4.20175 8.87296 4.03089 8.87296 3.82596C8.87296 3.62103 9.04381 3.45017 9.24874 3.45017H9.76107C9.966 3.45017 10.1369 3.62103 10.1369 3.82596C10.1712 4.03113 9.96624 4.20175 9.76131 4.20175H9.76131Z" fill="white"/>
<path d="M7.57497 4.20175H7.06265C6.85772 4.20175 6.68686 4.03089 6.68686 3.82596C6.68686 3.62103 6.85772 3.45017 7.06265 3.45017H7.57497C7.7799 3.45017 7.95076 3.62103 7.95076 3.82596C7.95076 4.03113 7.7799 4.20175 7.57497 4.20175Z" fill="white"/>
<path d="M5.35445 4.20175H4.84213C4.63719 4.20175 4.46634 4.03089 4.46634 3.82596C4.46634 3.62103 4.63719 3.45017 4.84213 3.45017H5.35445C5.55938 3.45017 5.73024 3.62103 5.73024 3.82596C5.73024 4.03113 5.55938 4.20175 5.35445 4.20175Z" fill="white"/>
<path d="M12.4259 33H1.66503C1.0159 33 0.435214 32.6242 0.161861 32.0435C-0.111492 31.4627 -0.0430713 30.7796 0.401107 30.3013L5.42284 24.2889C5.96948 23.6058 6.82353 23.23 7.67756 23.264C8.5657 23.264 9.35154 23.7082 9.89794 24.3914L10.5811 25.2113L12.0843 22.4783C12.1183 22.4443 12.1183 22.4099 12.1527 22.3759C12.665 21.6927 13.5874 21.4534 14.373 21.7611C14.578 21.8295 14.6804 22.0685 14.578 22.2734C14.5096 22.4783 14.2706 22.5808 14.0656 22.4783C13.6215 22.3075 13.0751 22.4443 12.7674 22.8541C12.7674 22.8882 12.7334 22.8882 12.7334 22.9225L10.7179 26.5779L9.28312 24.8698C8.87326 24.3575 8.29256 24.0499 7.64343 24.0499C6.9943 24.0499 6.41362 24.3232 6.00374 24.8015L1.0158 30.7792C0.810869 31.0525 0.742479 31.394 0.913335 31.7016C1.05012 32.009 1.32344 32.2142 1.66489 32.2142H12.4258C12.6307 32.2142 12.8015 32.3851 12.8015 32.59C12.8018 32.7949 12.6309 32.9999 12.426 32.9999L12.4259 33Z" fill="white"/>
<path d="M12.4259 28.6273C12.3234 28.6273 12.1867 28.5589 12.1185 28.4565L10.342 26.0652C10.2055 25.8944 10.2396 25.6554 10.4104 25.5186C10.5813 25.382 10.8203 25.4161 10.9571 25.587L12.7335 27.9782C12.8701 28.1491 12.836 28.3881 12.6651 28.5249C12.5965 28.593 12.5284 28.6273 12.4259 28.6273H12.4259Z" fill="white"/>
<path d="M20.488 31.941C19.1898 31.941 17.96 31.3603 16.8326 30.2329C16.696 30.0964 16.696 29.8571 16.7985 29.7206C16.9694 29.4813 21.342 23.9132 26.5687 23.469C28.7209 23.2982 30.7024 24.0157 32.4786 25.6213C32.581 25.7237 32.6494 25.8946 32.581 26.0311C32.5126 26.1677 32.3761 26.2704 32.2393 26.3045C32.2052 26.3045 28.8916 26.441 26.3294 28.9007C24.1775 30.9161 22.2642 31.941 20.488 31.941L20.488 31.941ZM17.6526 29.9253C19.9073 31.9751 22.5035 31.4284 25.783 28.3197C27.7303 26.4751 30.0191 25.826 31.283 25.6211C29.8823 24.5621 28.311 24.1179 26.6711 24.2547C22.4009 24.5962 18.5748 28.7982 17.6525 29.9253L17.6526 29.9253Z" fill="white"/>
<path d="M17.106 30.3354C17.0036 30.3354 16.9011 30.3013 16.8327 30.2329L16.252 29.6522C13.6215 27.0217 14.0316 23.9132 17.5843 20.1553C17.6867 20.0529 19.9071 17.5248 18.4383 13.6988C18.3699 13.5623 18.4042 13.3914 18.5408 13.2889C18.6433 13.1865 18.8141 13.1524 18.9506 13.2206C19.019 13.2546 24.9289 15.6802 23.4257 22.1709C23.3917 22.3758 23.1524 22.5126 22.9475 22.4783C22.7426 22.4442 22.6058 22.2049 22.6401 22C23.665 17.5249 20.8979 15.236 19.4632 14.382C20.4538 18.1739 18.2674 20.5994 18.165 20.736C14.9197 24.1522 14.4756 26.8168 16.7987 29.1398L17.3794 29.7205C17.5159 29.857 17.5159 30.1303 17.3794 30.2671C17.311 30.301 17.2085 30.3353 17.1061 30.3353L17.106 30.3354Z" fill="white"/>
<path d="M29.0284 24.3571C28.9259 24.3571 28.8234 24.3231 28.755 24.2547C28.5842 24.1181 28.5842 23.8448 28.721 23.708C32.5129 19.6428 34.3575 15.0994 32.8546 13.5962C31.3858 12.1274 27.0813 13.8012 23.0844 17.4223C22.9136 17.5588 22.6746 17.5588 22.5378 17.3882C22.4013 17.2173 22.4013 16.9783 22.5719 16.8416C27.047 12.8106 31.6247 11.205 33.4352 13.0155C35.3142 14.8601 33.5377 19.677 29.3016 24.2205C29.2675 24.323 29.131 24.3573 29.0285 24.3573L29.0284 24.3571Z" fill="white"/>
<path d="M15.0563 32.9658C14.7489 32.9658 14.4072 32.8293 14.1682 32.5901C13.6899 32.1118 13.6899 31.3943 14.0998 30.882C14.3731 30.5403 14.6121 30.2328 14.8173 29.8914C14.9198 29.7206 15.159 29.6522 15.3639 29.7549C15.5348 29.8573 15.6032 30.0966 15.5005 30.3015C15.2955 30.6773 15.0222 31.019 14.7148 31.3948C14.544 31.5997 14.544 31.873 14.7489 32.0439C14.9198 32.2148 15.1931 32.2148 15.398 32.078C15.7738 31.7706 16.1155 31.4973 16.4913 31.2924C16.6622 31.1899 16.9012 31.2583 17.038 31.4289C17.1404 31.5998 17.072 31.8388 16.9014 31.9755C16.5597 32.1805 16.2523 32.4197 15.9109 32.693C15.6373 32.8632 15.364 32.9659 15.0563 32.9659L15.0563 32.9658Z" fill="white"/>
</svg>
