<?xml version="1.0" encoding="iso-8859-1"?>
<!-- Generator: Adobe Illustrator 18.0.0, SVG Export Plug-In . SVG Version: 6.00 Build 0)  -->
<!DOCTYPE svg PUBLIC "-//W3C//DTD SVG 1.1//EN" "http://www.w3.org/Graphics/SVG/1.1/DTD/svg11.dtd">
<svg version="1.1" id="Capa_1" xmlns="http://www.w3.org/2000/svg" xmlns:xlink="http://www.w3.org/1999/xlink" x="0px" y="0px"
	 fill="#FFF" viewBox="0 0 496.001 496.001" style="enable-background:new 0 0 496.001 496.001;" xml:space="preserve">
<path d="M474.334,193.668h-18.73l-167.493-78.343c5.546-7.968,8.808-17.638,8.808-28.06c0-23.2-16.124-42.706-37.754-47.898V11.5
	c0-6.351-5.149-11.5-11.5-11.5c-6.351,0-11.5,5.149-11.5,11.5v38.011c0,6.351,5.149,11.5,11.5,11.5
	c14.477,0,26.254,11.777,26.254,26.254c0,6.986-2.748,13.339-7.214,18.048l-16.167-7.563c-1.692-0.791-3.478-1.124-5.225-1.069
	c-1.735-0.049-3.507,0.284-5.186,1.069l-12.861,6.016c-3.657-4.512-5.854-10.254-5.854-16.501c0-6.351-5.149-11.5-11.5-11.5
	c-6.351,0-11.5,5.149-11.5,11.5c0,9.707,2.834,18.759,7.702,26.395L35.061,193.668H21.667c-11.855,0-21.5,9.645-21.5,21.5v259.333
	c0,11.855,9.645,21.5,21.5,21.5h452.667c11.855,0,21.5-9.645,21.5-21.5V215.168C495.834,203.313,486.189,193.668,474.334,193.668z
	 M224.231,130.577c6.973,3.788,14.957,5.941,23.435,5.941c7.586,0,14.775-1.727,21.201-4.804l132.451,61.953H89.348L224.231,130.577
	z M236.5,216.668v256.333H121.167V216.668H236.5z M259.5,216.668h115.334v256.333H259.5V216.668z M23.167,216.668h75v256.333h-75
	V216.668z M472.834,473.001h-75V216.668h75V473.001z"/>
<g>
</g>
<g>
</g>
<g>
</g>
<g>
</g>
<g>
</g>
<g>
</g>
<g>
</g>
<g>
</g>
<g>
</g>
<g>
</g>
<g>
</g>
<g>
</g>
<g>
</g>
<g>
</g>
<g>
</g>
</svg>
