<svg width="16" height="16" viewBox="0 0 16 16" fill="none" xmlns="http://www.w3.org/2000/svg">
<path d="M15.4525 4.32991L11.3763 0.0943125C11.3182 0.0340625 11.2382 0 11.1545 0H5.07924C4.39933 0 3.84617 0.552938 3.84617 1.23256V5.53847H1.38408C0.875392 5.53847 0.461548 5.95219 0.461548 6.46075V11.0778C0.461548 11.5863 0.875392 12 1.38408 12H3.84617V14.7696C3.84617 15.448 4.39933 16 5.07924 16H14.3054C14.9853 16 15.5385 15.4483 15.5385 14.7703V4.54328C15.5385 4.46372 15.5076 4.38725 15.4525 4.32991ZM11.2308 0.830656L14.577 4.30769H11.2308V0.830656ZM1.38408 11.3846C1.2147 11.3846 1.07695 11.247 1.07695 11.0778V6.46075C1.07695 6.29153 1.21474 6.15384 1.38408 6.15384H9.69289C9.86227 6.15384 10 6.29153 10 6.46075V11.0778C10 11.247 9.86224 11.3846 9.69289 11.3846H1.38408ZM14.9231 14.7703C14.9231 15.109 14.646 15.3846 14.3054 15.3846H5.07924C4.73864 15.3846 4.46155 15.1087 4.46155 14.7696V12H9.69289C10.2016 12 10.6154 11.5863 10.6154 11.0778V6.46075C10.6154 5.95219 10.2016 5.53847 9.69289 5.53847H4.46155V1.23256C4.46155 0.892219 4.73864 0.615375 5.07924 0.615375H10.6154V4.61538C10.6154 4.78531 10.7532 4.92306 10.9231 4.92306H14.9231V14.7703Z" fill="#C3C8CB"/>
<path d="M4.14008 7.80912C4.03793 7.6763 3.91111 7.59005 3.75968 7.5504C3.66111 7.52396 3.44958 7.51074 3.12505 7.51074H2.26868V10.1538H2.80233V9.15677H3.1503C3.39189 9.15677 3.57639 9.14415 3.7038 9.1189C3.79755 9.09846 3.8898 9.05671 3.98055 8.99358C4.0713 8.93049 4.14611 8.84365 4.20502 8.73308C4.26392 8.62252 4.29336 8.48608 4.29336 8.32383C4.29333 8.11349 4.24224 7.94193 4.14008 7.80912ZM3.68305 8.53658C3.6428 8.59549 3.58721 8.63874 3.51627 8.6664C3.44533 8.69405 3.30474 8.70787 3.09439 8.70787H2.80233V7.95787H3.06014C3.25246 7.95787 3.38046 7.96387 3.44414 7.9759C3.53068 7.99152 3.60221 8.03059 3.65868 8.09309C3.71518 8.15558 3.74343 8.23493 3.74343 8.33105C3.74346 8.40918 3.7233 8.47768 3.68305 8.53658Z" fill="#C3C8CB"/>
<path d="M6.85883 8.2328C6.80115 8.06393 6.71699 7.92121 6.60643 7.80462C6.49587 7.68802 6.36302 7.6069 6.20799 7.56121C6.09262 7.52755 5.92493 7.51074 5.70499 7.51074H4.72961V10.1538H5.73383C5.93096 10.1538 6.0884 10.1351 6.20618 10.0979C6.36365 10.0474 6.48865 9.97708 6.58118 9.88693C6.70377 9.76793 6.79812 9.6123 6.86424 9.41999C6.91833 9.26252 6.94536 9.07502 6.94536 8.85749C6.94536 8.6099 6.91652 8.40168 6.85883 8.2328ZM6.33958 9.31815C6.30352 9.43655 6.25696 9.52158 6.19986 9.57324C6.14277 9.62493 6.07096 9.66158 5.98443 9.68321C5.91833 9.70005 5.81074 9.70846 5.66171 9.70846H5.26327V7.95787H5.50305C5.72058 7.95787 5.86665 7.96627 5.94115 7.98312C6.0409 8.00474 6.12324 8.04621 6.18815 8.10752C6.25305 8.16884 6.30352 8.25415 6.33958 8.36352C6.37565 8.4729 6.39368 8.62974 6.39368 8.83408C6.39368 9.0384 6.37565 9.19974 6.33958 9.31815Z" fill="#C3C8CB"/>
<path d="M9.21339 7.95787V7.51074H7.40149V10.1538H7.93514V9.03058H9.03852V8.58346H7.93514V7.95787H9.21339Z" fill="#C3C8CB"/>
</svg>
