<svg width="512" height="512" viewBox="0 0 512 512" fill="none" xmlns="http://www.w3.org/2000/svg">
<rect x="20" y="20" width="472" height="472" rx="68" fill="black" stroke="#50FFF8" stroke-width="40"/>
<rect x="30" y="30" width="452" height="452" rx="58" fill="black" stroke="#212227" stroke-width="20"/>
<path d="M164.656 374.472C154.856 374.472 149.956 369.572 149.956 359.772V288.372L69.8064 160.622C64.9064 152.222 66.423 145.339 74.3564 139.972C82.7564 134.839 89.523 136.355 94.6564 144.522L164.656 256.872L238.156 144.522C240.606 140.672 243.581 138.397 247.081 137.697C250.581 136.88 254.256 137.872 258.106 140.672C266.623 145.922 268.14 152.572 262.656 160.622L179.356 288.372V359.772C179.356 369.572 174.456 374.472 164.656 374.472Z" fill="#50FFF8"/>
<path d="M300.713 374.472C290.913 374.472 286.013 369.572 286.013 359.772V151.872C286.013 142.072 290.913 137.172 300.713 137.172H382.613C403.963 137.172 420.297 142.889 431.613 154.322C443.047 165.639 448.763 181.972 448.763 203.322V213.822C448.763 235.172 443.047 251.564 431.613 262.997C420.297 274.314 403.963 279.972 382.613 279.972H315.413V359.772C315.413 369.572 310.513 374.472 300.713 374.472ZM315.413 250.572H382.613C395.913 250.572 405.363 247.772 410.963 242.172C416.563 236.572 419.363 227.122 419.363 213.822V203.322C419.363 190.139 416.563 180.747 410.963 175.147C405.363 169.43 395.913 166.572 382.613 166.572H315.413V250.572Z" fill="white"/>
</svg>
