<svg width="20" height="20" viewBox="0 0 20 20" fill="none" xmlns="http://www.w3.org/2000/svg">
<path fill-rule="evenodd" clip-rule="evenodd" d="M9.58397 1.37596C9.8359 1.20801 10.1641 1.20801 10.416 1.37596L19.416 7.37596C19.6247 7.51506 19.75 7.74924 19.75 8V17.6774C19.75 18.6356 18.9644 19.2016 18.2258 19.2016H1.77419C0.816012 19.2016 0.249999 18.416 0.249999 17.6774V8.00885C0.248065 7.8555 0.292988 7.70018 0.388613 7.56559C0.392835 7.55965 0.397126 7.55379 0.401486 7.54801M9.58397 1.37596L0.598299 7.36641L9.58397 1.37596ZM1.75 9.45294V17.0098L7.06106 13.2266L1.75 9.45294ZM8.59466 13.9758L3.3642 17.7016H16.6358L11.4053 13.9758H8.59466ZM12.9333 13.2225L18.25 17.0098V9.3945L12.9333 13.2225ZM17.6332 7.99021L11.4032 12.4758H8.59416L2.32257 8.01968L10 2.90139L17.6332 7.99021ZM13.3993 6.2825C13.653 6.6099 13.5933 7.081 13.2659 7.33474L9.39491 10.3347C9.11979 10.548 8.73413 10.5439 8.46359 10.3249L6.43133 8.6797C6.10938 8.41908 6.05967 7.94681 6.32029 7.62487C6.58092 7.30292 7.05318 7.25321 7.37513 7.51383L8.94563 8.7852L12.347 6.14912C12.6744 5.89538 13.1455 5.9551 13.3993 6.2825Z" fill="white"/>
</svg>
