<svg width="21" height="20" viewBox="0 0 21 20" fill="none" xmlns="http://www.w3.org/2000/svg">
<path d="M0 2.6156C0 1.9219 0.275571 1.25661 0.766091 0.766092C1.25661 0.275571 1.9219 0 2.6156 0L18.3092 0C19.0029 0 19.6682 0.275571 20.1587 0.766092C20.6492 1.25661 20.9248 1.9219 20.9248 2.6156V13.078C20.9248 13.7717 20.6492 14.437 20.1587 14.9275C19.6682 15.418 19.0029 15.6936 18.3092 15.6936H5.77263C5.42581 15.6937 5.09322 15.8315 4.84801 16.0768L1.11686 19.8079C1.02549 19.8995 0.908988 19.962 0.782111 19.9874C0.655235 20.0127 0.523685 19.9999 0.404109 19.9505C0.284534 19.901 0.18231 19.8172 0.110375 19.7097C0.0384396 19.6021 2.74833e-05 19.4757 0 19.3463L0 2.6156ZM4.5773 3.9234C4.40387 3.9234 4.23755 3.99229 4.11492 4.11492C3.99229 4.23755 3.9234 4.40387 3.9234 4.5773C3.9234 4.75072 3.99229 4.91705 4.11492 5.03968C4.23755 5.16231 4.40387 5.2312 4.5773 5.2312H16.3475C16.5209 5.2312 16.6872 5.16231 16.8099 5.03968C16.9325 4.91705 17.0014 4.75072 17.0014 4.5773C17.0014 4.40387 16.9325 4.23755 16.8099 4.11492C16.6872 3.99229 16.5209 3.9234 16.3475 3.9234H4.5773ZM4.5773 7.1929C4.40387 7.1929 4.23755 7.26179 4.11492 7.38442C3.99229 7.50705 3.9234 7.67337 3.9234 7.8468C3.9234 8.02022 3.99229 8.18655 4.11492 8.30918C4.23755 8.43181 4.40387 8.5007 4.5773 8.5007H16.3475C16.5209 8.5007 16.6872 8.43181 16.8099 8.30918C16.9325 8.18655 17.0014 8.02022 17.0014 7.8468C17.0014 7.67337 16.9325 7.50705 16.8099 7.38442C16.6872 7.26179 16.5209 7.1929 16.3475 7.1929H4.5773ZM4.5773 10.4624C4.40387 10.4624 4.23755 10.5313 4.11492 10.6539C3.99229 10.7766 3.9234 10.9429 3.9234 11.1163C3.9234 11.2897 3.99229 11.456 4.11492 11.5787C4.23755 11.7013 4.40387 11.7702 4.5773 11.7702H11.1163C11.2897 11.7702 11.456 11.7013 11.5787 11.5787C11.7013 11.456 11.7702 11.2897 11.7702 11.1163C11.7702 10.9429 11.7013 10.7766 11.5787 10.6539C11.456 10.5313 11.2897 10.4624 11.1163 10.4624H4.5773Z" fill="#8C93AB"/>
</svg>
