<svg height="511pt" viewBox="-73 0 511 511.99978" width="511pt" xmlns="http://www.w3.org/2000/svg"><path d="m284.378906 105.199219-.011718-.007813c-.140626-.078125-.28125-.167968-.425782-.242187l-28.699218-16.5c-4.835938-3.253907-11.332032-3.210938-18.484376.917969l-209.226562 120.792968c-14.929688 8.621094-27.03125 31.746094-27.03125 51.652344v209.21875c0 10.671875 3.480469 18.246094 9.003906 21.65625l28.828125 16.476562c1 .765626 2.074219 1.378907 3.222657 1.839844l.003906.003906h.003906c4.472656 1.792969 9.996094 1.199219 15.972656-2.253906l209.222656-120.792968c14.929688-8.621094 27.035157-31.746094 27.035157-51.652344v-209.21875c-.003907-10.929688-3.652344-18.605469-9.414063-21.890625zm0 0" fill="#d1d1d1"/><path d="m266.757812 106.652344-209.222656 120.792968c-14.929687 8.621094-27.035156 31.746094-27.035156 51.652344v209.222656c0 19.90625 12.105469 29.054688 27.035156 20.433594l209.222656-120.792968c14.929688-8.621094 27.03125-31.746094 27.03125-51.652344v-209.222656c0-19.902344-12.101562-29.054688-27.03125-20.433594zm0 0" fill="#e9e9e9"/><path d="m266.757812 106.652344-209.222656 120.792968c-5.703125 3.292969-10.984375 8.699219-15.34375 15.234376-.523437.835937-1.03125 1.6875-1.515625 2.558593l89.59375 68.617188c18.957031 14.519531 49.839844-3.3125 68.796875-39.71875l87.257813-167.59375c-4.921875-4.046875-11.867188-4.335938-19.566407.109375zm0 0" fill="#fff"/><path d="m342.144531 19.59375v-.007812l-25.789062-14.925782-.003907.003906c-11.59375-6.914062-26.800781-6.386718-43.457031 3.230469-36.347656 20.984375-65.8125 77.277344-65.8125 125.738281 0 27.039063 9.175781 45.921876 23.601563 53.691407l25.746094 14.917969.003906-.003907c11.574218 6.828125 26.730468 6.269531 43.324218-3.308593 36.347657-20.984376 65.808594-77.28125 65.808594-125.742188 0-26.929688-9.101562-45.765625-23.421875-53.59375zm0 0" fill="#e9662c"/><path d="m365.566406 73.1875c0 48.460938-29.460937 104.757812-65.808594 125.742188-36.34375 20.984374-65.808593-1.292969-65.808593-49.753907 0-48.460937 29.464843-104.753906 65.808593-125.738281 36.347657-20.984375 65.808594 1.289062 65.808594 49.75zm0 0" fill="#ebaf3c"/><path d="m318.722656 58.105469-9.738281-5.375c-1.703125-.964844-3.914063-.867188-6.335937.53125l-7.765626 4.484375c-5.375 3.101562-9.734374 11.429687-9.734374 18.59375v75.332031c0 3.929687 1.308593 6.6875 3.375 7.875 0 0 10.1875 5.628906 10.488281 5.753906 1.621093.683594 3.636719.480469 5.820312-.78125l7.769531-4.484375c5.375-3.105468 9.730469-11.429687 9.730469-18.597656v-75.332031c0-4.070313-1.40625-6.890625-3.609375-8zm0 0" fill="#d1d1d1"/><path d="m312.601562 58.746094-7.769531 4.484375c-5.375 3.105469-9.730469 11.429687-9.730469 18.597656v75.332031c0 7.167969 4.355469 10.460938 9.730469 7.359375l7.769531-4.484375c5.375-3.105468 9.730469-11.429687 9.730469-18.597656v-75.332031c0-7.167969-4.355469-10.460938-9.730469-7.359375zm0 0" fill="#fff"/></svg>