<svg width="24" height="24" viewBox="0 0 24 24" fill="none" xmlns="http://www.w3.org/2000/svg">
<path d="M6 8C6 4.68629 8.68629 2 12 2C15.3137 2 18 4.68629 18 8V10.5714C18 11.4987 18.3008 12.401 18.8571 13.1429L20.1277 14.8369C20.6138 15.4851 20.4717 16.3727 19.7278 16.6937C18.3892 17.2714 15.9232 18 12 18C8.07682 18 5.6108 17.2714 4.27215 16.6937C3.52827 16.3727 3.3862 15.4851 3.87231 14.8369L5.14286 13.1429C5.69924 12.401 6 11.4987 6 10.5714V8Z" fill="#8C93AB"/>
<path fill-rule="evenodd" clip-rule="evenodd" d="M9.53125 19.396C9.72105 20.5885 10.7541 21.5 12.0001 21.5C13.246 21.5 14.2791 20.5885 14.4689 19.396C13.7196 19.4618 12.898 19.5 12 19.5C11.1021 19.5 10.2805 19.4618 9.53125 19.396Z" fill="#8C93AB"/>
</svg>
