<svg width="20" height="20" viewBox="0 0 20 20" fill="none" xmlns="http://www.w3.org/2000/svg">
<path fill-rule="evenodd" clip-rule="evenodd" d="M1.41733 6.59994V4.41727H18.5V6.59994H1.41733ZM2.92063e-05 7.30859V4.40862C2.92063e-05 3.61725 0.617294 2.99997 1.40868 2.99997H18.5087C19.3 2.99997 19.9173 3.61724 19.9173 4.40862V15.8086C19.9173 16.6 19.3001 17.2173 18.5087 17.2173H1.40868C0.617289 17.2173 2.92063e-05 16.6 2.92063e-05 15.8086V7.30859ZM1.41733 8.01724H18.5V15.8H1.41733V8.01724ZM13.5087 13C13.1173 13 12.8 13.3172 12.8 13.7086C12.8 14.1 13.1173 14.4173 13.5087 14.4173H16.3087C16.7 14.4173 17.0173 14.1 17.0173 13.7086C17.0173 13.3172 16.7 13 16.3087 13H13.5087ZM8.50003 13.7086C8.50003 13.3172 8.8173 13 9.20868 13H10.6087C11 13 11.3173 13.3172 11.3173 13.7086C11.3173 14.1 11 14.4173 10.6087 14.4173H9.20868C8.8173 14.4173 8.50003 14.1 8.50003 13.7086Z" fill="white"/>
</svg>
