<svg width="12" height="12" viewBox="0 0 12 12" fill="none" xmlns="http://www.w3.org/2000/svg">
<path d="M5.99996 0.166626C4.84624 0.166626 3.71842 0.508745 2.75914 1.14972C1.79985 1.79069 1.05218 2.70174 0.610665 3.76764C0.169153 4.83354 0.053634 6.00643 0.278714 7.13799C0.503795 8.26954 1.05937 9.30894 1.87517 10.1247C2.69098 10.9406 3.73038 11.4961 4.86194 11.7212C5.99349 11.9463 7.16638 11.8308 8.23228 11.3893C9.29818 10.9477 10.2092 10.2001 10.8502 9.24079C11.4912 8.2815 11.8333 7.15368 11.8333 5.99996C11.8333 5.23391 11.6824 4.47537 11.3893 3.76764C11.0961 3.05991 10.6664 2.41684 10.1248 1.87517C9.58308 1.33349 8.94001 0.903814 8.23228 0.610662C7.52455 0.31751 6.76601 0.166626 5.99996 0.166626ZM5.99996 10.6666C5.07698 10.6666 4.17473 10.3929 3.4073 9.88015C2.63987 9.36737 2.04173 8.63854 1.68852 7.78581C1.33532 6.93309 1.2429 5.99478 1.42296 5.08954C1.60303 4.18429 2.04749 3.35277 2.70013 2.70013C3.35278 2.04748 4.1843 1.60303 5.08954 1.42296C5.99479 1.2429 6.9331 1.33531 7.78582 1.68852C8.63854 2.04173 9.36737 2.63987 9.88015 3.4073C10.3929 4.17473 10.6666 5.07698 10.6666 5.99996C10.6666 7.23764 10.175 8.42462 9.29979 9.29979C8.42462 10.175 7.23764 10.6666 5.99996 10.6666Z" fill="#FFE456"/>
<path d="M8.33329 5.41659H6.58329V3.66659C6.58329 3.51188 6.52183 3.3635 6.41244 3.25411C6.30304 3.14471 6.15467 3.08325 5.99996 3.08325C5.84525 3.08325 5.69688 3.14471 5.58748 3.25411C5.47808 3.3635 5.41663 3.51188 5.41663 3.66659V5.99992C5.41663 6.15463 5.47808 6.303 5.58748 6.4124C5.69688 6.52179 5.84525 6.58325 5.99996 6.58325H8.33329C8.488 6.58325 8.63637 6.52179 8.74577 6.4124C8.85517 6.303 8.91662 6.15463 8.91662 5.99992C8.91662 5.84521 8.85517 5.69684 8.74577 5.58744C8.63637 5.47804 8.488 5.41659 8.33329 5.41659Z" fill="#FFE456"/>
</svg>
