<svg width="21" height="21" viewBox="0 0 21 21" fill="none" xmlns="http://www.w3.org/2000/svg">
<path fill-rule="evenodd" clip-rule="evenodd" d="M2.50875 0C2.24033 0 1.99495 0.151653 1.87491 0.391732L0.30885 3.52386C0.122364 3.65151 0 3.86599 0 4.10904C0 4.24185 0.036533 4.36612 0.100098 4.47236V18.5086C0.100098 19.2407 0.660593 20.0173 1.60875 20.0173H18.4087C19.4011 20.0173 19.8733 19.1992 20.0036 18.5476C20.0128 18.5019 20.0174 18.4553 20.0174 18.4086V4.10865C20.0174 3.99864 19.9918 3.89013 19.9426 3.79173L18.2426 0.391732C18.1225 0.151653 17.8772 0 17.6087 0H2.50875ZM1.5174 4.81769V18.5086C1.5174 18.5364 1.52928 18.5641 1.54363 18.5798C1.54934 18.586 1.55476 18.5897 1.56062 18.5923C1.5658 18.5946 1.57996 18.6 1.60875 18.6H18.4087C18.4368 18.6 18.4491 18.595 18.4538 18.5929C18.4593 18.5903 18.471 18.5839 18.488 18.5655C18.5215 18.5292 18.5676 18.4538 18.6001 18.3295V4.81769H1.5174ZM18.1623 3.40039L17.1708 1.4173H2.94672L1.95517 3.40039H18.1623ZM11.1096 7.60795C10.8329 7.3312 10.3842 7.3312 10.1075 7.60795C9.83072 7.88469 9.83072 8.33339 10.1075 8.61013L12.4973 11H5.80875C5.41737 11 5.1001 11.3173 5.1001 11.7086C5.1001 12.1 5.41737 12.4173 5.80875 12.4173H12.4635L10.1146 14.7009C9.83395 14.9738 9.82763 15.4224 10.1005 15.703C10.3733 15.9836 10.8219 15.99 11.1025 15.7171L14.7025 12.2171C14.7356 12.185 14.7652 12.1499 14.7911 12.1125C14.8707 11.9979 14.9174 11.8587 14.9174 11.7086C14.9174 11.5042 14.8308 11.32 14.6923 11.1907L11.1096 7.60795Z" fill="white"/>
</svg>
