<svg width="21" height="21" viewBox="0 0 21 21" fill="none" xmlns="http://www.w3.org/2000/svg">
<path fill-rule="evenodd" clip-rule="evenodd" d="M1.86618 0.391732C1.98622 0.151653 2.2316 0 2.50002 0H17.6C17.8684 0 18.1138 0.151653 18.2339 0.391732L19.9339 3.79173L19.9411 3.80655C19.9755 3.87967 19.9971 3.95803 20.0052 4.0382C20.0075 4.06155 20.0087 4.08507 20.0087 4.10865V4.10904V18.4086C20.0087 19.3 19.2914 20.0173 18.4 20.0173H1.60002C0.651862 20.0173 0.0913696 19.2407 0.0913696 18.5086V4.10904V4.10865C0.0913696 4.09348 0.0918569 4.07833 0.0928262 4.06324C0.0986547 3.97188 0.121795 3.88522 0.159001 3.80652L0.166184 3.79173L1.86618 0.391732ZM17.1621 1.4173L18.1536 3.40039H1.94644L2.93799 1.4173H17.1621ZM1.50867 18.5086V4.81769H18.5914V18.4086C18.5914 18.5173 18.5086 18.6 18.4 18.6H1.60002C1.57123 18.6 1.55707 18.5946 1.55189 18.5923C1.54603 18.5897 1.54061 18.586 1.5349 18.5798C1.52056 18.5641 1.50867 18.5364 1.50867 18.5086ZM15.4972 8.31322C15.776 8.03863 15.7795 7.58995 15.5049 7.31107C15.2303 7.03219 14.7817 7.02871 14.5028 7.3033L8.47438 13.2389L5.46983 10.5778C5.17685 10.3183 4.72898 10.3454 4.46948 10.6384C4.20999 10.9314 4.23713 11.3793 4.53011 11.6387L8.03011 14.7387C8.30904 14.9858 8.73165 14.9746 8.99716 14.7132L15.4972 8.31322Z" fill="white"/>
</svg>
