<svg width="20" height="20" viewBox="0 0 20 20" fill="none" xmlns="http://www.w3.org/2000/svg">
<path d="M3.9 15.9L2.9 15C3.2 14.6 3.5 14.1 3.8 13.6C4.1 13 4.3 12.4 4.5 11.8C4.7 11.2 4.8 10.5 4.9 9.8C4.2 9.6 3.6 9.3 3.2 8.8C2.7 8.3 2.5 7.7 2.5 7C2.5 6.2 2.8 5.5 3.3 4.9C3.8 4.4 4.5 4.1 5.4 4.1C6.3 4.1 7 4.4 7.6 5C8.2 5.6 8.4 6.4 8.4 7.5C8.5 9 8 10.4 7.2 12C6.3 13.6 5.2 14.8 3.9 15.9Z" stroke="#6D6D6D" stroke-width="1.4173" stroke-miterlimit="3" stroke-linecap="round" stroke-linejoin="round"/>
<path d="M13 15.9L11.9 15C12.2 14.6 12.5 14.1 12.8 13.6C13.1 13 13.3 12.4 13.5 11.8C13.7 11.2 13.8 10.5 13.9 9.8C13.2 9.7 12.6 9.4 12.2 8.9C11.7 8.4 11.5 7.8 11.5 7.1C11.5 6.3 11.8 5.6 12.3 5C12.8 4.5 13.5 4.2 14.4 4.2C15.3 4.2 16 4.5 16.6 5.1C17.2 5.7 17.4 6.5 17.4 7.6C17.4 9 17 10.5 16.1 12.1C15.4 13.6 14.3 14.8 13 15.9Z" stroke="#6D6D6D" stroke-width="1.4173" stroke-miterlimit="3" stroke-linecap="round" stroke-linejoin="round"/>
</svg>
