<svg width="20" height="20" viewBox="0 0 20 20" fill="none" xmlns="http://www.w3.org/2000/svg">
<path fill-rule="evenodd" clip-rule="evenodd" d="M6.37447 0.227125C6.50979 0.0942552 6.69528 0.0123062 6.8999 0.0123062L6.37447 0.227125ZM6.37447 0.227125L1.78349 4.58856C1.48318 4.87385 1.47101 5.34856 1.7563 5.64887C2.04159 5.94917 2.51631 5.96135 2.81661 5.67606L6.1499 2.50943V13.2073C6.1499 16.5073 8.9224 19.0873 12.2999 19.0873C15.6774 19.0873 18.4499 16.5073 18.4499 13.2073V5.13231C18.4499 4.71809 18.1141 4.38231 17.6999 4.38231C17.2857 4.38231 16.9499 4.71809 16.9499 5.13231V13.2073C16.9499 15.6073 14.9224 17.5873 12.2999 17.5873C9.6774 17.5873 7.6499 15.6073 7.6499 13.2073V2.50915L10.9835 5.67606C11.2838 5.96135 11.7585 5.94917 12.0438 5.64887C12.3291 5.34856 12.3169 4.87385 12.0166 4.58856L7.41661 0.218557C7.34036 0.146115 7.25268 0.0927566 7.15958 0.0584806C7.08479 0.0308749 7.00439 0.0148505 6.92055 0.0125848" fill="#8C93AB"/>
</svg>
