<svg width="20" height="20" viewBox="0 0 20 20" fill="none" xmlns="http://www.w3.org/2000/svg">
<path fill-rule="evenodd" clip-rule="evenodd" d="M10.2208 0.0537715C10.3044 0.0883534 10.3827 0.139616 10.4506 0.207559L10.4507 0.207653L12.9617 2.71867C13.2385 2.99542 13.2385 3.44411 12.9617 3.72086C12.685 3.9976 12.2363 3.9976 11.9596 3.72086L10.6582 2.41948V7.13711C10.6582 7.52848 10.3409 7.84576 9.94953 7.84576C9.55815 7.84576 9.24088 7.52848 9.24088 7.13711V2.41948L7.9395 3.72086C7.66276 3.9976 7.21407 3.9976 6.93732 3.72086C6.66058 3.44411 6.66058 2.99542 6.93732 2.71867L9.44844 0.207559C9.57668 0.0793184 9.75384 0 9.94953 0C10.0456 0 10.1372 0.0191233 10.2208 0.0537715ZM9.24088 12.762V17.5315L7.94923 16.1882C7.67796 15.9061 7.22936 15.8973 6.94724 16.1685C6.66512 16.4398 6.65633 16.8884 6.92759 17.1705L9.43871 19.7821L9.44844 19.792C9.46681 19.8104 9.48618 19.8277 9.50647 19.844C9.61896 19.9342 9.75957 19.9908 9.91306 19.9986C9.92514 19.9992 9.9373 19.9995 9.94953 19.9995C9.96471 19.9995 9.97979 19.9991 9.99474 19.9981C10.1483 19.9885 10.2887 19.9299 10.4003 19.8377C10.4214 19.8203 10.4414 19.8018 10.4603 19.7821L12.9715 17.1705C13.2427 16.8884 13.2339 16.4398 12.9518 16.1685C12.6697 15.8973 12.2211 15.9061 11.9498 16.1882L10.6582 17.5315V12.762C10.6582 12.3706 10.3409 12.0534 9.94953 12.0534C9.55815 12.0534 9.24088 12.3706 9.24088 12.762ZM3.72086 6.93732C3.9976 7.21407 3.9976 7.66276 3.72086 7.9395L2.41948 9.24088H7.13711C7.52848 9.24088 7.84576 9.55815 7.84576 9.94953C7.84576 10.3409 7.52848 10.6582 7.13711 10.6582H2.41948L3.72086 11.9596C3.9976 12.2363 3.9976 12.685 3.72086 12.9617C3.44411 13.2385 2.99542 13.2385 2.71867 12.9617L0.207559 10.4506C0.0793184 10.3224 0 10.1452 0 9.94953C0 9.85344 0.0191233 9.76182 0.0537715 9.67827C0.0883534 9.59469 0.139616 9.51638 0.207559 9.44844L0.207653 9.44834L2.71867 6.93732C2.99542 6.66058 3.44411 6.66058 3.72086 6.93732ZM16.1685 6.94724C16.4398 6.66512 16.8884 6.65633 17.1705 6.92759L19.7821 9.43871C19.8056 9.46134 19.8274 9.48543 19.8474 9.51078C19.938 9.6257 19.9912 9.76636 19.9986 9.91349C19.9993 9.92546 19.9996 9.93748 19.9996 9.94953C19.9996 9.96608 19.999 9.98256 19.9978 9.99896C19.9873 10.1497 19.9288 10.293 19.8313 10.4079C19.8159 10.4262 19.7995 10.4436 19.7821 10.4603L17.1705 12.9715C16.8884 13.2427 16.4398 13.2339 16.1685 12.9518C15.8973 12.6697 15.9061 12.2211 16.1882 11.9498L17.5315 10.6582H12.762C12.3706 10.6582 12.0534 10.3409 12.0534 9.94953C12.0534 9.55815 12.3706 9.24088 12.762 9.24088H17.5315L16.1882 7.94923C15.9061 7.67797 15.8973 7.22936 16.1685 6.94724Z" fill="white"/>
</svg>
