<?xml version="1.0" encoding="utf-8"?>
<!-- Generator: Adobe Illustrator 24.0.0, SVG Export Plug-In . SVG Version: 6.00 Build 0)  -->
<svg version="1.1" id="Layer_1" xmlns="http://www.w3.org/2000/svg" xmlns:xlink="http://www.w3.org/1999/xlink" x="0px" y="0px"
	 viewBox="0 0 40 40" style="enable-background:new 0 0 40 40;" xml:space="preserve">
<style type="text/css">
	.st0{fill:#FFFFFF;}
</style>
<g>
	<path class="st0" d="M24,21.1h-9.9c-0.4,0-0.7,0.3-0.7,0.7v1.3h11.3v-1.3C24.8,21.5,24.4,21.1,24,21.1z"/>
	<rect x="13.4" y="24.7" class="st0" width="11.3" height="6.4"/>
	<path class="st0" d="M23.9,15.3c0.4,0,0.7-0.2,0.7-0.3l0-6.1h-1.8l0,6.3H23.9z"/>
	<path class="st0" d="M14,15.3h7.3l0-6.3h-8V15C13.3,15.1,13.5,15.3,14,15.3z"/>
	<path class="st0" d="M26.1,15c0,1-1,1.7-2.2,1.7H14c-1.2,0-2.2-0.8-2.2-1.7V8.9h-0.4c-1.1,0-2,0.9-2,2v18c0,1.1,0.9,2,2,2h0.6v-9.2
		c0-1.2,1-2.2,2.2-2.2H24c1.2,0,2.2,1,2.2,2.2v9.2h2.4c1.1,0,2-0.9,2-2V14.2l-4.6-4.7V15z"/>
	<path class="st0" d="M20,0C9,0,0,9,0,20c0,11,9,20,20,20s20-9,20-20C40,9,31,0,20,0z M32.2,29c0,2-1.6,3.5-3.5,3.5H11.3
		c-2,0-3.5-1.6-3.5-3.5V11c0-2,1.6-3.5,3.5-3.5h14.5c0.2,0,0.4,0.1,0.5,0.2l5.6,5.7c0.1,0.1,0.2,0.3,0.2,0.5V29z"/>
</g>
</svg>
