<svg width="14" height="14" viewBox="0 0 14 14" fill="none" xmlns="http://www.w3.org/2000/svg">
<path d="M13.5868 0.413331C13.5109 0.337772 13.415 0.285458 13.3104 0.26254C13.2057 0.239621 13.0967 0.247051 12.9962 0.283956L0.621189 4.78396C0.514465 4.82444 0.422582 4.89643 0.357743 4.99037C0.292904 5.08431 0.258179 5.19575 0.258179 5.30989C0.258179 5.42404 0.292904 5.53548 0.357743 5.62942C0.422582 5.72336 0.514465 5.79535 0.621189 5.83583L5.45306 7.76521L9.01931 4.18771L9.81244 4.98083L6.22931 8.56396L8.16431 13.3958C8.206 13.5005 8.27815 13.5902 8.37142 13.6534C8.46469 13.7166 8.57478 13.7503 8.68744 13.7502C8.80111 13.7479 8.91141 13.7112 9.00379 13.6449C9.09618 13.5786 9.16631 13.4859 9.20494 13.379L13.7049 1.00396C13.7433 0.904437 13.7525 0.796073 13.7316 0.691501C13.7107 0.586928 13.6605 0.490456 13.5868 0.413331Z" fill="white"/>
</svg>
