<svg width="20" height="20" viewBox="0 0 20 20" fill="none" xmlns="http://www.w3.org/2000/svg">
<path fill-rule="evenodd" clip-rule="evenodd" d="M17.3544 0.939161L17.348 0.939155C17.3005 0.939095 17.1811 0.938942 17.0523 0.960401C16.97 0.974122 16.8256 1.00517 16.6769 1.09074L1.02608 5.5098C0.253554 5.70975 -0.0882479 6.45936 0.0422171 7.1276C0.0695185 7.40611 0.209389 7.63396 0.360956 7.78553C0.49212 7.9167 0.680417 8.0391 0.909226 8.08737L8.01088 11.5472L11.4254 18.7454L11.4319 18.7586C11.6026 19.1001 11.8898 19.3637 12.2654 19.471C12.6314 19.5756 13.0001 19.5091 13.3105 19.3539C13.7156 19.1513 13.9039 18.7664 13.9837 18.6033L13.9985 18.5731C14.0185 18.5332 14.0346 18.4916 14.0467 18.4487L18.5003 2.67543C18.5023 2.66856 18.5041 2.66166 18.5058 2.65474C18.6781 1.96554 18.3359 1.16273 17.5263 0.960319C17.4701 0.946267 17.4123 0.939161 17.3544 0.939161ZM1.56505 6.83033L17.0923 2.44616L12.7012 17.9983C12.6908 18.0186 12.6815 18.0363 12.6723 18.0531L12.6688 18.0595L9.39759 11.1635L12.9379 7.62319C13.2147 7.34645 13.2147 6.89775 12.9379 6.62101C12.6612 6.34426 12.2125 6.34426 11.9358 6.62101L8.39771 10.1591L1.56505 6.83033Z" fill="#50fff8"/>
</svg>
