<svg width="20" height="20" viewBox="0 0 20 20" fill="none" xmlns="http://www.w3.org/2000/svg">
<path fill-rule="evenodd" clip-rule="evenodd" d="M16.856 0.257538C16.7343 0.155067 16.5775 0.0928435 16.4063 0.0913659C16.4042 0.091348 16.4021 0.0913391 16.4 0.0913391C16.2202 0.0913391 16.0561 0.158281 15.9312 0.268598L13.635 2.26524C13.3397 2.52205 13.3085 2.96965 13.5653 3.26499C13.8221 3.56032 14.2697 3.59155 14.565 3.33474L15.6914 2.35532V6.39999C15.6914 7.40513 15.271 8.42682 14.4989 9.1989L11.3989 12.2989C11.1222 12.5756 11.1222 13.0243 11.3989 13.3011C11.6757 13.5778 12.1244 13.5778 12.4011 13.3011L15.5011 10.2011C16.529 9.17315 17.1087 7.79485 17.1087 6.39999V2.31298L18.3464 3.34439C18.647 3.59494 19.0939 3.55432 19.3444 3.25366C19.595 2.95299 19.5544 2.50614 19.2537 2.25559L16.856 0.257538ZM3.14537 0.256391C3.26648 0.154988 3.42199 0.0933066 3.59184 0.0913854L3.60003 0.0913391L3.60232 0.0913428C3.78148 0.0919102 3.94498 0.158961 4.06946 0.269118L6.365 2.26524C6.66034 2.52205 6.69156 2.96966 6.43475 3.26499C6.17794 3.56033 5.73033 3.59155 5.435 3.33474L4.30868 2.35533V6.39999C4.30868 7.40513 4.72904 8.42683 5.50112 9.1989L8.60111 12.2989C9.62904 13.3268 10.2087 14.7051 10.2087 16.1V19.2C10.2087 19.5914 9.8914 19.9086 9.50002 19.9086C9.10865 19.9086 8.79137 19.5914 8.79137 19.2V16.1C8.79137 15.0948 8.371 14.0732 7.59893 13.3011L4.49893 10.2011C3.47101 9.17315 2.89138 7.79485 2.89138 6.39999V2.31297L1.65367 3.34439C1.353 3.59494 0.906154 3.55432 0.655601 3.25366C0.405048 2.95299 0.44567 2.50614 0.746334 2.25559L3.14537 0.256391Z" fill="white"/>
</svg>
