<svg width="20" height="18" viewBox="0 0 20 18" fill="none" xmlns="http://www.w3.org/2000/svg">
<path fill-rule="evenodd" clip-rule="evenodd" d="M6.40866 0C6.80004 0 7.11731 0.317273 7.11731 0.70865V2.2H9.30866H12.1086C12.5 2.2 12.8173 2.51727 12.8173 2.90865C12.8173 3.30002 12.5 3.6173 12.1086 3.6173H9.99053C9.82743 5.7674 8.9282 7.70959 7.5438 9.19291C8.73333 10.0597 10.1734 10.5941 11.7278 10.6858L13.6748 6.79173C13.7953 6.55073 14.0421 6.39892 14.3115 6.4C14.5809 6.40108 14.8265 6.55487 14.945 6.79683L18.3566 13.7592C18.4252 13.8428 18.4751 13.9424 18.4998 14.0515L19.845 16.7968C20.0172 17.1483 19.8719 17.5728 19.5205 17.745C19.169 17.9172 18.7445 17.7719 18.5723 17.4205L17.3457 14.9173H11.1966L9.94249 17.4256C9.76746 17.7756 9.3418 17.9175 8.99174 17.7425C8.64168 17.5675 8.49979 17.1418 8.67482 16.7917L10.0039 14.1335C10.0223 13.959 10.104 13.8034 10.2256 13.6901L11.0474 12.0466C9.34606 11.8377 7.77807 11.1747 6.48118 10.1668C4.91842 11.3892 2.94966 12.1173 0.808656 12.1173C0.41728 12.1173 0.100006 11.8 0.100006 11.4086C0.100006 11.0173 0.41728 10.7 0.808656 10.7C2.5335 10.7 4.12599 10.1419 5.41567 9.19603C4.55487 8.27867 3.87595 7.17857 3.44039 5.9445C3.31014 5.57544 3.50373 5.17066 3.87279 5.0404C4.24186 4.91014 4.64664 5.10373 4.77689 5.4728C5.15053 6.53143 5.73553 7.47393 6.47838 8.25707C7.64255 7.02322 8.40745 5.40838 8.56834 3.6173H6.4107L6.40866 3.6173L6.40663 3.6173H0.70865C0.317273 3.6173 0 3.30002 0 2.90865C0 2.51727 0.317273 2.2 0.70865 2.2H5.70001V0.70865C5.70001 0.317273 6.01729 0 6.40866 0ZM12.6917 11.9272L11.9053 13.5H16.6513L14.3022 8.70606L12.9134 11.4838C12.895 11.6583 12.8133 11.8138 12.6917 11.9272Z" fill="#6D6D6D"/>
</svg>
